  0
SECTION
  2
BLOCKS
  0
ENDSEC
  0
SECTION
  2
ENTITIES
  0
LINE
  8
0
 10
-12.9372
 20
-12.998
 11
-12.8747
 21
-12.9921
  0
LINE
  8
0
 10
-12.8747
 20
-12.9921
 11
86.3253
 21
-0.992111
  0
LINE
  8
0
 10
86.3253
 20
-0.992111
 11
86.3874
 21
-0.982285
  0
LINE
  8
0
 10
86.3874
 20
-0.982285
 11
86.4487
 21
-0.968582
  0
LINE
  8
0
 10
86.4487
 20
-0.968582
 11
86.509
 21
-0.95105
  0
LINE
  8
0
 10
86.509
 20
-0.95105
 11
86.5681
 21
-0.929764
  0
LINE
  8
0
 10
86.5681
 20
-0.929764
 11
86.6258
 21
-0.904816
  0
LINE
  8
0
 10
86.6258
 20
-0.904816
 11
86.6817
 21
-0.876297
  0
LINE
  8
0
 10
86.6817
 20
-0.876297
 11
86.7358
 21
-0.844315
  0
LINE
  8
0
 10
86.7358
 20
-0.844315
 11
86.7878
 21
-0.809006
  0
LINE
  8
0
 10
86.7878
 20
-0.809006
 11
86.8374
 21
-0.770508
  0
LINE
  8
0
 10
86.8374
 20
-0.770508
 11
86.8845
 21
-0.728958
  0
LINE
  8
0
 10
86.8845
 20
-0.728958
 11
86.929
 21
-0.68454
  0
LINE
  8
0
 10
86.929
 20
-0.68454
 11
86.9705
 21
-0.637421
  0
LINE
  8
0
 10
86.9705
 20
-0.637421
 11
87.009
 21
-0.587784
  0
LINE
  8
0
 10
87.009
 20
-0.587784
 11
87.0443
 21
-0.535812
  0
LINE
  8
0
 10
87.0443
 20
-0.535812
 11
87.0763
 21
-0.48175
  0
LINE
  8
0
 10
87.0763
 20
-0.48175
 11
87.1048
 21
-0.425766
  0
LINE
  8
0
 10
87.1048
 20
-0.425766
 11
87.1298
 21
-0.368118
  0
LINE
  8
0
 10
87.1298
 20
-0.368118
 11
87.151
 21
-0.309006
  0
LINE
  8
0
 10
87.151
 20
-0.309006
 11
87.1686
 21
-0.248688
  0
LINE
  8
0
 10
87.1686
 20
-0.248688
 11
87.1823
 21
-0.187378
  0
LINE
  8
0
 10
87.1823
 20
-0.187378
 11
87.1921
 21
-0.12532
  0
LINE
  8
0
 10
87.1921
 20
-0.12532
 11
87.198
 21
-0.0627899
  0
LINE
  8
0
 10
87.198
 20
-0.0627899
 11
87.2
 21
0
  0
LINE
  8
0
 10
87.2
 20
0
 11
87.2
 21
67.4
  0
LINE
  8
0
 10
87.2
 20
67.4
 11
87.198
 21
67.4628
  0
LINE
  8
0
 10
87.198
 20
67.4628
 11
87.1921
 21
67.5253
  0
LINE
  8
0
 10
87.1921
 20
67.5253
 11
87.1823
 21
67.5874
  0
LINE
  8
0
 10
87.1823
 20
67.5874
 11
87.1686
 21
67.6487
  0
LINE
  8
0
 10
87.1686
 20
67.6487
 11
87.151
 21
67.709
  0
LINE
  8
0
 10
87.151
 20
67.709
 11
87.1298
 21
67.7681
  0
LINE
  8
0
 10
87.1298
 20
67.7681
 11
87.1048
 21
67.8258
  0
LINE
  8
0
 10
87.1048
 20
67.8258
 11
87.0763
 21
67.8817
  0
LINE
  8
0
 10
87.0763
 20
67.8817
 11
87.0443
 21
67.9358
  0
LINE
  8
0
 10
87.0443
 20
67.9358
 11
87.009
 21
67.9878
  0
LINE
  8
0
 10
87.009
 20
67.9878
 11
86.9705
 21
68.0374
  0
LINE
  8
0
 10
86.9705
 20
68.0374
 11
86.929
 21
68.0845
  0
LINE
  8
0
 10
86.929
 20
68.0845
 11
86.8845
 21
68.129
  0
LINE
  8
0
 10
86.8845
 20
68.129
 11
86.8374
 21
68.1705
  0
LINE
  8
0
 10
86.8374
 20
68.1705
 11
86.7878
 21
68.209
  0
LINE
  8
0
 10
86.7878
 20
68.209
 11
86.7358
 21
68.2443
  0
LINE
  8
0
 10
86.7358
 20
68.2443
 11
86.6817
 21
68.2763
  0
LINE
  8
0
 10
86.6817
 20
68.2763
 11
86.6258
 21
68.3048
  0
LINE
  8
0
 10
86.6258
 20
68.3048
 11
86.5681
 21
68.3298
  0
LINE
  8
0
 10
86.5681
 20
68.3298
 11
86.509
 21
68.3511
  0
LINE
  8
0
 10
86.509
 20
68.3511
 11
86.4487
 21
68.3686
  0
LINE
  8
0
 10
86.4487
 20
68.3686
 11
86.3874
 21
68.3823
  0
LINE
  8
0
 10
86.3874
 20
68.3823
 11
86.3253
 21
68.3921
  0
LINE
  8
0
 10
86.3253
 20
68.3921
 11
86.2628
 21
68.398
  0
LINE
  8
0
 10
86.2628
 20
68.398
 11
86.2
 21
68.4
  0
LINE
  8
0
 10
86.2
 20
68.4
 11
0
 21
68.4
  0
LINE
  8
0
 10
0
 20
68.4
 11
-0.0627899
 21
68.398
  0
LINE
  8
0
 10
-0.0627899
 20
68.398
 11
-0.12532
 21
68.3921
  0
LINE
  8
0
 10
-0.12532
 20
68.3921
 11
-0.187378
 21
68.3823
  0
LINE
  8
0
 10
-0.187378
 20
68.3823
 11
-0.248688
 21
68.3686
  0
LINE
  8
0
 10
-0.248688
 20
68.3686
 11
-0.309006
 21
68.3511
  0
LINE
  8
0
 10
-0.309006
 20
68.3511
 11
-0.368118
 21
68.3298
  0
LINE
  8
0
 10
-0.368118
 20
68.3298
 11
-0.425766
 21
68.3048
  0
LINE
  8
0
 10
-0.425766
 20
68.3048
 11
-0.48175
 21
68.2763
  0
LINE
  8
0
 10
-0.48175
 20
68.2763
 11
-0.535812
 21
68.2443
  0
LINE
  8
0
 10
-0.535812
 20
68.2443
 11
-0.587784
 21
68.209
  0
LINE
  8
0
 10
-0.587784
 20
68.209
 11
-0.637421
 21
68.1705
  0
LINE
  8
0
 10
-0.637421
 20
68.1705
 11
-0.68454
 21
68.129
  0
LINE
  8
0
 10
-0.68454
 20
68.129
 11
-43.6845
 21
26.729
  0
LINE
  8
0
 10
-43.6845
 20
26.729
 11
-43.729
 21
26.6845
  0
LINE
  8
0
 10
-43.729
 20
26.6845
 11
-43.7705
 21
26.6374
  0
LINE
  8
0
 10
-43.7705
 20
26.6374
 11
-43.809
 21
26.5878
  0
LINE
  8
0
 10
-43.809
 20
26.5878
 11
-43.8443
 21
26.5358
  0
LINE
  8
0
 10
-43.8443
 20
26.5358
 11
-43.8763
 21
26.4818
  0
LINE
  8
0
 10
-43.8763
 20
26.4818
 11
-43.9048
 21
26.4258
  0
LINE
  8
0
 10
-43.9048
 20
26.4258
 11
-43.9298
 21
26.3681
  0
LINE
  8
0
 10
-43.9298
 20
26.3681
 11
-43.951
 21
26.309
  0
LINE
  8
0
 10
-43.951
 20
26.309
 11
-43.9686
 21
26.2487
  0
LINE
  8
0
 10
-43.9686
 20
26.2487
 11
-43.9823
 21
26.1874
  0
LINE
  8
0
 10
-43.9823
 20
26.1874
 11
-43.9921
 21
26.1253
  0
LINE
  8
0
 10
-43.9921
 20
26.1253
 11
-43.998
 21
26.0628
  0
LINE
  8
0
 10
-43.998
 20
26.0628
 11
-44
 21
26
  0
LINE
  8
0
 10
-44
 20
26
 11
-44
 21
-12
  0
LINE
  8
0
 10
-44
 20
-12
 11
-43.998
 21
-12.0628
  0
LINE
  8
0
 10
-43.998
 20
-12.0628
 11
-43.9921
 21
-12.1253
  0
LINE
  8
0
 10
-43.9921
 20
-12.1253
 11
-43.9823
 21
-12.1874
  0
LINE
  8
0
 10
-43.9823
 20
-12.1874
 11
-43.9686
 21
-12.2487
  0
LINE
  8
0
 10
-43.9686
 20
-12.2487
 11
-43.951
 21
-12.309
  0
LINE
  8
0
 10
-43.951
 20
-12.309
 11
-43.9298
 21
-12.3681
  0
LINE
  8
0
 10
-43.9298
 20
-12.3681
 11
-43.9048
 21
-12.4258
  0
LINE
  8
0
 10
-43.9048
 20
-12.4258
 11
-43.8763
 21
-12.4818
  0
LINE
  8
0
 10
-43.8763
 20
-12.4818
 11
-43.8443
 21
-12.5358
  0
LINE
  8
0
 10
-43.8443
 20
-12.5358
 11
-43.809
 21
-12.5878
  0
LINE
  8
0
 10
-43.809
 20
-12.5878
 11
-43.7705
 21
-12.6374
  0
LINE
  8
0
 10
-43.7705
 20
-12.6374
 11
-43.729
 21
-12.6845
  0
LINE
  8
0
 10
-43.729
 20
-12.6845
 11
-43.6845
 21
-12.729
  0
LINE
  8
0
 10
-43.6845
 20
-12.729
 11
-43.6374
 21
-12.7705
  0
LINE
  8
0
 10
-43.6374
 20
-12.7705
 11
-43.5878
 21
-12.809
  0
LINE
  8
0
 10
-43.5878
 20
-12.809
 11
-43.5358
 21
-12.8443
  0
LINE
  8
0
 10
-43.5358
 20
-12.8443
 11
-43.4818
 21
-12.8763
  0
LINE
  8
0
 10
-43.4818
 20
-12.8763
 11
-43.4258
 21
-12.9048
  0
LINE
  8
0
 10
-43.4258
 20
-12.9048
 11
-43.3681
 21
-12.9298
  0
LINE
  8
0
 10
-43.3681
 20
-12.9298
 11
-43.309
 21
-12.951
  0
LINE
  8
0
 10
-43.309
 20
-12.951
 11
-43.2487
 21
-12.9686
  0
LINE
  8
0
 10
-43.2487
 20
-12.9686
 11
-43.1874
 21
-12.9823
  0
LINE
  8
0
 10
-43.1874
 20
-12.9823
 11
-43.1253
 21
-12.9921
  0
LINE
  8
0
 10
-43.1253
 20
-12.9921
 11
-43.0628
 21
-12.998
  0
LINE
  8
0
 10
-43.0628
 20
-12.998
 11
-43
 21
-13
  0
LINE
  8
0
 10
-43
 20
-13
 11
-13
 21
-13
  0
LINE
  8
0
 10
-13
 20
-13
 11
-12.9372
 21
-12.998
  0
LINE
  8
0
 10
82.0995
 20
61.8031
 11
81.9995
 21
61.8126
  0
LINE
  8
0
 10
81.9995
 20
61.8126
 11
81.9002
 21
61.8283
  0
LINE
  8
0
 10
81.9002
 20
61.8283
 11
81.8021
 21
61.8503
  0
LINE
  8
0
 10
81.8021
 20
61.8503
 11
81.7056
 21
61.8783
  0
LINE
  8
0
 10
81.7056
 20
61.8783
 11
81.611
 21
61.9124
  0
LINE
  8
0
 10
81.611
 20
61.9124
 11
81.5188
 21
61.9523
  0
LINE
  8
0
 10
81.5188
 20
61.9523
 11
81.4292
 21
61.9979
  0
LINE
  8
0
 10
81.4292
 20
61.9979
 11
81.3427
 21
62.0491
  0
LINE
  8
0
 10
81.3427
 20
62.0491
 11
81.2595
 21
62.1056
  0
LINE
  8
0
 10
81.2595
 20
62.1056
 11
81.1801
 21
62.1672
  0
LINE
  8
0
 10
81.1801
 20
62.1672
 11
81.1047
 21
62.2336
  0
LINE
  8
0
 10
81.1047
 20
62.2336
 11
81.0336
 21
62.3047
  0
LINE
  8
0
 10
81.0336
 20
62.3047
 11
80.9672
 21
62.3801
  0
LINE
  8
0
 10
80.9672
 20
62.3801
 11
80.9056
 21
62.4595
  0
LINE
  8
0
 10
80.9056
 20
62.4595
 11
80.8491
 21
62.5427
  0
LINE
  8
0
 10
80.8491
 20
62.5427
 11
80.7979
 21
62.6292
  0
LINE
  8
0
 10
80.7979
 20
62.6292
 11
80.7523
 21
62.7188
  0
LINE
  8
0
 10
80.7523
 20
62.7188
 11
80.7124
 21
62.811
  0
LINE
  8
0
 10
80.7124
 20
62.811
 11
80.6783
 21
62.9056
  0
LINE
  8
0
 10
80.6783
 20
62.9056
 11
80.6503
 21
63.0021
  0
LINE
  8
0
 10
80.6503
 20
63.0021
 11
80.6283
 21
63.1002
  0
LINE
  8
0
 10
80.6283
 20
63.1002
 11
80.6126
 21
63.1995
  0
LINE
  8
0
 10
80.6126
 20
63.1995
 11
80.6031
 21
63.2995
  0
LINE
  8
0
 10
80.6031
 20
63.2995
 11
80.6
 21
63.4
  0
LINE
  8
0
 10
80.6
 20
63.4
 11
80.6031
 21
63.5005
  0
LINE
  8
0
 10
80.6031
 20
63.5005
 11
80.6126
 21
63.6005
  0
LINE
  8
0
 10
80.6126
 20
63.6005
 11
80.6283
 21
63.6998
  0
LINE
  8
0
 10
80.6283
 20
63.6998
 11
80.6503
 21
63.7979
  0
LINE
  8
0
 10
80.6503
 20
63.7979
 11
80.6783
 21
63.8944
  0
LINE
  8
0
 10
80.6783
 20
63.8944
 11
80.7124
 21
63.989
  0
LINE
  8
0
 10
80.7124
 20
63.989
 11
80.7523
 21
64.0812
  0
LINE
  8
0
 10
80.7523
 20
64.0812
 11
80.7979
 21
64.1708
  0
LINE
  8
0
 10
80.7979
 20
64.1708
 11
80.8491
 21
64.2573
  0
LINE
  8
0
 10
80.8491
 20
64.2573
 11
80.9056
 21
64.3405
  0
LINE
  8
0
 10
80.9056
 20
64.3405
 11
80.9672
 21
64.4199
  0
LINE
  8
0
 10
80.9672
 20
64.4199
 11
81.0336
 21
64.4953
  0
LINE
  8
0
 10
81.0336
 20
64.4953
 11
81.1047
 21
64.5663
  0
LINE
  8
0
 10
81.1047
 20
64.5663
 11
81.1801
 21
64.6328
  0
LINE
  8
0
 10
81.1801
 20
64.6328
 11
81.2595
 21
64.6944
  0
LINE
  8
0
 10
81.2595
 20
64.6944
 11
81.3427
 21
64.7509
  0
LINE
  8
0
 10
81.3427
 20
64.7509
 11
81.4292
 21
64.8021
  0
LINE
  8
0
 10
81.4292
 20
64.8021
 11
81.5188
 21
64.8477
  0
LINE
  8
0
 10
81.5188
 20
64.8477
 11
81.611
 21
64.8876
  0
LINE
  8
0
 10
81.611
 20
64.8876
 11
81.7056
 21
64.9217
  0
LINE
  8
0
 10
81.7056
 20
64.9217
 11
81.8021
 21
64.9497
  0
LINE
  8
0
 10
81.8021
 20
64.9497
 11
81.9002
 21
64.9716
  0
LINE
  8
0
 10
81.9002
 20
64.9716
 11
81.9995
 21
64.9874
  0
LINE
  8
0
 10
81.9995
 20
64.9874
 11
82.0995
 21
64.9968
  0
LINE
  8
0
 10
82.0995
 20
64.9968
 11
82.2
 21
65
  0
LINE
  8
0
 10
82.2
 20
65
 11
82.3005
 21
64.9968
  0
LINE
  8
0
 10
82.3005
 20
64.9968
 11
82.4005
 21
64.9874
  0
LINE
  8
0
 10
82.4005
 20
64.9874
 11
82.4998
 21
64.9716
  0
LINE
  8
0
 10
82.4998
 20
64.9716
 11
82.5979
 21
64.9497
  0
LINE
  8
0
 10
82.5979
 20
64.9497
 11
82.6944
 21
64.9217
  0
LINE
  8
0
 10
82.6944
 20
64.9217
 11
82.789
 21
64.8876
  0
LINE
  8
0
 10
82.789
 20
64.8876
 11
82.8812
 21
64.8477
  0
LINE
  8
0
 10
82.8812
 20
64.8477
 11
82.9708
 21
64.8021
  0
LINE
  8
0
 10
82.9708
 20
64.8021
 11
83.0573
 21
64.7509
  0
LINE
  8
0
 10
83.0573
 20
64.7509
 11
83.1405
 21
64.6944
  0
LINE
  8
0
 10
83.1405
 20
64.6944
 11
83.2199
 21
64.6328
  0
LINE
  8
0
 10
83.2199
 20
64.6328
 11
83.2953
 21
64.5663
  0
LINE
  8
0
 10
83.2953
 20
64.5663
 11
83.3663
 21
64.4953
  0
LINE
  8
0
 10
83.3663
 20
64.4953
 11
83.4328
 21
64.4199
  0
LINE
  8
0
 10
83.4328
 20
64.4199
 11
83.4944
 21
64.3405
  0
LINE
  8
0
 10
83.4944
 20
64.3405
 11
83.5509
 21
64.2573
  0
LINE
  8
0
 10
83.5509
 20
64.2573
 11
83.6021
 21
64.1708
  0
LINE
  8
0
 10
83.6021
 20
64.1708
 11
83.6477
 21
64.0812
  0
LINE
  8
0
 10
83.6477
 20
64.0812
 11
83.6876
 21
63.989
  0
LINE
  8
0
 10
83.6876
 20
63.989
 11
83.7217
 21
63.8944
  0
LINE
  8
0
 10
83.7217
 20
63.8944
 11
83.7497
 21
63.7979
  0
LINE
  8
0
 10
83.7497
 20
63.7979
 11
83.7717
 21
63.6998
  0
LINE
  8
0
 10
83.7717
 20
63.6998
 11
83.7874
 21
63.6005
  0
LINE
  8
0
 10
83.7874
 20
63.6005
 11
83.7968
 21
63.5005
  0
LINE
  8
0
 10
83.7968
 20
63.5005
 11
83.8
 21
63.4
  0
LINE
  8
0
 10
83.8
 20
63.4
 11
83.7968
 21
63.2995
  0
LINE
  8
0
 10
83.7968
 20
63.2995
 11
83.7874
 21
63.1995
  0
LINE
  8
0
 10
83.7874
 20
63.1995
 11
83.7717
 21
63.1002
  0
LINE
  8
0
 10
83.7717
 20
63.1002
 11
83.7497
 21
63.0021
  0
LINE
  8
0
 10
83.7497
 20
63.0021
 11
83.7217
 21
62.9056
  0
LINE
  8
0
 10
83.7217
 20
62.9056
 11
83.6876
 21
62.811
  0
LINE
  8
0
 10
83.6876
 20
62.811
 11
83.6477
 21
62.7188
  0
LINE
  8
0
 10
83.6477
 20
62.7188
 11
83.6021
 21
62.6292
  0
LINE
  8
0
 10
83.6021
 20
62.6292
 11
83.5509
 21
62.5427
  0
LINE
  8
0
 10
83.5509
 20
62.5427
 11
83.4944
 21
62.4595
  0
LINE
  8
0
 10
83.4944
 20
62.4595
 11
83.4328
 21
62.3801
  0
LINE
  8
0
 10
83.4328
 20
62.3801
 11
83.3663
 21
62.3047
  0
LINE
  8
0
 10
83.3663
 20
62.3047
 11
83.2953
 21
62.2336
  0
LINE
  8
0
 10
83.2953
 20
62.2336
 11
83.2199
 21
62.1672
  0
LINE
  8
0
 10
83.2199
 20
62.1672
 11
83.1405
 21
62.1056
  0
LINE
  8
0
 10
83.1405
 20
62.1056
 11
83.0573
 21
62.0491
  0
LINE
  8
0
 10
83.0573
 20
62.0491
 11
82.9708
 21
61.9979
  0
LINE
  8
0
 10
82.9708
 20
61.9979
 11
82.8812
 21
61.9523
  0
LINE
  8
0
 10
82.8812
 20
61.9523
 11
82.789
 21
61.9124
  0
LINE
  8
0
 10
82.789
 20
61.9124
 11
82.6944
 21
61.8783
  0
LINE
  8
0
 10
82.6944
 20
61.8783
 11
82.5979
 21
61.8503
  0
LINE
  8
0
 10
82.5979
 20
61.8503
 11
82.4998
 21
61.8283
  0
LINE
  8
0
 10
82.4998
 20
61.8283
 11
82.4005
 21
61.8126
  0
LINE
  8
0
 10
82.4005
 20
61.8126
 11
82.3005
 21
61.8031
  0
LINE
  8
0
 10
82.3005
 20
61.8031
 11
82.2
 21
61.8
  0
LINE
  8
0
 10
82.2
 20
61.8
 11
82.0995
 21
61.8031
  0
LINE
  8
0
 10
42.9995
 20
61.8031
 11
42.8995
 21
61.8126
  0
LINE
  8
0
 10
42.8995
 20
61.8126
 11
42.8002
 21
61.8283
  0
LINE
  8
0
 10
42.8002
 20
61.8283
 11
42.7021
 21
61.8503
  0
LINE
  8
0
 10
42.7021
 20
61.8503
 11
42.6056
 21
61.8783
  0
LINE
  8
0
 10
42.6056
 20
61.8783
 11
42.511
 21
61.9124
  0
LINE
  8
0
 10
42.511
 20
61.9124
 11
42.4187
 21
61.9523
  0
LINE
  8
0
 10
42.4187
 20
61.9523
 11
42.3292
 21
61.9979
  0
LINE
  8
0
 10
42.3292
 20
61.9979
 11
42.2427
 21
62.0491
  0
LINE
  8
0
 10
42.2427
 20
62.0491
 11
42.1595
 21
62.1056
  0
LINE
  8
0
 10
42.1595
 20
62.1056
 11
42.0801
 21
62.1672
  0
LINE
  8
0
 10
42.0801
 20
62.1672
 11
42.0047
 21
62.2336
  0
LINE
  8
0
 10
42.0047
 20
62.2336
 11
41.9336
 21
62.3047
  0
LINE
  8
0
 10
41.9336
 20
62.3047
 11
41.8672
 21
62.3801
  0
LINE
  8
0
 10
41.8672
 20
62.3801
 11
41.8056
 21
62.4595
  0
LINE
  8
0
 10
41.8056
 20
62.4595
 11
41.7491
 21
62.5427
  0
LINE
  8
0
 10
41.7491
 20
62.5427
 11
41.6979
 21
62.6292
  0
LINE
  8
0
 10
41.6979
 20
62.6292
 11
41.6523
 21
62.7188
  0
LINE
  8
0
 10
41.6523
 20
62.7188
 11
41.6124
 21
62.811
  0
LINE
  8
0
 10
41.6124
 20
62.811
 11
41.5783
 21
62.9056
  0
LINE
  8
0
 10
41.5783
 20
62.9056
 11
41.5503
 21
63.0021
  0
LINE
  8
0
 10
41.5503
 20
63.0021
 11
41.5283
 21
63.1002
  0
LINE
  8
0
 10
41.5283
 20
63.1002
 11
41.5126
 21
63.1995
  0
LINE
  8
0
 10
41.5126
 20
63.1995
 11
41.5032
 21
63.2995
  0
LINE
  8
0
 10
41.5032
 20
63.2995
 11
41.5
 21
63.4
  0
LINE
  8
0
 10
41.5
 20
63.4
 11
41.5032
 21
63.5005
  0
LINE
  8
0
 10
41.5032
 20
63.5005
 11
41.5126
 21
63.6005
  0
LINE
  8
0
 10
41.5126
 20
63.6005
 11
41.5283
 21
63.6998
  0
LINE
  8
0
 10
41.5283
 20
63.6998
 11
41.5503
 21
63.7979
  0
LINE
  8
0
 10
41.5503
 20
63.7979
 11
41.5783
 21
63.8944
  0
LINE
  8
0
 10
41.5783
 20
63.8944
 11
41.6124
 21
63.989
  0
LINE
  8
0
 10
41.6124
 20
63.989
 11
41.6523
 21
64.0812
  0
LINE
  8
0
 10
41.6523
 20
64.0812
 11
41.6979
 21
64.1708
  0
LINE
  8
0
 10
41.6979
 20
64.1708
 11
41.7491
 21
64.2573
  0
LINE
  8
0
 10
41.7491
 20
64.2573
 11
41.8056
 21
64.3405
  0
LINE
  8
0
 10
41.8056
 20
64.3405
 11
41.8672
 21
64.4199
  0
LINE
  8
0
 10
41.8672
 20
64.4199
 11
41.9336
 21
64.4953
  0
LINE
  8
0
 10
41.9336
 20
64.4953
 11
42.0047
 21
64.5663
  0
LINE
  8
0
 10
42.0047
 20
64.5663
 11
42.0801
 21
64.6328
  0
LINE
  8
0
 10
42.0801
 20
64.6328
 11
42.1595
 21
64.6944
  0
LINE
  8
0
 10
42.1595
 20
64.6944
 11
42.2427
 21
64.7509
  0
LINE
  8
0
 10
42.2427
 20
64.7509
 11
42.3292
 21
64.8021
  0
LINE
  8
0
 10
42.3292
 20
64.8021
 11
42.4187
 21
64.8477
  0
LINE
  8
0
 10
42.4187
 20
64.8477
 11
42.511
 21
64.8876
  0
LINE
  8
0
 10
42.511
 20
64.8876
 11
42.6056
 21
64.9217
  0
LINE
  8
0
 10
42.6056
 20
64.9217
 11
42.7021
 21
64.9497
  0
LINE
  8
0
 10
42.7021
 20
64.9497
 11
42.8002
 21
64.9716
  0
LINE
  8
0
 10
42.8002
 20
64.9716
 11
42.8995
 21
64.9874
  0
LINE
  8
0
 10
42.8995
 20
64.9874
 11
42.9995
 21
64.9968
  0
LINE
  8
0
 10
42.9995
 20
64.9968
 11
43.1
 21
65
  0
LINE
  8
0
 10
43.1
 20
65
 11
43.2005
 21
64.9968
  0
LINE
  8
0
 10
43.2005
 20
64.9968
 11
43.3005
 21
64.9874
  0
LINE
  8
0
 10
43.3005
 20
64.9874
 11
43.3998
 21
64.9716
  0
LINE
  8
0
 10
43.3998
 20
64.9716
 11
43.4979
 21
64.9497
  0
LINE
  8
0
 10
43.4979
 20
64.9497
 11
43.5944
 21
64.9217
  0
LINE
  8
0
 10
43.5944
 20
64.9217
 11
43.689
 21
64.8876
  0
LINE
  8
0
 10
43.689
 20
64.8876
 11
43.7812
 21
64.8477
  0
LINE
  8
0
 10
43.7812
 20
64.8477
 11
43.8708
 21
64.8021
  0
LINE
  8
0
 10
43.8708
 20
64.8021
 11
43.9573
 21
64.7509
  0
LINE
  8
0
 10
43.9573
 20
64.7509
 11
44.0405
 21
64.6944
  0
LINE
  8
0
 10
44.0405
 20
64.6944
 11
44.1199
 21
64.6328
  0
LINE
  8
0
 10
44.1199
 20
64.6328
 11
44.1953
 21
64.5663
  0
LINE
  8
0
 10
44.1953
 20
64.5663
 11
44.2663
 21
64.4953
  0
LINE
  8
0
 10
44.2663
 20
64.4953
 11
44.3328
 21
64.4199
  0
LINE
  8
0
 10
44.3328
 20
64.4199
 11
44.3944
 21
64.3405
  0
LINE
  8
0
 10
44.3944
 20
64.3405
 11
44.4509
 21
64.2573
  0
LINE
  8
0
 10
44.4509
 20
64.2573
 11
44.5021
 21
64.1708
  0
LINE
  8
0
 10
44.5021
 20
64.1708
 11
44.5477
 21
64.0812
  0
LINE
  8
0
 10
44.5477
 20
64.0812
 11
44.5876
 21
63.989
  0
LINE
  8
0
 10
44.5876
 20
63.989
 11
44.6217
 21
63.8944
  0
LINE
  8
0
 10
44.6217
 20
63.8944
 11
44.6497
 21
63.7979
  0
LINE
  8
0
 10
44.6497
 20
63.7979
 11
44.6717
 21
63.6998
  0
LINE
  8
0
 10
44.6717
 20
63.6998
 11
44.6874
 21
63.6005
  0
LINE
  8
0
 10
44.6874
 20
63.6005
 11
44.6968
 21
63.5005
  0
LINE
  8
0
 10
44.6968
 20
63.5005
 11
44.7
 21
63.4
  0
LINE
  8
0
 10
44.7
 20
63.4
 11
44.6968
 21
63.2995
  0
LINE
  8
0
 10
44.6968
 20
63.2995
 11
44.6874
 21
63.1995
  0
LINE
  8
0
 10
44.6874
 20
63.1995
 11
44.6717
 21
63.1002
  0
LINE
  8
0
 10
44.6717
 20
63.1002
 11
44.6497
 21
63.0021
  0
LINE
  8
0
 10
44.6497
 20
63.0021
 11
44.6217
 21
62.9056
  0
LINE
  8
0
 10
44.6217
 20
62.9056
 11
44.5876
 21
62.811
  0
LINE
  8
0
 10
44.5876
 20
62.811
 11
44.5477
 21
62.7188
  0
LINE
  8
0
 10
44.5477
 20
62.7188
 11
44.5021
 21
62.6292
  0
LINE
  8
0
 10
44.5021
 20
62.6292
 11
44.4509
 21
62.5427
  0
LINE
  8
0
 10
44.4509
 20
62.5427
 11
44.3944
 21
62.4595
  0
LINE
  8
0
 10
44.3944
 20
62.4595
 11
44.3328
 21
62.3801
  0
LINE
  8
0
 10
44.3328
 20
62.3801
 11
44.2663
 21
62.3047
  0
LINE
  8
0
 10
44.2663
 20
62.3047
 11
44.1953
 21
62.2336
  0
LINE
  8
0
 10
44.1953
 20
62.2336
 11
44.1199
 21
62.1672
  0
LINE
  8
0
 10
44.1199
 20
62.1672
 11
44.0405
 21
62.1056
  0
LINE
  8
0
 10
44.0405
 20
62.1056
 11
43.9573
 21
62.0491
  0
LINE
  8
0
 10
43.9573
 20
62.0491
 11
43.8708
 21
61.9979
  0
LINE
  8
0
 10
43.8708
 20
61.9979
 11
43.7812
 21
61.9523
  0
LINE
  8
0
 10
43.7812
 20
61.9523
 11
43.689
 21
61.9124
  0
LINE
  8
0
 10
43.689
 20
61.9124
 11
43.5944
 21
61.8783
  0
LINE
  8
0
 10
43.5944
 20
61.8783
 11
43.4979
 21
61.8503
  0
LINE
  8
0
 10
43.4979
 20
61.8503
 11
43.3998
 21
61.8283
  0
LINE
  8
0
 10
43.3998
 20
61.8283
 11
43.3005
 21
61.8126
  0
LINE
  8
0
 10
43.3005
 20
61.8126
 11
43.2005
 21
61.8031
  0
LINE
  8
0
 10
43.2005
 20
61.8031
 11
43.1
 21
61.8
  0
LINE
  8
0
 10
43.1
 20
61.8
 11
42.9995
 21
61.8031
  0
LINE
  8
0
 10
3.89952
 20
61.8031
 11
3.79945
 21
61.8126
  0
LINE
  8
0
 10
3.79945
 20
61.8126
 11
3.70018
 21
61.8283
  0
LINE
  8
0
 10
3.70018
 20
61.8283
 11
3.60208
 21
61.8503
  0
LINE
  8
0
 10
3.60208
 20
61.8503
 11
3.50557
 21
61.8783
  0
LINE
  8
0
 10
3.50557
 20
61.8783
 11
3.411
 21
61.9124
  0
LINE
  8
0
 10
3.411
 20
61.9124
 11
3.31874
 21
61.9523
  0
LINE
  8
0
 10
3.31874
 20
61.9523
 11
3.22919
 21
61.9979
  0
LINE
  8
0
 10
3.22919
 20
61.9979
 11
3.14267
 21
62.0491
  0
LINE
  8
0
 10
3.14267
 20
62.0491
 11
3.05954
 21
62.1056
  0
LINE
  8
0
 10
3.05954
 20
62.1056
 11
2.98012
 21
62.1672
  0
LINE
  8
0
 10
2.98012
 20
62.1672
 11
2.90472
 21
62.2336
  0
LINE
  8
0
 10
2.90472
 20
62.2336
 11
2.83365
 21
62.3047
  0
LINE
  8
0
 10
2.83365
 20
62.3047
 11
2.76717
 21
62.3801
  0
LINE
  8
0
 10
2.76717
 20
62.3801
 11
2.70557
 21
62.4595
  0
LINE
  8
0
 10
2.70557
 20
62.4595
 11
2.64906
 21
62.5427
  0
LINE
  8
0
 10
2.64906
 20
62.5427
 11
2.5979
 21
62.6292
  0
LINE
  8
0
 10
2.5979
 20
62.6292
 11
2.55228
 21
62.7188
  0
LINE
  8
0
 10
2.55228
 20
62.7188
 11
2.51234
 21
62.811
  0
LINE
  8
0
 10
2.51234
 20
62.811
 11
2.4783
 21
62.9056
  0
LINE
  8
0
 10
2.4783
 20
62.9056
 11
2.45026
 21
63.0021
  0
LINE
  8
0
 10
2.45026
 20
63.0021
 11
2.42833
 21
63.1002
  0
LINE
  8
0
 10
2.42833
 20
63.1002
 11
2.41261
 21
63.1995
  0
LINE
  8
0
 10
2.41261
 20
63.1995
 11
2.40315
 21
63.2995
  0
LINE
  8
0
 10
2.40315
 20
63.2995
 11
2.39999
 21
63.4
  0
LINE
  8
0
 10
2.39999
 20
63.4
 11
2.40315
 21
63.5005
  0
LINE
  8
0
 10
2.40315
 20
63.5005
 11
2.41261
 21
63.6005
  0
LINE
  8
0
 10
2.41261
 20
63.6005
 11
2.42833
 21
63.6998
  0
LINE
  8
0
 10
2.42833
 20
63.6998
 11
2.45026
 21
63.7979
  0
LINE
  8
0
 10
2.45026
 20
63.7979
 11
2.4783
 21
63.8944
  0
LINE
  8
0
 10
2.4783
 20
63.8944
 11
2.51234
 21
63.989
  0
LINE
  8
0
 10
2.51234
 20
63.989
 11
2.55228
 21
64.0812
  0
LINE
  8
0
 10
2.55228
 20
64.0812
 11
2.5979
 21
64.1708
  0
LINE
  8
0
 10
2.5979
 20
64.1708
 11
2.64906
 21
64.2573
  0
LINE
  8
0
 10
2.64906
 20
64.2573
 11
2.70557
 21
64.3405
  0
LINE
  8
0
 10
2.70557
 20
64.3405
 11
2.76717
 21
64.4199
  0
LINE
  8
0
 10
2.76717
 20
64.4199
 11
2.83365
 21
64.4953
  0
LINE
  8
0
 10
2.83365
 20
64.4953
 11
2.90472
 21
64.5663
  0
LINE
  8
0
 10
2.90472
 20
64.5663
 11
2.98012
 21
64.6328
  0
LINE
  8
0
 10
2.98012
 20
64.6328
 11
3.05954
 21
64.6944
  0
LINE
  8
0
 10
3.05954
 20
64.6944
 11
3.14267
 21
64.7509
  0
LINE
  8
0
 10
3.14267
 20
64.7509
 11
3.22919
 21
64.8021
  0
LINE
  8
0
 10
3.22919
 20
64.8021
 11
3.31874
 21
64.8477
  0
LINE
  8
0
 10
3.31874
 20
64.8477
 11
3.411
 21
64.8876
  0
LINE
  8
0
 10
3.411
 20
64.8876
 11
3.50557
 21
64.9217
  0
LINE
  8
0
 10
3.50557
 20
64.9217
 11
3.60208
 21
64.9497
  0
LINE
  8
0
 10
3.60208
 20
64.9497
 11
3.70018
 21
64.9716
  0
LINE
  8
0
 10
3.70018
 20
64.9716
 11
3.79945
 21
64.9874
  0
LINE
  8
0
 10
3.79945
 20
64.9874
 11
3.89952
 21
64.9968
  0
LINE
  8
0
 10
3.89952
 20
64.9968
 11
4
 21
65
  0
LINE
  8
0
 10
4
 20
65
 11
4.10046
 21
64.9968
  0
LINE
  8
0
 10
4.10046
 20
64.9968
 11
4.20053
 21
64.9874
  0
LINE
  8
0
 10
4.20053
 20
64.9874
 11
4.2998
 21
64.9716
  0
LINE
  8
0
 10
4.2998
 20
64.9716
 11
4.3979
 21
64.9497
  0
LINE
  8
0
 10
4.3979
 20
64.9497
 11
4.49442
 21
64.9217
  0
LINE
  8
0
 10
4.49442
 20
64.9217
 11
4.58899
 21
64.8876
  0
LINE
  8
0
 10
4.58899
 20
64.8876
 11
4.68124
 21
64.8477
  0
LINE
  8
0
 10
4.68124
 20
64.8477
 11
4.7708
 21
64.8021
  0
LINE
  8
0
 10
4.7708
 20
64.8021
 11
4.85732
 21
64.7509
  0
LINE
  8
0
 10
4.85732
 20
64.7509
 11
4.94044
 21
64.6944
  0
LINE
  8
0
 10
4.94044
 20
64.6944
 11
5.01987
 21
64.6328
  0
LINE
  8
0
 10
5.01987
 20
64.6328
 11
5.09526
 21
64.5663
  0
LINE
  8
0
 10
5.09526
 20
64.5663
 11
5.16634
 21
64.4953
  0
LINE
  8
0
 10
5.16634
 20
64.4953
 11
5.23282
 21
64.4199
  0
LINE
  8
0
 10
5.23282
 20
64.4199
 11
5.29442
 21
64.3405
  0
LINE
  8
0
 10
5.29442
 20
64.3405
 11
5.35092
 21
64.2573
  0
LINE
  8
0
 10
5.35092
 20
64.2573
 11
5.40208
 21
64.1708
  0
LINE
  8
0
 10
5.40208
 20
64.1708
 11
5.44771
 21
64.0812
  0
LINE
  8
0
 10
5.44771
 20
64.0812
 11
5.48764
 21
63.989
  0
LINE
  8
0
 10
5.48764
 20
63.989
 11
5.52168
 21
63.8944
  0
LINE
  8
0
 10
5.52168
 20
63.8944
 11
5.54973
 21
63.7979
  0
LINE
  8
0
 10
5.54973
 20
63.7979
 11
5.57166
 21
63.6998
  0
LINE
  8
0
 10
5.57166
 20
63.6998
 11
5.58737
 21
63.6005
  0
LINE
  8
0
 10
5.58737
 20
63.6005
 11
5.59683
 21
63.5005
  0
LINE
  8
0
 10
5.59683
 20
63.5005
 11
5.59999
 21
63.4
  0
LINE
  8
0
 10
5.59999
 20
63.4
 11
5.59683
 21
63.2995
  0
LINE
  8
0
 10
5.59683
 20
63.2995
 11
5.58737
 21
63.1995
  0
LINE
  8
0
 10
5.58737
 20
63.1995
 11
5.57166
 21
63.1002
  0
LINE
  8
0
 10
5.57166
 20
63.1002
 11
5.54973
 21
63.0021
  0
LINE
  8
0
 10
5.54973
 20
63.0021
 11
5.52168
 21
62.9056
  0
LINE
  8
0
 10
5.52168
 20
62.9056
 11
5.48764
 21
62.811
  0
LINE
  8
0
 10
5.48764
 20
62.811
 11
5.44771
 21
62.7188
  0
LINE
  8
0
 10
5.44771
 20
62.7188
 11
5.40208
 21
62.6292
  0
LINE
  8
0
 10
5.40208
 20
62.6292
 11
5.35092
 21
62.5427
  0
LINE
  8
0
 10
5.35092
 20
62.5427
 11
5.29442
 21
62.4595
  0
LINE
  8
0
 10
5.29442
 20
62.4595
 11
5.23282
 21
62.3801
  0
LINE
  8
0
 10
5.23282
 20
62.3801
 11
5.16634
 21
62.3047
  0
LINE
  8
0
 10
5.16634
 20
62.3047
 11
5.09526
 21
62.2336
  0
LINE
  8
0
 10
5.09526
 20
62.2336
 11
5.01987
 21
62.1672
  0
LINE
  8
0
 10
5.01987
 20
62.1672
 11
4.94044
 21
62.1056
  0
LINE
  8
0
 10
4.94044
 20
62.1056
 11
4.85732
 21
62.0491
  0
LINE
  8
0
 10
4.85732
 20
62.0491
 11
4.7708
 21
61.9979
  0
LINE
  8
0
 10
4.7708
 20
61.9979
 11
4.68124
 21
61.9523
  0
LINE
  8
0
 10
4.68124
 20
61.9523
 11
4.58899
 21
61.9124
  0
LINE
  8
0
 10
4.58899
 20
61.9124
 11
4.49442
 21
61.8783
  0
LINE
  8
0
 10
4.49442
 20
61.8783
 11
4.3979
 21
61.8503
  0
LINE
  8
0
 10
4.3979
 20
61.8503
 11
4.2998
 21
61.8283
  0
LINE
  8
0
 10
4.2998
 20
61.8283
 11
4.20053
 21
61.8126
  0
LINE
  8
0
 10
4.20053
 20
61.8126
 11
4.10046
 21
61.8031
  0
LINE
  8
0
 10
4.10046
 20
61.8031
 11
4
 21
61.8
  0
LINE
  8
0
 10
4
 20
61.8
 11
3.89952
 21
61.8031
  0
LINE
  8
0
 10
82.0995
 20
32.1031
 11
81.9995
 21
32.1126
  0
LINE
  8
0
 10
81.9995
 20
32.1126
 11
81.9002
 21
32.1283
  0
LINE
  8
0
 10
81.9002
 20
32.1283
 11
81.8021
 21
32.1503
  0
LINE
  8
0
 10
81.8021
 20
32.1503
 11
81.7056
 21
32.1783
  0
LINE
  8
0
 10
81.7056
 20
32.1783
 11
81.611
 21
32.2124
  0
LINE
  8
0
 10
81.611
 20
32.2124
 11
81.5188
 21
32.2523
  0
LINE
  8
0
 10
81.5188
 20
32.2523
 11
81.4292
 21
32.2979
  0
LINE
  8
0
 10
81.4292
 20
32.2979
 11
81.3427
 21
32.3491
  0
LINE
  8
0
 10
81.3427
 20
32.3491
 11
81.2595
 21
32.4056
  0
LINE
  8
0
 10
81.2595
 20
32.4056
 11
81.1801
 21
32.4672
  0
LINE
  8
0
 10
81.1801
 20
32.4672
 11
81.1047
 21
32.5336
  0
LINE
  8
0
 10
81.1047
 20
32.5336
 11
81.0336
 21
32.6047
  0
LINE
  8
0
 10
81.0336
 20
32.6047
 11
80.9672
 21
32.6801
  0
LINE
  8
0
 10
80.9672
 20
32.6801
 11
80.9056
 21
32.7595
  0
LINE
  8
0
 10
80.9056
 20
32.7595
 11
80.8491
 21
32.8427
  0
LINE
  8
0
 10
80.8491
 20
32.8427
 11
80.7979
 21
32.9292
  0
LINE
  8
0
 10
80.7979
 20
32.9292
 11
80.7523
 21
33.0188
  0
LINE
  8
0
 10
80.7523
 20
33.0188
 11
80.7124
 21
33.111
  0
LINE
  8
0
 10
80.7124
 20
33.111
 11
80.6783
 21
33.2056
  0
LINE
  8
0
 10
80.6783
 20
33.2056
 11
80.6503
 21
33.3021
  0
LINE
  8
0
 10
80.6503
 20
33.3021
 11
80.6283
 21
33.4002
  0
LINE
  8
0
 10
80.6283
 20
33.4002
 11
80.6126
 21
33.4995
  0
LINE
  8
0
 10
80.6126
 20
33.4995
 11
80.6031
 21
33.5995
  0
LINE
  8
0
 10
80.6031
 20
33.5995
 11
80.6
 21
33.7
  0
LINE
  8
0
 10
80.6
 20
33.7
 11
80.6031
 21
33.8005
  0
LINE
  8
0
 10
80.6031
 20
33.8005
 11
80.6126
 21
33.9005
  0
LINE
  8
0
 10
80.6126
 20
33.9005
 11
80.6283
 21
33.9998
  0
LINE
  8
0
 10
80.6283
 20
33.9998
 11
80.6503
 21
34.0979
  0
LINE
  8
0
 10
80.6503
 20
34.0979
 11
80.6783
 21
34.1944
  0
LINE
  8
0
 10
80.6783
 20
34.1944
 11
80.7124
 21
34.289
  0
LINE
  8
0
 10
80.7124
 20
34.289
 11
80.7523
 21
34.3812
  0
LINE
  8
0
 10
80.7523
 20
34.3812
 11
80.7979
 21
34.4708
  0
LINE
  8
0
 10
80.7979
 20
34.4708
 11
80.8491
 21
34.5573
  0
LINE
  8
0
 10
80.8491
 20
34.5573
 11
80.9056
 21
34.6405
  0
LINE
  8
0
 10
80.9056
 20
34.6405
 11
80.9672
 21
34.7199
  0
LINE
  8
0
 10
80.9672
 20
34.7199
 11
81.0336
 21
34.7953
  0
LINE
  8
0
 10
81.0336
 20
34.7953
 11
81.1047
 21
34.8663
  0
LINE
  8
0
 10
81.1047
 20
34.8663
 11
81.1801
 21
34.9328
  0
LINE
  8
0
 10
81.1801
 20
34.9328
 11
81.2595
 21
34.9944
  0
LINE
  8
0
 10
81.2595
 20
34.9944
 11
81.3427
 21
35.0509
  0
LINE
  8
0
 10
81.3427
 20
35.0509
 11
81.4292
 21
35.1021
  0
LINE
  8
0
 10
81.4292
 20
35.1021
 11
81.5188
 21
35.1477
  0
LINE
  8
0
 10
81.5188
 20
35.1477
 11
81.611
 21
35.1876
  0
LINE
  8
0
 10
81.611
 20
35.1876
 11
81.7056
 21
35.2217
  0
LINE
  8
0
 10
81.7056
 20
35.2217
 11
81.8021
 21
35.2497
  0
LINE
  8
0
 10
81.8021
 20
35.2497
 11
81.9002
 21
35.2717
  0
LINE
  8
0
 10
81.9002
 20
35.2717
 11
81.9995
 21
35.2874
  0
LINE
  8
0
 10
81.9995
 20
35.2874
 11
82.0995
 21
35.2968
  0
LINE
  8
0
 10
82.0995
 20
35.2968
 11
82.2
 21
35.3
  0
LINE
  8
0
 10
82.2
 20
35.3
 11
82.3005
 21
35.2968
  0
LINE
  8
0
 10
82.3005
 20
35.2968
 11
82.4005
 21
35.2874
  0
LINE
  8
0
 10
82.4005
 20
35.2874
 11
82.4998
 21
35.2717
  0
LINE
  8
0
 10
82.4998
 20
35.2717
 11
82.5979
 21
35.2497
  0
LINE
  8
0
 10
82.5979
 20
35.2497
 11
82.6944
 21
35.2217
  0
LINE
  8
0
 10
82.6944
 20
35.2217
 11
82.789
 21
35.1876
  0
LINE
  8
0
 10
82.789
 20
35.1876
 11
82.8812
 21
35.1477
  0
LINE
  8
0
 10
82.8812
 20
35.1477
 11
82.9708
 21
35.1021
  0
LINE
  8
0
 10
82.9708
 20
35.1021
 11
83.0573
 21
35.0509
  0
LINE
  8
0
 10
83.0573
 20
35.0509
 11
83.1405
 21
34.9944
  0
LINE
  8
0
 10
83.1405
 20
34.9944
 11
83.2199
 21
34.9328
  0
LINE
  8
0
 10
83.2199
 20
34.9328
 11
83.2953
 21
34.8663
  0
LINE
  8
0
 10
83.2953
 20
34.8663
 11
83.3663
 21
34.7953
  0
LINE
  8
0
 10
83.3663
 20
34.7953
 11
83.4328
 21
34.7199
  0
LINE
  8
0
 10
83.4328
 20
34.7199
 11
83.4944
 21
34.6405
  0
LINE
  8
0
 10
83.4944
 20
34.6405
 11
83.5509
 21
34.5573
  0
LINE
  8
0
 10
83.5509
 20
34.5573
 11
83.6021
 21
34.4708
  0
LINE
  8
0
 10
83.6021
 20
34.4708
 11
83.6477
 21
34.3812
  0
LINE
  8
0
 10
83.6477
 20
34.3812
 11
83.6876
 21
34.289
  0
LINE
  8
0
 10
83.6876
 20
34.289
 11
83.7217
 21
34.1944
  0
LINE
  8
0
 10
83.7217
 20
34.1944
 11
83.7497
 21
34.0979
  0
LINE
  8
0
 10
83.7497
 20
34.0979
 11
83.7717
 21
33.9998
  0
LINE
  8
0
 10
83.7717
 20
33.9998
 11
83.7874
 21
33.9005
  0
LINE
  8
0
 10
83.7874
 20
33.9005
 11
83.7968
 21
33.8005
  0
LINE
  8
0
 10
83.7968
 20
33.8005
 11
83.8
 21
33.7
  0
LINE
  8
0
 10
83.8
 20
33.7
 11
83.7968
 21
33.5995
  0
LINE
  8
0
 10
83.7968
 20
33.5995
 11
83.7874
 21
33.4995
  0
LINE
  8
0
 10
83.7874
 20
33.4995
 11
83.7717
 21
33.4002
  0
LINE
  8
0
 10
83.7717
 20
33.4002
 11
83.7497
 21
33.3021
  0
LINE
  8
0
 10
83.7497
 20
33.3021
 11
83.7217
 21
33.2056
  0
LINE
  8
0
 10
83.7217
 20
33.2056
 11
83.6876
 21
33.111
  0
LINE
  8
0
 10
83.6876
 20
33.111
 11
83.6477
 21
33.0188
  0
LINE
  8
0
 10
83.6477
 20
33.0188
 11
83.6021
 21
32.9292
  0
LINE
  8
0
 10
83.6021
 20
32.9292
 11
83.5509
 21
32.8427
  0
LINE
  8
0
 10
83.5509
 20
32.8427
 11
83.4944
 21
32.7595
  0
LINE
  8
0
 10
83.4944
 20
32.7595
 11
83.4328
 21
32.6801
  0
LINE
  8
0
 10
83.4328
 20
32.6801
 11
83.3663
 21
32.6047
  0
LINE
  8
0
 10
83.3663
 20
32.6047
 11
83.2953
 21
32.5336
  0
LINE
  8
0
 10
83.2953
 20
32.5336
 11
83.2199
 21
32.4672
  0
LINE
  8
0
 10
83.2199
 20
32.4672
 11
83.1405
 21
32.4056
  0
LINE
  8
0
 10
83.1405
 20
32.4056
 11
83.0573
 21
32.3491
  0
LINE
  8
0
 10
83.0573
 20
32.3491
 11
82.9708
 21
32.2979
  0
LINE
  8
0
 10
82.9708
 20
32.2979
 11
82.8812
 21
32.2523
  0
LINE
  8
0
 10
82.8812
 20
32.2523
 11
82.789
 21
32.2124
  0
LINE
  8
0
 10
82.789
 20
32.2124
 11
82.6944
 21
32.1783
  0
LINE
  8
0
 10
82.6944
 20
32.1783
 11
82.5979
 21
32.1503
  0
LINE
  8
0
 10
82.5979
 20
32.1503
 11
82.4998
 21
32.1283
  0
LINE
  8
0
 10
82.4998
 20
32.1283
 11
82.4005
 21
32.1126
  0
LINE
  8
0
 10
82.4005
 20
32.1126
 11
82.3005
 21
32.1031
  0
LINE
  8
0
 10
82.3005
 20
32.1031
 11
82.2
 21
32.1
  0
LINE
  8
0
 10
82.2
 20
32.1
 11
82.0995
 21
32.1031
  0
LINE
  8
0
 10
3.89952
 20
32.1031
 11
3.79945
 21
32.1126
  0
LINE
  8
0
 10
3.79945
 20
32.1126
 11
3.70018
 21
32.1283
  0
LINE
  8
0
 10
3.70018
 20
32.1283
 11
3.60208
 21
32.1503
  0
LINE
  8
0
 10
3.60208
 20
32.1503
 11
3.50557
 21
32.1783
  0
LINE
  8
0
 10
3.50557
 20
32.1783
 11
3.411
 21
32.2124
  0
LINE
  8
0
 10
3.411
 20
32.2124
 11
3.31874
 21
32.2523
  0
LINE
  8
0
 10
3.31874
 20
32.2523
 11
3.22919
 21
32.2979
  0
LINE
  8
0
 10
3.22919
 20
32.2979
 11
3.14267
 21
32.3491
  0
LINE
  8
0
 10
3.14267
 20
32.3491
 11
3.05954
 21
32.4056
  0
LINE
  8
0
 10
3.05954
 20
32.4056
 11
2.98012
 21
32.4672
  0
LINE
  8
0
 10
2.98012
 20
32.4672
 11
2.90472
 21
32.5336
  0
LINE
  8
0
 10
2.90472
 20
32.5336
 11
2.83365
 21
32.6047
  0
LINE
  8
0
 10
2.83365
 20
32.6047
 11
2.76717
 21
32.6801
  0
LINE
  8
0
 10
2.76717
 20
32.6801
 11
2.70557
 21
32.7595
  0
LINE
  8
0
 10
2.70557
 20
32.7595
 11
2.64906
 21
32.8427
  0
LINE
  8
0
 10
2.64906
 20
32.8427
 11
2.5979
 21
32.9292
  0
LINE
  8
0
 10
2.5979
 20
32.9292
 11
2.55228
 21
33.0188
  0
LINE
  8
0
 10
2.55228
 20
33.0188
 11
2.51234
 21
33.111
  0
LINE
  8
0
 10
2.51234
 20
33.111
 11
2.4783
 21
33.2056
  0
LINE
  8
0
 10
2.4783
 20
33.2056
 11
2.45026
 21
33.3021
  0
LINE
  8
0
 10
2.45026
 20
33.3021
 11
2.42833
 21
33.4002
  0
LINE
  8
0
 10
2.42833
 20
33.4002
 11
2.41261
 21
33.4995
  0
LINE
  8
0
 10
2.41261
 20
33.4995
 11
2.40315
 21
33.5995
  0
LINE
  8
0
 10
2.40315
 20
33.5995
 11
2.39999
 21
33.7
  0
LINE
  8
0
 10
2.39999
 20
33.7
 11
2.40315
 21
33.8005
  0
LINE
  8
0
 10
2.40315
 20
33.8005
 11
2.41261
 21
33.9005
  0
LINE
  8
0
 10
2.41261
 20
33.9005
 11
2.42833
 21
33.9998
  0
LINE
  8
0
 10
2.42833
 20
33.9998
 11
2.45026
 21
34.0979
  0
LINE
  8
0
 10
2.45026
 20
34.0979
 11
2.4783
 21
34.1944
  0
LINE
  8
0
 10
2.4783
 20
34.1944
 11
2.51234
 21
34.289
  0
LINE
  8
0
 10
2.51234
 20
34.289
 11
2.55228
 21
34.3812
  0
LINE
  8
0
 10
2.55228
 20
34.3812
 11
2.5979
 21
34.4708
  0
LINE
  8
0
 10
2.5979
 20
34.4708
 11
2.64906
 21
34.5573
  0
LINE
  8
0
 10
2.64906
 20
34.5573
 11
2.70557
 21
34.6405
  0
LINE
  8
0
 10
2.70557
 20
34.6405
 11
2.76717
 21
34.7199
  0
LINE
  8
0
 10
2.76717
 20
34.7199
 11
2.83365
 21
34.7953
  0
LINE
  8
0
 10
2.83365
 20
34.7953
 11
2.90472
 21
34.8663
  0
LINE
  8
0
 10
2.90472
 20
34.8663
 11
2.98012
 21
34.9328
  0
LINE
  8
0
 10
2.98012
 20
34.9328
 11
3.05954
 21
34.9944
  0
LINE
  8
0
 10
3.05954
 20
34.9944
 11
3.14267
 21
35.0509
  0
LINE
  8
0
 10
3.14267
 20
35.0509
 11
3.22919
 21
35.1021
  0
LINE
  8
0
 10
3.22919
 20
35.1021
 11
3.31874
 21
35.1477
  0
LINE
  8
0
 10
3.31874
 20
35.1477
 11
3.411
 21
35.1876
  0
LINE
  8
0
 10
3.411
 20
35.1876
 11
3.50557
 21
35.2217
  0
LINE
  8
0
 10
3.50557
 20
35.2217
 11
3.60208
 21
35.2497
  0
LINE
  8
0
 10
3.60208
 20
35.2497
 11
3.70018
 21
35.2717
  0
LINE
  8
0
 10
3.70018
 20
35.2717
 11
3.79945
 21
35.2874
  0
LINE
  8
0
 10
3.79945
 20
35.2874
 11
3.89952
 21
35.2968
  0
LINE
  8
0
 10
3.89952
 20
35.2968
 11
4
 21
35.3
  0
LINE
  8
0
 10
4
 20
35.3
 11
4.10046
 21
35.2968
  0
LINE
  8
0
 10
4.10046
 20
35.2968
 11
4.20053
 21
35.2874
  0
LINE
  8
0
 10
4.20053
 20
35.2874
 11
4.2998
 21
35.2717
  0
LINE
  8
0
 10
4.2998
 20
35.2717
 11
4.3979
 21
35.2497
  0
LINE
  8
0
 10
4.3979
 20
35.2497
 11
4.49442
 21
35.2217
  0
LINE
  8
0
 10
4.49442
 20
35.2217
 11
4.58899
 21
35.1876
  0
LINE
  8
0
 10
4.58899
 20
35.1876
 11
4.68124
 21
35.1477
  0
LINE
  8
0
 10
4.68124
 20
35.1477
 11
4.7708
 21
35.1021
  0
LINE
  8
0
 10
4.7708
 20
35.1021
 11
4.85732
 21
35.0509
  0
LINE
  8
0
 10
4.85732
 20
35.0509
 11
4.94044
 21
34.9944
  0
LINE
  8
0
 10
4.94044
 20
34.9944
 11
5.01987
 21
34.9328
  0
LINE
  8
0
 10
5.01987
 20
34.9328
 11
5.09526
 21
34.8663
  0
LINE
  8
0
 10
5.09526
 20
34.8663
 11
5.16634
 21
34.7953
  0
LINE
  8
0
 10
5.16634
 20
34.7953
 11
5.23282
 21
34.7199
  0
LINE
  8
0
 10
5.23282
 20
34.7199
 11
5.29442
 21
34.6405
  0
LINE
  8
0
 10
5.29442
 20
34.6405
 11
5.35092
 21
34.5573
  0
LINE
  8
0
 10
5.35092
 20
34.5573
 11
5.40208
 21
34.4708
  0
LINE
  8
0
 10
5.40208
 20
34.4708
 11
5.44771
 21
34.3812
  0
LINE
  8
0
 10
5.44771
 20
34.3812
 11
5.48764
 21
34.289
  0
LINE
  8
0
 10
5.48764
 20
34.289
 11
5.52168
 21
34.1944
  0
LINE
  8
0
 10
5.52168
 20
34.1944
 11
5.54973
 21
34.0979
  0
LINE
  8
0
 10
5.54973
 20
34.0979
 11
5.57166
 21
33.9998
  0
LINE
  8
0
 10
5.57166
 20
33.9998
 11
5.58737
 21
33.9005
  0
LINE
  8
0
 10
5.58737
 20
33.9005
 11
5.59683
 21
33.8005
  0
LINE
  8
0
 10
5.59683
 20
33.8005
 11
5.59999
 21
33.7
  0
LINE
  8
0
 10
5.59999
 20
33.7
 11
5.59683
 21
33.5995
  0
LINE
  8
0
 10
5.59683
 20
33.5995
 11
5.58737
 21
33.4995
  0
LINE
  8
0
 10
5.58737
 20
33.4995
 11
5.57166
 21
33.4002
  0
LINE
  8
0
 10
5.57166
 20
33.4002
 11
5.54973
 21
33.3021
  0
LINE
  8
0
 10
5.54973
 20
33.3021
 11
5.52168
 21
33.2056
  0
LINE
  8
0
 10
5.52168
 20
33.2056
 11
5.48764
 21
33.111
  0
LINE
  8
0
 10
5.48764
 20
33.111
 11
5.44771
 21
33.0188
  0
LINE
  8
0
 10
5.44771
 20
33.0188
 11
5.40208
 21
32.9292
  0
LINE
  8
0
 10
5.40208
 20
32.9292
 11
5.35092
 21
32.8427
  0
LINE
  8
0
 10
5.35092
 20
32.8427
 11
5.29442
 21
32.7595
  0
LINE
  8
0
 10
5.29442
 20
32.7595
 11
5.23282
 21
32.6801
  0
LINE
  8
0
 10
5.23282
 20
32.6801
 11
5.16634
 21
32.6047
  0
LINE
  8
0
 10
5.16634
 20
32.6047
 11
5.09526
 21
32.5336
  0
LINE
  8
0
 10
5.09526
 20
32.5336
 11
5.01987
 21
32.4672
  0
LINE
  8
0
 10
5.01987
 20
32.4672
 11
4.94044
 21
32.4056
  0
LINE
  8
0
 10
4.94044
 20
32.4056
 11
4.85732
 21
32.3491
  0
LINE
  8
0
 10
4.85732
 20
32.3491
 11
4.7708
 21
32.2979
  0
LINE
  8
0
 10
4.7708
 20
32.2979
 11
4.68124
 21
32.2523
  0
LINE
  8
0
 10
4.68124
 20
32.2523
 11
4.58899
 21
32.2124
  0
LINE
  8
0
 10
4.58899
 20
32.2124
 11
4.49442
 21
32.1783
  0
LINE
  8
0
 10
4.49442
 20
32.1783
 11
4.3979
 21
32.1503
  0
LINE
  8
0
 10
4.3979
 20
32.1503
 11
4.2998
 21
32.1283
  0
LINE
  8
0
 10
4.2998
 20
32.1283
 11
4.20053
 21
32.1126
  0
LINE
  8
0
 10
4.20053
 20
32.1126
 11
4.10046
 21
32.1031
  0
LINE
  8
0
 10
4.10046
 20
32.1031
 11
4
 21
32.1
  0
LINE
  8
0
 10
4
 20
32.1
 11
3.89952
 21
32.1031
  0
LINE
  8
0
 10
-18.3005
 20
17.7132
 11
-18.4005
 21
17.7226
  0
LINE
  8
0
 10
-18.4005
 20
17.7226
 11
-18.4998
 21
17.7383
  0
LINE
  8
0
 10
-18.4998
 20
17.7383
 11
-18.5979
 21
17.7603
  0
LINE
  8
0
 10
-18.5979
 20
17.7603
 11
-18.6944
 21
17.7883
  0
LINE
  8
0
 10
-18.6944
 20
17.7883
 11
-18.789
 21
17.8224
  0
LINE
  8
0
 10
-18.789
 20
17.8224
 11
-18.8812
 21
17.8623
  0
LINE
  8
0
 10
-18.8812
 20
17.8623
 11
-18.9708
 21
17.9079
  0
LINE
  8
0
 10
-18.9708
 20
17.9079
 11
-19.0573
 21
17.9591
  0
LINE
  8
0
 10
-19.0573
 20
17.9591
 11
-19.1405
 21
18.0156
  0
LINE
  8
0
 10
-19.1405
 20
18.0156
 11
-19.2199
 21
18.0772
  0
LINE
  8
0
 10
-19.2199
 20
18.0772
 11
-19.2953
 21
18.1436
  0
LINE
  8
0
 10
-19.2953
 20
18.1436
 11
-19.3663
 21
18.2147
  0
LINE
  8
0
 10
-19.3663
 20
18.2147
 11
-19.4328
 21
18.2901
  0
LINE
  8
0
 10
-19.4328
 20
18.2901
 11
-19.4944
 21
18.3695
  0
LINE
  8
0
 10
-19.4944
 20
18.3695
 11
-19.5509
 21
18.4527
  0
LINE
  8
0
 10
-19.5509
 20
18.4527
 11
-19.6021
 21
18.5392
  0
LINE
  8
0
 10
-19.6021
 20
18.5392
 11
-19.6477
 21
18.6288
  0
LINE
  8
0
 10
-19.6477
 20
18.6288
 11
-19.6876
 21
18.721
  0
LINE
  8
0
 10
-19.6876
 20
18.721
 11
-19.7217
 21
18.8156
  0
LINE
  8
0
 10
-19.7217
 20
18.8156
 11
-19.7497
 21
18.9121
  0
LINE
  8
0
 10
-19.7497
 20
18.9121
 11
-19.7717
 21
19.0102
  0
LINE
  8
0
 10
-19.7717
 20
19.0102
 11
-19.7874
 21
19.1095
  0
LINE
  8
0
 10
-19.7874
 20
19.1095
 11
-19.7968
 21
19.2095
  0
LINE
  8
0
 10
-19.7968
 20
19.2095
 11
-19.8
 21
19.31
  0
LINE
  8
0
 10
-19.8
 20
19.31
 11
-19.7968
 21
19.4105
  0
LINE
  8
0
 10
-19.7968
 20
19.4105
 11
-19.7874
 21
19.5105
  0
LINE
  8
0
 10
-19.7874
 20
19.5105
 11
-19.7717
 21
19.6098
  0
LINE
  8
0
 10
-19.7717
 20
19.6098
 11
-19.7497
 21
19.7079
  0
LINE
  8
0
 10
-19.7497
 20
19.7079
 11
-19.7217
 21
19.8044
  0
LINE
  8
0
 10
-19.7217
 20
19.8044
 11
-19.6876
 21
19.899
  0
LINE
  8
0
 10
-19.6876
 20
19.899
 11
-19.6477
 21
19.9912
  0
LINE
  8
0
 10
-19.6477
 20
19.9912
 11
-19.6021
 21
20.0808
  0
LINE
  8
0
 10
-19.6021
 20
20.0808
 11
-19.5509
 21
20.1673
  0
LINE
  8
0
 10
-19.5509
 20
20.1673
 11
-19.4944
 21
20.2504
  0
LINE
  8
0
 10
-19.4944
 20
20.2504
 11
-19.4328
 21
20.3299
  0
LINE
  8
0
 10
-19.4328
 20
20.3299
 11
-19.3663
 21
20.4053
  0
LINE
  8
0
 10
-19.3663
 20
20.4053
 11
-19.2953
 21
20.4763
  0
LINE
  8
0
 10
-19.2953
 20
20.4763
 11
-19.2199
 21
20.5428
  0
LINE
  8
0
 10
-19.2199
 20
20.5428
 11
-19.1405
 21
20.6044
  0
LINE
  8
0
 10
-19.1405
 20
20.6044
 11
-19.0573
 21
20.6609
  0
LINE
  8
0
 10
-19.0573
 20
20.6609
 11
-18.9708
 21
20.7121
  0
LINE
  8
0
 10
-18.9708
 20
20.7121
 11
-18.8812
 21
20.7577
  0
LINE
  8
0
 10
-18.8812
 20
20.7577
 11
-18.789
 21
20.7976
  0
LINE
  8
0
 10
-18.789
 20
20.7976
 11
-18.6944
 21
20.8317
  0
LINE
  8
0
 10
-18.6944
 20
20.8317
 11
-18.5979
 21
20.8597
  0
LINE
  8
0
 10
-18.5979
 20
20.8597
 11
-18.4998
 21
20.8817
  0
LINE
  8
0
 10
-18.4998
 20
20.8817
 11
-18.4005
 21
20.8974
  0
LINE
  8
0
 10
-18.4005
 20
20.8974
 11
-18.3005
 21
20.9068
  0
LINE
  8
0
 10
-18.3005
 20
20.9068
 11
-18.2
 21
20.91
  0
LINE
  8
0
 10
-18.2
 20
20.91
 11
-18.0995
 21
20.9068
  0
LINE
  8
0
 10
-18.0995
 20
20.9068
 11
-17.9995
 21
20.8974
  0
LINE
  8
0
 10
-17.9995
 20
20.8974
 11
-17.9002
 21
20.8817
  0
LINE
  8
0
 10
-17.9002
 20
20.8817
 11
-17.8021
 21
20.8597
  0
LINE
  8
0
 10
-17.8021
 20
20.8597
 11
-17.7056
 21
20.8317
  0
LINE
  8
0
 10
-17.7056
 20
20.8317
 11
-17.611
 21
20.7976
  0
LINE
  8
0
 10
-17.611
 20
20.7976
 11
-17.5188
 21
20.7577
  0
LINE
  8
0
 10
-17.5188
 20
20.7577
 11
-17.4292
 21
20.7121
  0
LINE
  8
0
 10
-17.4292
 20
20.7121
 11
-17.3427
 21
20.6609
  0
LINE
  8
0
 10
-17.3427
 20
20.6609
 11
-17.2595
 21
20.6044
  0
LINE
  8
0
 10
-17.2595
 20
20.6044
 11
-17.1801
 21
20.5428
  0
LINE
  8
0
 10
-17.1801
 20
20.5428
 11
-17.1047
 21
20.4763
  0
LINE
  8
0
 10
-17.1047
 20
20.4763
 11
-17.0336
 21
20.4053
  0
LINE
  8
0
 10
-17.0336
 20
20.4053
 11
-16.9672
 21
20.3299
  0
LINE
  8
0
 10
-16.9672
 20
20.3299
 11
-16.9056
 21
20.2504
  0
LINE
  8
0
 10
-16.9056
 20
20.2504
 11
-16.8491
 21
20.1673
  0
LINE
  8
0
 10
-16.8491
 20
20.1673
 11
-16.7979
 21
20.0808
  0
LINE
  8
0
 10
-16.7979
 20
20.0808
 11
-16.7523
 21
19.9912
  0
LINE
  8
0
 10
-16.7523
 20
19.9912
 11
-16.7124
 21
19.899
  0
LINE
  8
0
 10
-16.7124
 20
19.899
 11
-16.6783
 21
19.8044
  0
LINE
  8
0
 10
-16.6783
 20
19.8044
 11
-16.6503
 21
19.7079
  0
LINE
  8
0
 10
-16.6503
 20
19.7079
 11
-16.6283
 21
19.6098
  0
LINE
  8
0
 10
-16.6283
 20
19.6098
 11
-16.6126
 21
19.5105
  0
LINE
  8
0
 10
-16.6126
 20
19.5105
 11
-16.6031
 21
19.4105
  0
LINE
  8
0
 10
-16.6031
 20
19.4105
 11
-16.6
 21
19.31
  0
LINE
  8
0
 10
-16.6
 20
19.31
 11
-16.6031
 21
19.2095
  0
LINE
  8
0
 10
-16.6031
 20
19.2095
 11
-16.6126
 21
19.1095
  0
LINE
  8
0
 10
-16.6126
 20
19.1095
 11
-16.6283
 21
19.0102
  0
LINE
  8
0
 10
-16.6283
 20
19.0102
 11
-16.6503
 21
18.9121
  0
LINE
  8
0
 10
-16.6503
 20
18.9121
 11
-16.6783
 21
18.8156
  0
LINE
  8
0
 10
-16.6783
 20
18.8156
 11
-16.7124
 21
18.721
  0
LINE
  8
0
 10
-16.7124
 20
18.721
 11
-16.7523
 21
18.6288
  0
LINE
  8
0
 10
-16.7523
 20
18.6288
 11
-16.7979
 21
18.5392
  0
LINE
  8
0
 10
-16.7979
 20
18.5392
 11
-16.8491
 21
18.4527
  0
LINE
  8
0
 10
-16.8491
 20
18.4527
 11
-16.9056
 21
18.3695
  0
LINE
  8
0
 10
-16.9056
 20
18.3695
 11
-16.9672
 21
18.2901
  0
LINE
  8
0
 10
-16.9672
 20
18.2901
 11
-17.0336
 21
18.2147
  0
LINE
  8
0
 10
-17.0336
 20
18.2147
 11
-17.1047
 21
18.1436
  0
LINE
  8
0
 10
-17.1047
 20
18.1436
 11
-17.1801
 21
18.0772
  0
LINE
  8
0
 10
-17.1801
 20
18.0772
 11
-17.2595
 21
18.0156
  0
LINE
  8
0
 10
-17.2595
 20
18.0156
 11
-17.3427
 21
17.9591
  0
LINE
  8
0
 10
-17.3427
 20
17.9591
 11
-17.4292
 21
17.9079
  0
LINE
  8
0
 10
-17.4292
 20
17.9079
 11
-17.5188
 21
17.8623
  0
LINE
  8
0
 10
-17.5188
 20
17.8623
 11
-17.611
 21
17.8224
  0
LINE
  8
0
 10
-17.611
 20
17.8224
 11
-17.7056
 21
17.7883
  0
LINE
  8
0
 10
-17.7056
 20
17.7883
 11
-17.8021
 21
17.7603
  0
LINE
  8
0
 10
-17.8021
 20
17.7603
 11
-17.9002
 21
17.7383
  0
LINE
  8
0
 10
-17.9002
 20
17.7383
 11
-17.9995
 21
17.7226
  0
LINE
  8
0
 10
-17.9995
 20
17.7226
 11
-18.0995
 21
17.7132
  0
LINE
  8
0
 10
-18.0995
 20
17.7132
 11
-18.2
 21
17.71
  0
LINE
  8
0
 10
-18.2
 20
17.71
 11
-18.3005
 21
17.7132
  0
LINE
  8
0
 10
-38.9005
 20
17.7132
 11
-39.0005
 21
17.7226
  0
LINE
  8
0
 10
-39.0005
 20
17.7226
 11
-39.0998
 21
17.7383
  0
LINE
  8
0
 10
-39.0998
 20
17.7383
 11
-39.1979
 21
17.7603
  0
LINE
  8
0
 10
-39.1979
 20
17.7603
 11
-39.2944
 21
17.7883
  0
LINE
  8
0
 10
-39.2944
 20
17.7883
 11
-39.389
 21
17.8224
  0
LINE
  8
0
 10
-39.389
 20
17.8224
 11
-39.4812
 21
17.8623
  0
LINE
  8
0
 10
-39.4812
 20
17.8623
 11
-39.5708
 21
17.9079
  0
LINE
  8
0
 10
-39.5708
 20
17.9079
 11
-39.6573
 21
17.9591
  0
LINE
  8
0
 10
-39.6573
 20
17.9591
 11
-39.7404
 21
18.0156
  0
LINE
  8
0
 10
-39.7404
 20
18.0156
 11
-39.8199
 21
18.0772
  0
LINE
  8
0
 10
-39.8199
 20
18.0772
 11
-39.8953
 21
18.1436
  0
LINE
  8
0
 10
-39.8953
 20
18.1436
 11
-39.9663
 21
18.2147
  0
LINE
  8
0
 10
-39.9663
 20
18.2147
 11
-40.0328
 21
18.2901
  0
LINE
  8
0
 10
-40.0328
 20
18.2901
 11
-40.0944
 21
18.3695
  0
LINE
  8
0
 10
-40.0944
 20
18.3695
 11
-40.1509
 21
18.4527
  0
LINE
  8
0
 10
-40.1509
 20
18.4527
 11
-40.2021
 21
18.5392
  0
LINE
  8
0
 10
-40.2021
 20
18.5392
 11
-40.2477
 21
18.6288
  0
LINE
  8
0
 10
-40.2477
 20
18.6288
 11
-40.2876
 21
18.721
  0
LINE
  8
0
 10
-40.2876
 20
18.721
 11
-40.3217
 21
18.8156
  0
LINE
  8
0
 10
-40.3217
 20
18.8156
 11
-40.3497
 21
18.9121
  0
LINE
  8
0
 10
-40.3497
 20
18.9121
 11
-40.3717
 21
19.0102
  0
LINE
  8
0
 10
-40.3717
 20
19.0102
 11
-40.3874
 21
19.1095
  0
LINE
  8
0
 10
-40.3874
 20
19.1095
 11
-40.3968
 21
19.2095
  0
LINE
  8
0
 10
-40.3968
 20
19.2095
 11
-40.4
 21
19.31
  0
LINE
  8
0
 10
-40.4
 20
19.31
 11
-40.3968
 21
19.4105
  0
LINE
  8
0
 10
-40.3968
 20
19.4105
 11
-40.3874
 21
19.5105
  0
LINE
  8
0
 10
-40.3874
 20
19.5105
 11
-40.3717
 21
19.6098
  0
LINE
  8
0
 10
-40.3717
 20
19.6098
 11
-40.3497
 21
19.7079
  0
LINE
  8
0
 10
-40.3497
 20
19.7079
 11
-40.3217
 21
19.8044
  0
LINE
  8
0
 10
-40.3217
 20
19.8044
 11
-40.2876
 21
19.899
  0
LINE
  8
0
 10
-40.2876
 20
19.899
 11
-40.2477
 21
19.9912
  0
LINE
  8
0
 10
-40.2477
 20
19.9912
 11
-40.2021
 21
20.0808
  0
LINE
  8
0
 10
-40.2021
 20
20.0808
 11
-40.1509
 21
20.1673
  0
LINE
  8
0
 10
-40.1509
 20
20.1673
 11
-40.0944
 21
20.2504
  0
LINE
  8
0
 10
-40.0944
 20
20.2504
 11
-40.0328
 21
20.3299
  0
LINE
  8
0
 10
-40.0328
 20
20.3299
 11
-39.9663
 21
20.4053
  0
LINE
  8
0
 10
-39.9663
 20
20.4053
 11
-39.8953
 21
20.4763
  0
LINE
  8
0
 10
-39.8953
 20
20.4763
 11
-39.8199
 21
20.5428
  0
LINE
  8
0
 10
-39.8199
 20
20.5428
 11
-39.7404
 21
20.6044
  0
LINE
  8
0
 10
-39.7404
 20
20.6044
 11
-39.6573
 21
20.6609
  0
LINE
  8
0
 10
-39.6573
 20
20.6609
 11
-39.5708
 21
20.7121
  0
LINE
  8
0
 10
-39.5708
 20
20.7121
 11
-39.4812
 21
20.7577
  0
LINE
  8
0
 10
-39.4812
 20
20.7577
 11
-39.389
 21
20.7976
  0
LINE
  8
0
 10
-39.389
 20
20.7976
 11
-39.2944
 21
20.8317
  0
LINE
  8
0
 10
-39.2944
 20
20.8317
 11
-39.1979
 21
20.8597
  0
LINE
  8
0
 10
-39.1979
 20
20.8597
 11
-39.0998
 21
20.8817
  0
LINE
  8
0
 10
-39.0998
 20
20.8817
 11
-39.0005
 21
20.8974
  0
LINE
  8
0
 10
-39.0005
 20
20.8974
 11
-38.9005
 21
20.9068
  0
LINE
  8
0
 10
-38.9005
 20
20.9068
 11
-38.8
 21
20.91
  0
LINE
  8
0
 10
-38.8
 20
20.91
 11
-38.6995
 21
20.9068
  0
LINE
  8
0
 10
-38.6995
 20
20.9068
 11
-38.5995
 21
20.8974
  0
LINE
  8
0
 10
-38.5995
 20
20.8974
 11
-38.5002
 21
20.8817
  0
LINE
  8
0
 10
-38.5002
 20
20.8817
 11
-38.4021
 21
20.8597
  0
LINE
  8
0
 10
-38.4021
 20
20.8597
 11
-38.3056
 21
20.8317
  0
LINE
  8
0
 10
-38.3056
 20
20.8317
 11
-38.211
 21
20.7976
  0
LINE
  8
0
 10
-38.211
 20
20.7976
 11
-38.1187
 21
20.7577
  0
LINE
  8
0
 10
-38.1187
 20
20.7577
 11
-38.0292
 21
20.7121
  0
LINE
  8
0
 10
-38.0292
 20
20.7121
 11
-37.9427
 21
20.6609
  0
LINE
  8
0
 10
-37.9427
 20
20.6609
 11
-37.8595
 21
20.6044
  0
LINE
  8
0
 10
-37.8595
 20
20.6044
 11
-37.7801
 21
20.5428
  0
LINE
  8
0
 10
-37.7801
 20
20.5428
 11
-37.7047
 21
20.4763
  0
LINE
  8
0
 10
-37.7047
 20
20.4763
 11
-37.6337
 21
20.4053
  0
LINE
  8
0
 10
-37.6337
 20
20.4053
 11
-37.5672
 21
20.3299
  0
LINE
  8
0
 10
-37.5672
 20
20.3299
 11
-37.5056
 21
20.2504
  0
LINE
  8
0
 10
-37.5056
 20
20.2504
 11
-37.4491
 21
20.1673
  0
LINE
  8
0
 10
-37.4491
 20
20.1673
 11
-37.3979
 21
20.0808
  0
LINE
  8
0
 10
-37.3979
 20
20.0808
 11
-37.3523
 21
19.9912
  0
LINE
  8
0
 10
-37.3523
 20
19.9912
 11
-37.3123
 21
19.899
  0
LINE
  8
0
 10
-37.3123
 20
19.899
 11
-37.2783
 21
19.8044
  0
LINE
  8
0
 10
-37.2783
 20
19.8044
 11
-37.2503
 21
19.7079
  0
LINE
  8
0
 10
-37.2503
 20
19.7079
 11
-37.2283
 21
19.6098
  0
LINE
  8
0
 10
-37.2283
 20
19.6098
 11
-37.2126
 21
19.5105
  0
LINE
  8
0
 10
-37.2126
 20
19.5105
 11
-37.2032
 21
19.4105
  0
LINE
  8
0
 10
-37.2032
 20
19.4105
 11
-37.2
 21
19.31
  0
LINE
  8
0
 10
-37.2
 20
19.31
 11
-37.2032
 21
19.2095
  0
LINE
  8
0
 10
-37.2032
 20
19.2095
 11
-37.2126
 21
19.1095
  0
LINE
  8
0
 10
-37.2126
 20
19.1095
 11
-37.2283
 21
19.0102
  0
LINE
  8
0
 10
-37.2283
 20
19.0102
 11
-37.2503
 21
18.9121
  0
LINE
  8
0
 10
-37.2503
 20
18.9121
 11
-37.2783
 21
18.8156
  0
LINE
  8
0
 10
-37.2783
 20
18.8156
 11
-37.3123
 21
18.721
  0
LINE
  8
0
 10
-37.3123
 20
18.721
 11
-37.3523
 21
18.6288
  0
LINE
  8
0
 10
-37.3523
 20
18.6288
 11
-37.3979
 21
18.5392
  0
LINE
  8
0
 10
-37.3979
 20
18.5392
 11
-37.4491
 21
18.4527
  0
LINE
  8
0
 10
-37.4491
 20
18.4527
 11
-37.5056
 21
18.3695
  0
LINE
  8
0
 10
-37.5056
 20
18.3695
 11
-37.5672
 21
18.2901
  0
LINE
  8
0
 10
-37.5672
 20
18.2901
 11
-37.6337
 21
18.2147
  0
LINE
  8
0
 10
-37.6337
 20
18.2147
 11
-37.7047
 21
18.1436
  0
LINE
  8
0
 10
-37.7047
 20
18.1436
 11
-37.7801
 21
18.0772
  0
LINE
  8
0
 10
-37.7801
 20
18.0772
 11
-37.8595
 21
18.0156
  0
LINE
  8
0
 10
-37.8595
 20
18.0156
 11
-37.9427
 21
17.9591
  0
LINE
  8
0
 10
-37.9427
 20
17.9591
 11
-38.0292
 21
17.9079
  0
LINE
  8
0
 10
-38.0292
 20
17.9079
 11
-38.1187
 21
17.8623
  0
LINE
  8
0
 10
-38.1187
 20
17.8623
 11
-38.211
 21
17.8224
  0
LINE
  8
0
 10
-38.211
 20
17.8224
 11
-38.3056
 21
17.7883
  0
LINE
  8
0
 10
-38.3056
 20
17.7883
 11
-38.4021
 21
17.7603
  0
LINE
  8
0
 10
-38.4021
 20
17.7603
 11
-38.5002
 21
17.7383
  0
LINE
  8
0
 10
-38.5002
 20
17.7383
 11
-38.5995
 21
17.7226
  0
LINE
  8
0
 10
-38.5995
 20
17.7226
 11
-38.6995
 21
17.7132
  0
LINE
  8
0
 10
-38.6995
 20
17.7132
 11
-38.8
 21
17.71
  0
LINE
  8
0
 10
-38.8
 20
17.71
 11
-38.9005
 21
17.7132
  0
LINE
  8
0
 10
3.89952
 20
2.40315
 11
3.79945
 21
2.41261
  0
LINE
  8
0
 10
3.79945
 20
2.41261
 11
3.70018
 21
2.42833
  0
LINE
  8
0
 10
3.70018
 20
2.42833
 11
3.60208
 21
2.45026
  0
LINE
  8
0
 10
3.60208
 20
2.45026
 11
3.50557
 21
2.4783
  0
LINE
  8
0
 10
3.50557
 20
2.4783
 11
3.411
 21
2.51234
  0
LINE
  8
0
 10
3.411
 20
2.51234
 11
3.31874
 21
2.55228
  0
LINE
  8
0
 10
3.31874
 20
2.55228
 11
3.22919
 21
2.5979
  0
LINE
  8
0
 10
3.22919
 20
2.5979
 11
3.14267
 21
2.64906
  0
LINE
  8
0
 10
3.14267
 20
2.64906
 11
3.05954
 21
2.70557
  0
LINE
  8
0
 10
3.05954
 20
2.70557
 11
2.98012
 21
2.76717
  0
LINE
  8
0
 10
2.98012
 20
2.76717
 11
2.90472
 21
2.83365
  0
LINE
  8
0
 10
2.90472
 20
2.83365
 11
2.83365
 21
2.90472
  0
LINE
  8
0
 10
2.83365
 20
2.90472
 11
2.76717
 21
2.98012
  0
LINE
  8
0
 10
2.76717
 20
2.98012
 11
2.70557
 21
3.05954
  0
LINE
  8
0
 10
2.70557
 20
3.05954
 11
2.64906
 21
3.14267
  0
LINE
  8
0
 10
2.64906
 20
3.14267
 11
2.5979
 21
3.22919
  0
LINE
  8
0
 10
2.5979
 20
3.22919
 11
2.55228
 21
3.31874
  0
LINE
  8
0
 10
2.55228
 20
3.31874
 11
2.51234
 21
3.411
  0
LINE
  8
0
 10
2.51234
 20
3.411
 11
2.4783
 21
3.50557
  0
LINE
  8
0
 10
2.4783
 20
3.50557
 11
2.45026
 21
3.60208
  0
LINE
  8
0
 10
2.45026
 20
3.60208
 11
2.42833
 21
3.70018
  0
LINE
  8
0
 10
2.42833
 20
3.70018
 11
2.41261
 21
3.79945
  0
LINE
  8
0
 10
2.41261
 20
3.79945
 11
2.40315
 21
3.89952
  0
LINE
  8
0
 10
2.40315
 20
3.89952
 11
2.39999
 21
4
  0
LINE
  8
0
 10
2.39999
 20
4
 11
2.40315
 21
4.10046
  0
LINE
  8
0
 10
2.40315
 20
4.10046
 11
2.41261
 21
4.20053
  0
LINE
  8
0
 10
2.41261
 20
4.20053
 11
2.42833
 21
4.2998
  0
LINE
  8
0
 10
2.42833
 20
4.2998
 11
2.45026
 21
4.3979
  0
LINE
  8
0
 10
2.45026
 20
4.3979
 11
2.4783
 21
4.49442
  0
LINE
  8
0
 10
2.4783
 20
4.49442
 11
2.51234
 21
4.58899
  0
LINE
  8
0
 10
2.51234
 20
4.58899
 11
2.55228
 21
4.68124
  0
LINE
  8
0
 10
2.55228
 20
4.68124
 11
2.5979
 21
4.7708
  0
LINE
  8
0
 10
2.5979
 20
4.7708
 11
2.64906
 21
4.85732
  0
LINE
  8
0
 10
2.64906
 20
4.85732
 11
2.70557
 21
4.94044
  0
LINE
  8
0
 10
2.70557
 20
4.94044
 11
2.76717
 21
5.01987
  0
LINE
  8
0
 10
2.76717
 20
5.01987
 11
2.83365
 21
5.09526
  0
LINE
  8
0
 10
2.83365
 20
5.09526
 11
2.90472
 21
5.16634
  0
LINE
  8
0
 10
2.90472
 20
5.16634
 11
2.98012
 21
5.23282
  0
LINE
  8
0
 10
2.98012
 20
5.23282
 11
3.05954
 21
5.29442
  0
LINE
  8
0
 10
3.05954
 20
5.29442
 11
3.14267
 21
5.35092
  0
LINE
  8
0
 10
3.14267
 20
5.35092
 11
3.22919
 21
5.40208
  0
LINE
  8
0
 10
3.22919
 20
5.40208
 11
3.31874
 21
5.44771
  0
LINE
  8
0
 10
3.31874
 20
5.44771
 11
3.411
 21
5.48764
  0
LINE
  8
0
 10
3.411
 20
5.48764
 11
3.50557
 21
5.52168
  0
LINE
  8
0
 10
3.50557
 20
5.52168
 11
3.60208
 21
5.54973
  0
LINE
  8
0
 10
3.60208
 20
5.54973
 11
3.70018
 21
5.57166
  0
LINE
  8
0
 10
3.70018
 20
5.57166
 11
3.79945
 21
5.58737
  0
LINE
  8
0
 10
3.79945
 20
5.58737
 11
3.89952
 21
5.59683
  0
LINE
  8
0
 10
3.89952
 20
5.59683
 11
4
 21
5.59999
  0
LINE
  8
0
 10
4
 20
5.59999
 11
4.10046
 21
5.59683
  0
LINE
  8
0
 10
4.10046
 20
5.59683
 11
4.20053
 21
5.58737
  0
LINE
  8
0
 10
4.20053
 20
5.58737
 11
4.2998
 21
5.57166
  0
LINE
  8
0
 10
4.2998
 20
5.57166
 11
4.3979
 21
5.54973
  0
LINE
  8
0
 10
4.3979
 20
5.54973
 11
4.49442
 21
5.52168
  0
LINE
  8
0
 10
4.49442
 20
5.52168
 11
4.58899
 21
5.48764
  0
LINE
  8
0
 10
4.58899
 20
5.48764
 11
4.68124
 21
5.44771
  0
LINE
  8
0
 10
4.68124
 20
5.44771
 11
4.7708
 21
5.40208
  0
LINE
  8
0
 10
4.7708
 20
5.40208
 11
4.85732
 21
5.35092
  0
LINE
  8
0
 10
4.85732
 20
5.35092
 11
4.94044
 21
5.29442
  0
LINE
  8
0
 10
4.94044
 20
5.29442
 11
5.01987
 21
5.23282
  0
LINE
  8
0
 10
5.01987
 20
5.23282
 11
5.09526
 21
5.16634
  0
LINE
  8
0
 10
5.09526
 20
5.16634
 11
5.16634
 21
5.09526
  0
LINE
  8
0
 10
5.16634
 20
5.09526
 11
5.23282
 21
5.01987
  0
LINE
  8
0
 10
5.23282
 20
5.01987
 11
5.29442
 21
4.94044
  0
LINE
  8
0
 10
5.29442
 20
4.94044
 11
5.35092
 21
4.85732
  0
LINE
  8
0
 10
5.35092
 20
4.85732
 11
5.40208
 21
4.7708
  0
LINE
  8
0
 10
5.40208
 20
4.7708
 11
5.44771
 21
4.68124
  0
LINE
  8
0
 10
5.44771
 20
4.68124
 11
5.48764
 21
4.58899
  0
LINE
  8
0
 10
5.48764
 20
4.58899
 11
5.52168
 21
4.49442
  0
LINE
  8
0
 10
5.52168
 20
4.49442
 11
5.54973
 21
4.3979
  0
LINE
  8
0
 10
5.54973
 20
4.3979
 11
5.57166
 21
4.2998
  0
LINE
  8
0
 10
5.57166
 20
4.2998
 11
5.58737
 21
4.20053
  0
LINE
  8
0
 10
5.58737
 20
4.20053
 11
5.59683
 21
4.10046
  0
LINE
  8
0
 10
5.59683
 20
4.10046
 11
5.59999
 21
4
  0
LINE
  8
0
 10
5.59999
 20
4
 11
5.59683
 21
3.89952
  0
LINE
  8
0
 10
5.59683
 20
3.89952
 11
5.58737
 21
3.79945
  0
LINE
  8
0
 10
5.58737
 20
3.79945
 11
5.57166
 21
3.70018
  0
LINE
  8
0
 10
5.57166
 20
3.70018
 11
5.54973
 21
3.60208
  0
LINE
  8
0
 10
5.54973
 20
3.60208
 11
5.52168
 21
3.50557
  0
LINE
  8
0
 10
5.52168
 20
3.50557
 11
5.48764
 21
3.411
  0
LINE
  8
0
 10
5.48764
 20
3.411
 11
5.44771
 21
3.31874
  0
LINE
  8
0
 10
5.44771
 20
3.31874
 11
5.40208
 21
3.22919
  0
LINE
  8
0
 10
5.40208
 20
3.22919
 11
5.35092
 21
3.14267
  0
LINE
  8
0
 10
5.35092
 20
3.14267
 11
5.29442
 21
3.05954
  0
LINE
  8
0
 10
5.29442
 20
3.05954
 11
5.23282
 21
2.98012
  0
LINE
  8
0
 10
5.23282
 20
2.98012
 11
5.16634
 21
2.90472
  0
LINE
  8
0
 10
5.16634
 20
2.90472
 11
5.09526
 21
2.83365
  0
LINE
  8
0
 10
5.09526
 20
2.83365
 11
5.01987
 21
2.76717
  0
LINE
  8
0
 10
5.01987
 20
2.76717
 11
4.94044
 21
2.70557
  0
LINE
  8
0
 10
4.94044
 20
2.70557
 11
4.85732
 21
2.64906
  0
LINE
  8
0
 10
4.85732
 20
2.64906
 11
4.7708
 21
2.5979
  0
LINE
  8
0
 10
4.7708
 20
2.5979
 11
4.68124
 21
2.55228
  0
LINE
  8
0
 10
4.68124
 20
2.55228
 11
4.58899
 21
2.51234
  0
LINE
  8
0
 10
4.58899
 20
2.51234
 11
4.49442
 21
2.4783
  0
LINE
  8
0
 10
4.49442
 20
2.4783
 11
4.3979
 21
2.45026
  0
LINE
  8
0
 10
4.3979
 20
2.45026
 11
4.2998
 21
2.42833
  0
LINE
  8
0
 10
4.2998
 20
2.42833
 11
4.20053
 21
2.41261
  0
LINE
  8
0
 10
4.20053
 20
2.41261
 11
4.10046
 21
2.40315
  0
LINE
  8
0
 10
4.10046
 20
2.40315
 11
4
 21
2.39999
  0
LINE
  8
0
 10
4
 20
2.39999
 11
3.89952
 21
2.40315
  0
LINE
  8
0
 10
42.9995
 20
2.40315
 11
42.8995
 21
2.41261
  0
LINE
  8
0
 10
42.8995
 20
2.41261
 11
42.8002
 21
2.42833
  0
LINE
  8
0
 10
42.8002
 20
2.42833
 11
42.7021
 21
2.45026
  0
LINE
  8
0
 10
42.7021
 20
2.45026
 11
42.6056
 21
2.4783
  0
LINE
  8
0
 10
42.6056
 20
2.4783
 11
42.511
 21
2.51234
  0
LINE
  8
0
 10
42.511
 20
2.51234
 11
42.4187
 21
2.55228
  0
LINE
  8
0
 10
42.4187
 20
2.55228
 11
42.3292
 21
2.5979
  0
LINE
  8
0
 10
42.3292
 20
2.5979
 11
42.2427
 21
2.64906
  0
LINE
  8
0
 10
42.2427
 20
2.64906
 11
42.1595
 21
2.70557
  0
LINE
  8
0
 10
42.1595
 20
2.70557
 11
42.0801
 21
2.76717
  0
LINE
  8
0
 10
42.0801
 20
2.76717
 11
42.0047
 21
2.83365
  0
LINE
  8
0
 10
42.0047
 20
2.83365
 11
41.9336
 21
2.90472
  0
LINE
  8
0
 10
41.9336
 20
2.90472
 11
41.8672
 21
2.98012
  0
LINE
  8
0
 10
41.8672
 20
2.98012
 11
41.8056
 21
3.05954
  0
LINE
  8
0
 10
41.8056
 20
3.05954
 11
41.7491
 21
3.14267
  0
LINE
  8
0
 10
41.7491
 20
3.14267
 11
41.6979
 21
3.22919
  0
LINE
  8
0
 10
41.6979
 20
3.22919
 11
41.6523
 21
3.31874
  0
LINE
  8
0
 10
41.6523
 20
3.31874
 11
41.6124
 21
3.411
  0
LINE
  8
0
 10
41.6124
 20
3.411
 11
41.5783
 21
3.50557
  0
LINE
  8
0
 10
41.5783
 20
3.50557
 11
41.5503
 21
3.60208
  0
LINE
  8
0
 10
41.5503
 20
3.60208
 11
41.5283
 21
3.70018
  0
LINE
  8
0
 10
41.5283
 20
3.70018
 11
41.5126
 21
3.79945
  0
LINE
  8
0
 10
41.5126
 20
3.79945
 11
41.5032
 21
3.89952
  0
LINE
  8
0
 10
41.5032
 20
3.89952
 11
41.5
 21
4
  0
LINE
  8
0
 10
41.5
 20
4
 11
41.5032
 21
4.10046
  0
LINE
  8
0
 10
41.5032
 20
4.10046
 11
41.5126
 21
4.20053
  0
LINE
  8
0
 10
41.5126
 20
4.20053
 11
41.5283
 21
4.2998
  0
LINE
  8
0
 10
41.5283
 20
4.2998
 11
41.5503
 21
4.3979
  0
LINE
  8
0
 10
41.5503
 20
4.3979
 11
41.5783
 21
4.49442
  0
LINE
  8
0
 10
41.5783
 20
4.49442
 11
41.6124
 21
4.58899
  0
LINE
  8
0
 10
41.6124
 20
4.58899
 11
41.6523
 21
4.68124
  0
LINE
  8
0
 10
41.6523
 20
4.68124
 11
41.6979
 21
4.7708
  0
LINE
  8
0
 10
41.6979
 20
4.7708
 11
41.7491
 21
4.85732
  0
LINE
  8
0
 10
41.7491
 20
4.85732
 11
41.8056
 21
4.94044
  0
LINE
  8
0
 10
41.8056
 20
4.94044
 11
41.8672
 21
5.01987
  0
LINE
  8
0
 10
41.8672
 20
5.01987
 11
41.9336
 21
5.09526
  0
LINE
  8
0
 10
41.9336
 20
5.09526
 11
42.0047
 21
5.16634
  0
LINE
  8
0
 10
42.0047
 20
5.16634
 11
42.0801
 21
5.23282
  0
LINE
  8
0
 10
42.0801
 20
5.23282
 11
42.1595
 21
5.29442
  0
LINE
  8
0
 10
42.1595
 20
5.29442
 11
42.2427
 21
5.35092
  0
LINE
  8
0
 10
42.2427
 20
5.35092
 11
42.3292
 21
5.40208
  0
LINE
  8
0
 10
42.3292
 20
5.40208
 11
42.4187
 21
5.44771
  0
LINE
  8
0
 10
42.4187
 20
5.44771
 11
42.511
 21
5.48764
  0
LINE
  8
0
 10
42.511
 20
5.48764
 11
42.6056
 21
5.52168
  0
LINE
  8
0
 10
42.6056
 20
5.52168
 11
42.7021
 21
5.54973
  0
LINE
  8
0
 10
42.7021
 20
5.54973
 11
42.8002
 21
5.57166
  0
LINE
  8
0
 10
42.8002
 20
5.57166
 11
42.8995
 21
5.58737
  0
LINE
  8
0
 10
42.8995
 20
5.58737
 11
42.9995
 21
5.59683
  0
LINE
  8
0
 10
42.9995
 20
5.59683
 11
43.1
 21
5.59999
  0
LINE
  8
0
 10
43.1
 20
5.59999
 11
43.2005
 21
5.59683
  0
LINE
  8
0
 10
43.2005
 20
5.59683
 11
43.3005
 21
5.58737
  0
LINE
  8
0
 10
43.3005
 20
5.58737
 11
43.3998
 21
5.57166
  0
LINE
  8
0
 10
43.3998
 20
5.57166
 11
43.4979
 21
5.54973
  0
LINE
  8
0
 10
43.4979
 20
5.54973
 11
43.5944
 21
5.52168
  0
LINE
  8
0
 10
43.5944
 20
5.52168
 11
43.689
 21
5.48764
  0
LINE
  8
0
 10
43.689
 20
5.48764
 11
43.7812
 21
5.44771
  0
LINE
  8
0
 10
43.7812
 20
5.44771
 11
43.8708
 21
5.40208
  0
LINE
  8
0
 10
43.8708
 20
5.40208
 11
43.9573
 21
5.35092
  0
LINE
  8
0
 10
43.9573
 20
5.35092
 11
44.0405
 21
5.29442
  0
LINE
  8
0
 10
44.0405
 20
5.29442
 11
44.1199
 21
5.23282
  0
LINE
  8
0
 10
44.1199
 20
5.23282
 11
44.1953
 21
5.16634
  0
LINE
  8
0
 10
44.1953
 20
5.16634
 11
44.2663
 21
5.09526
  0
LINE
  8
0
 10
44.2663
 20
5.09526
 11
44.3328
 21
5.01987
  0
LINE
  8
0
 10
44.3328
 20
5.01987
 11
44.3944
 21
4.94044
  0
LINE
  8
0
 10
44.3944
 20
4.94044
 11
44.4509
 21
4.85732
  0
LINE
  8
0
 10
44.4509
 20
4.85732
 11
44.5021
 21
4.7708
  0
LINE
  8
0
 10
44.5021
 20
4.7708
 11
44.5477
 21
4.68124
  0
LINE
  8
0
 10
44.5477
 20
4.68124
 11
44.5876
 21
4.58899
  0
LINE
  8
0
 10
44.5876
 20
4.58899
 11
44.6217
 21
4.49442
  0
LINE
  8
0
 10
44.6217
 20
4.49442
 11
44.6497
 21
4.3979
  0
LINE
  8
0
 10
44.6497
 20
4.3979
 11
44.6717
 21
4.2998
  0
LINE
  8
0
 10
44.6717
 20
4.2998
 11
44.6874
 21
4.20053
  0
LINE
  8
0
 10
44.6874
 20
4.20053
 11
44.6968
 21
4.10046
  0
LINE
  8
0
 10
44.6968
 20
4.10046
 11
44.7
 21
4
  0
LINE
  8
0
 10
44.7
 20
4
 11
44.6968
 21
3.89952
  0
LINE
  8
0
 10
44.6968
 20
3.89952
 11
44.6874
 21
3.79945
  0
LINE
  8
0
 10
44.6874
 20
3.79945
 11
44.6717
 21
3.70018
  0
LINE
  8
0
 10
44.6717
 20
3.70018
 11
44.6497
 21
3.60208
  0
LINE
  8
0
 10
44.6497
 20
3.60208
 11
44.6217
 21
3.50557
  0
LINE
  8
0
 10
44.6217
 20
3.50557
 11
44.5876
 21
3.411
  0
LINE
  8
0
 10
44.5876
 20
3.411
 11
44.5477
 21
3.31874
  0
LINE
  8
0
 10
44.5477
 20
3.31874
 11
44.5021
 21
3.22919
  0
LINE
  8
0
 10
44.5021
 20
3.22919
 11
44.4509
 21
3.14267
  0
LINE
  8
0
 10
44.4509
 20
3.14267
 11
44.3944
 21
3.05954
  0
LINE
  8
0
 10
44.3944
 20
3.05954
 11
44.3328
 21
2.98012
  0
LINE
  8
0
 10
44.3328
 20
2.98012
 11
44.2663
 21
2.90472
  0
LINE
  8
0
 10
44.2663
 20
2.90472
 11
44.1953
 21
2.83365
  0
LINE
  8
0
 10
44.1953
 20
2.83365
 11
44.1199
 21
2.76717
  0
LINE
  8
0
 10
44.1199
 20
2.76717
 11
44.0405
 21
2.70557
  0
LINE
  8
0
 10
44.0405
 20
2.70557
 11
43.9573
 21
2.64906
  0
LINE
  8
0
 10
43.9573
 20
2.64906
 11
43.8708
 21
2.5979
  0
LINE
  8
0
 10
43.8708
 20
2.5979
 11
43.7812
 21
2.55228
  0
LINE
  8
0
 10
43.7812
 20
2.55228
 11
43.689
 21
2.51234
  0
LINE
  8
0
 10
43.689
 20
2.51234
 11
43.5944
 21
2.4783
  0
LINE
  8
0
 10
43.5944
 20
2.4783
 11
43.4979
 21
2.45026
  0
LINE
  8
0
 10
43.4979
 20
2.45026
 11
43.3998
 21
2.42833
  0
LINE
  8
0
 10
43.3998
 20
2.42833
 11
43.3005
 21
2.41261
  0
LINE
  8
0
 10
43.3005
 20
2.41261
 11
43.2005
 21
2.40315
  0
LINE
  8
0
 10
43.2005
 20
2.40315
 11
43.1
 21
2.39999
  0
LINE
  8
0
 10
43.1
 20
2.39999
 11
42.9995
 21
2.40315
  0
LINE
  8
0
 10
82.0995
 20
2.40315
 11
81.9995
 21
2.41261
  0
LINE
  8
0
 10
81.9995
 20
2.41261
 11
81.9002
 21
2.42833
  0
LINE
  8
0
 10
81.9002
 20
2.42833
 11
81.8021
 21
2.45026
  0
LINE
  8
0
 10
81.8021
 20
2.45026
 11
81.7056
 21
2.4783
  0
LINE
  8
0
 10
81.7056
 20
2.4783
 11
81.611
 21
2.51234
  0
LINE
  8
0
 10
81.611
 20
2.51234
 11
81.5188
 21
2.55228
  0
LINE
  8
0
 10
81.5188
 20
2.55228
 11
81.4292
 21
2.5979
  0
LINE
  8
0
 10
81.4292
 20
2.5979
 11
81.3427
 21
2.64906
  0
LINE
  8
0
 10
81.3427
 20
2.64906
 11
81.2595
 21
2.70557
  0
LINE
  8
0
 10
81.2595
 20
2.70557
 11
81.1801
 21
2.76717
  0
LINE
  8
0
 10
81.1801
 20
2.76717
 11
81.1047
 21
2.83365
  0
LINE
  8
0
 10
81.1047
 20
2.83365
 11
81.0336
 21
2.90472
  0
LINE
  8
0
 10
81.0336
 20
2.90472
 11
80.9672
 21
2.98012
  0
LINE
  8
0
 10
80.9672
 20
2.98012
 11
80.9056
 21
3.05954
  0
LINE
  8
0
 10
80.9056
 20
3.05954
 11
80.8491
 21
3.14267
  0
LINE
  8
0
 10
80.8491
 20
3.14267
 11
80.7979
 21
3.22919
  0
LINE
  8
0
 10
80.7979
 20
3.22919
 11
80.7523
 21
3.31874
  0
LINE
  8
0
 10
80.7523
 20
3.31874
 11
80.7124
 21
3.411
  0
LINE
  8
0
 10
80.7124
 20
3.411
 11
80.6783
 21
3.50557
  0
LINE
  8
0
 10
80.6783
 20
3.50557
 11
80.6503
 21
3.60208
  0
LINE
  8
0
 10
80.6503
 20
3.60208
 11
80.6283
 21
3.70018
  0
LINE
  8
0
 10
80.6283
 20
3.70018
 11
80.6126
 21
3.79945
  0
LINE
  8
0
 10
80.6126
 20
3.79945
 11
80.6031
 21
3.89952
  0
LINE
  8
0
 10
80.6031
 20
3.89952
 11
80.6
 21
4
  0
LINE
  8
0
 10
80.6
 20
4
 11
80.6031
 21
4.10046
  0
LINE
  8
0
 10
80.6031
 20
4.10046
 11
80.6126
 21
4.20053
  0
LINE
  8
0
 10
80.6126
 20
4.20053
 11
80.6283
 21
4.2998
  0
LINE
  8
0
 10
80.6283
 20
4.2998
 11
80.6503
 21
4.3979
  0
LINE
  8
0
 10
80.6503
 20
4.3979
 11
80.6783
 21
4.49442
  0
LINE
  8
0
 10
80.6783
 20
4.49442
 11
80.7124
 21
4.58899
  0
LINE
  8
0
 10
80.7124
 20
4.58899
 11
80.7523
 21
4.68124
  0
LINE
  8
0
 10
80.7523
 20
4.68124
 11
80.7979
 21
4.7708
  0
LINE
  8
0
 10
80.7979
 20
4.7708
 11
80.8491
 21
4.85732
  0
LINE
  8
0
 10
80.8491
 20
4.85732
 11
80.9056
 21
4.94044
  0
LINE
  8
0
 10
80.9056
 20
4.94044
 11
80.9672
 21
5.01987
  0
LINE
  8
0
 10
80.9672
 20
5.01987
 11
81.0336
 21
5.09526
  0
LINE
  8
0
 10
81.0336
 20
5.09526
 11
81.1047
 21
5.16634
  0
LINE
  8
0
 10
81.1047
 20
5.16634
 11
81.1801
 21
5.23282
  0
LINE
  8
0
 10
81.1801
 20
5.23282
 11
81.2595
 21
5.29442
  0
LINE
  8
0
 10
81.2595
 20
5.29442
 11
81.3427
 21
5.35092
  0
LINE
  8
0
 10
81.3427
 20
5.35092
 11
81.4292
 21
5.40208
  0
LINE
  8
0
 10
81.4292
 20
5.40208
 11
81.5188
 21
5.44771
  0
LINE
  8
0
 10
81.5188
 20
5.44771
 11
81.611
 21
5.48764
  0
LINE
  8
0
 10
81.611
 20
5.48764
 11
81.7056
 21
5.52168
  0
LINE
  8
0
 10
81.7056
 20
5.52168
 11
81.8021
 21
5.54973
  0
LINE
  8
0
 10
81.8021
 20
5.54973
 11
81.9002
 21
5.57166
  0
LINE
  8
0
 10
81.9002
 20
5.57166
 11
81.9995
 21
5.58737
  0
LINE
  8
0
 10
81.9995
 20
5.58737
 11
82.0995
 21
5.59683
  0
LINE
  8
0
 10
82.0995
 20
5.59683
 11
82.2
 21
5.59999
  0
LINE
  8
0
 10
82.2
 20
5.59999
 11
82.3005
 21
5.59683
  0
LINE
  8
0
 10
82.3005
 20
5.59683
 11
82.4005
 21
5.58737
  0
LINE
  8
0
 10
82.4005
 20
5.58737
 11
82.4998
 21
5.57166
  0
LINE
  8
0
 10
82.4998
 20
5.57166
 11
82.5979
 21
5.54973
  0
LINE
  8
0
 10
82.5979
 20
5.54973
 11
82.6944
 21
5.52168
  0
LINE
  8
0
 10
82.6944
 20
5.52168
 11
82.789
 21
5.48764
  0
LINE
  8
0
 10
82.789
 20
5.48764
 11
82.8812
 21
5.44771
  0
LINE
  8
0
 10
82.8812
 20
5.44771
 11
82.9708
 21
5.40208
  0
LINE
  8
0
 10
82.9708
 20
5.40208
 11
83.0573
 21
5.35092
  0
LINE
  8
0
 10
83.0573
 20
5.35092
 11
83.1405
 21
5.29442
  0
LINE
  8
0
 10
83.1405
 20
5.29442
 11
83.2199
 21
5.23282
  0
LINE
  8
0
 10
83.2199
 20
5.23282
 11
83.2953
 21
5.16634
  0
LINE
  8
0
 10
83.2953
 20
5.16634
 11
83.3663
 21
5.09526
  0
LINE
  8
0
 10
83.3663
 20
5.09526
 11
83.4328
 21
5.01987
  0
LINE
  8
0
 10
83.4328
 20
5.01987
 11
83.4944
 21
4.94044
  0
LINE
  8
0
 10
83.4944
 20
4.94044
 11
83.5509
 21
4.85732
  0
LINE
  8
0
 10
83.5509
 20
4.85732
 11
83.6021
 21
4.7708
  0
LINE
  8
0
 10
83.6021
 20
4.7708
 11
83.6477
 21
4.68124
  0
LINE
  8
0
 10
83.6477
 20
4.68124
 11
83.6876
 21
4.58899
  0
LINE
  8
0
 10
83.6876
 20
4.58899
 11
83.7217
 21
4.49442
  0
LINE
  8
0
 10
83.7217
 20
4.49442
 11
83.7497
 21
4.3979
  0
LINE
  8
0
 10
83.7497
 20
4.3979
 11
83.7717
 21
4.2998
  0
LINE
  8
0
 10
83.7717
 20
4.2998
 11
83.7874
 21
4.20053
  0
LINE
  8
0
 10
83.7874
 20
4.20053
 11
83.7968
 21
4.10046
  0
LINE
  8
0
 10
83.7968
 20
4.10046
 11
83.8
 21
4
  0
LINE
  8
0
 10
83.8
 20
4
 11
83.7968
 21
3.89952
  0
LINE
  8
0
 10
83.7968
 20
3.89952
 11
83.7874
 21
3.79945
  0
LINE
  8
0
 10
83.7874
 20
3.79945
 11
83.7717
 21
3.70018
  0
LINE
  8
0
 10
83.7717
 20
3.70018
 11
83.7497
 21
3.60208
  0
LINE
  8
0
 10
83.7497
 20
3.60208
 11
83.7217
 21
3.50557
  0
LINE
  8
0
 10
83.7217
 20
3.50557
 11
83.6876
 21
3.411
  0
LINE
  8
0
 10
83.6876
 20
3.411
 11
83.6477
 21
3.31874
  0
LINE
  8
0
 10
83.6477
 20
3.31874
 11
83.6021
 21
3.22919
  0
LINE
  8
0
 10
83.6021
 20
3.22919
 11
83.5509
 21
3.14267
  0
LINE
  8
0
 10
83.5509
 20
3.14267
 11
83.4944
 21
3.05954
  0
LINE
  8
0
 10
83.4944
 20
3.05954
 11
83.4328
 21
2.98012
  0
LINE
  8
0
 10
83.4328
 20
2.98012
 11
83.3663
 21
2.90472
  0
LINE
  8
0
 10
83.3663
 20
2.90472
 11
83.2953
 21
2.83365
  0
LINE
  8
0
 10
83.2953
 20
2.83365
 11
83.2199
 21
2.76717
  0
LINE
  8
0
 10
83.2199
 20
2.76717
 11
83.1405
 21
2.70557
  0
LINE
  8
0
 10
83.1405
 20
2.70557
 11
83.0573
 21
2.64906
  0
LINE
  8
0
 10
83.0573
 20
2.64906
 11
82.9708
 21
2.5979
  0
LINE
  8
0
 10
82.9708
 20
2.5979
 11
82.8812
 21
2.55228
  0
LINE
  8
0
 10
82.8812
 20
2.55228
 11
82.789
 21
2.51234
  0
LINE
  8
0
 10
82.789
 20
2.51234
 11
82.6944
 21
2.4783
  0
LINE
  8
0
 10
82.6944
 20
2.4783
 11
82.5979
 21
2.45026
  0
LINE
  8
0
 10
82.5979
 20
2.45026
 11
82.4998
 21
2.42833
  0
LINE
  8
0
 10
82.4998
 20
2.42833
 11
82.4005
 21
2.41261
  0
LINE
  8
0
 10
82.4005
 20
2.41261
 11
82.3005
 21
2.40315
  0
LINE
  8
0
 10
82.3005
 20
2.40315
 11
82.2
 21
2.39999
  0
LINE
  8
0
 10
82.2
 20
2.39999
 11
82.0995
 21
2.40315
  0
LINE
  8
0
 10
-38.9005
 20
-9.19684
 11
-39.0005
 21
-9.18738
  0
LINE
  8
0
 10
-39.0005
 20
-9.18738
 11
-39.0998
 21
-9.17165
  0
LINE
  8
0
 10
-39.0998
 20
-9.17165
 11
-39.1979
 21
-9.14972
  0
LINE
  8
0
 10
-39.1979
 20
-9.14972
 11
-39.2944
 21
-9.12169
  0
LINE
  8
0
 10
-39.2944
 20
-9.12169
 11
-39.389
 21
-9.08763
  0
LINE
  8
0
 10
-39.389
 20
-9.08763
 11
-39.4812
 21
-9.04771
  0
LINE
  8
0
 10
-39.4812
 20
-9.04771
 11
-39.5708
 21
-9.00209
  0
LINE
  8
0
 10
-39.5708
 20
-9.00209
 11
-39.6573
 21
-8.95091
  0
LINE
  8
0
 10
-39.6573
 20
-8.95091
 11
-39.7404
 21
-8.89442
  0
LINE
  8
0
 10
-39.7404
 20
-8.89442
 11
-39.8199
 21
-8.83281
  0
LINE
  8
0
 10
-39.8199
 20
-8.83281
 11
-39.8953
 21
-8.76634
  0
LINE
  8
0
 10
-39.8953
 20
-8.76634
 11
-39.9663
 21
-8.69527
  0
LINE
  8
0
 10
-39.9663
 20
-8.69527
 11
-40.0328
 21
-8.61987
  0
LINE
  8
0
 10
-40.0328
 20
-8.61987
 11
-40.0944
 21
-8.54045
  0
LINE
  8
0
 10
-40.0944
 20
-8.54045
 11
-40.1509
 21
-8.45732
  0
LINE
  8
0
 10
-40.1509
 20
-8.45732
 11
-40.2021
 21
-8.3708
  0
LINE
  8
0
 10
-40.2021
 20
-8.3708
 11
-40.2477
 21
-8.28123
  0
LINE
  8
0
 10
-40.2477
 20
-8.28123
 11
-40.2876
 21
-8.189
  0
LINE
  8
0
 10
-40.2876
 20
-8.189
 11
-40.3217
 21
-8.09442
  0
LINE
  8
0
 10
-40.3217
 20
-8.09442
 11
-40.3497
 21
-7.99789
  0
LINE
  8
0
 10
-40.3497
 20
-7.99789
 11
-40.3717
 21
-7.89981
  0
LINE
  8
0
 10
-40.3717
 20
-7.89981
 11
-40.3874
 21
-7.80052
  0
LINE
  8
0
 10
-40.3874
 20
-7.80052
 11
-40.3968
 21
-7.70045
  0
LINE
  8
0
 10
-40.3968
 20
-7.70045
 11
-40.4
 21
-7.59999
  0
LINE
  8
0
 10
-40.4
 20
-7.59999
 11
-40.3968
 21
-7.49953
  0
LINE
  8
0
 10
-40.3968
 20
-7.49953
 11
-40.3874
 21
-7.39946
  0
LINE
  8
0
 10
-40.3874
 20
-7.39946
 11
-40.3717
 21
-7.30019
  0
LINE
  8
0
 10
-40.3717
 20
-7.30019
 11
-40.3497
 21
-7.20209
  0
LINE
  8
0
 10
-40.3497
 20
-7.20209
 11
-40.3217
 21
-7.10556
  0
LINE
  8
0
 10
-40.3217
 20
-7.10556
 11
-40.2876
 21
-7.011
  0
LINE
  8
0
 10
-40.2876
 20
-7.011
 11
-40.2477
 21
-6.91875
  0
LINE
  8
0
 10
-40.2477
 20
-6.91875
 11
-40.2021
 21
-6.82919
  0
LINE
  8
0
 10
-40.2021
 20
-6.82919
 11
-40.1509
 21
-6.74268
  0
LINE
  8
0
 10
-40.1509
 20
-6.74268
 11
-40.0944
 21
-6.65953
  0
LINE
  8
0
 10
-40.0944
 20
-6.65953
 11
-40.0328
 21
-6.58011
  0
LINE
  8
0
 10
-40.0328
 20
-6.58011
 11
-39.9663
 21
-6.50471
  0
LINE
  8
0
 10
-39.9663
 20
-6.50471
 11
-39.8953
 21
-6.43364
  0
LINE
  8
0
 10
-39.8953
 20
-6.43364
 11
-39.8199
 21
-6.36717
  0
LINE
  8
0
 10
-39.8199
 20
-6.36717
 11
-39.7404
 21
-6.30557
  0
LINE
  8
0
 10
-39.7404
 20
-6.30557
 11
-39.6573
 21
-6.24907
  0
LINE
  8
0
 10
-39.6573
 20
-6.24907
 11
-39.5708
 21
-6.19791
  0
LINE
  8
0
 10
-39.5708
 20
-6.19791
 11
-39.4812
 21
-6.15227
  0
LINE
  8
0
 10
-39.4812
 20
-6.15227
 11
-39.389
 21
-6.11235
  0
LINE
  8
0
 10
-39.389
 20
-6.11235
 11
-39.2944
 21
-6.07831
  0
LINE
  8
0
 10
-39.2944
 20
-6.07831
 11
-39.1979
 21
-6.05026
  0
LINE
  8
0
 10
-39.1979
 20
-6.05026
 11
-39.0998
 21
-6.02834
  0
LINE
  8
0
 10
-39.0998
 20
-6.02834
 11
-39.0005
 21
-6.0126
  0
LINE
  8
0
 10
-39.0005
 20
-6.0126
 11
-38.9005
 21
-6.00314
  0
LINE
  8
0
 10
-38.9005
 20
-6.00314
 11
-38.8
 21
-6
  0
LINE
  8
0
 10
-38.8
 20
-6
 11
-38.6995
 21
-6.00314
  0
LINE
  8
0
 10
-38.6995
 20
-6.00314
 11
-38.5995
 21
-6.0126
  0
LINE
  8
0
 10
-38.5995
 20
-6.0126
 11
-38.5002
 21
-6.02834
  0
LINE
  8
0
 10
-38.5002
 20
-6.02834
 11
-38.4021
 21
-6.05026
  0
LINE
  8
0
 10
-38.4021
 20
-6.05026
 11
-38.3056
 21
-6.07831
  0
LINE
  8
0
 10
-38.3056
 20
-6.07831
 11
-38.211
 21
-6.11235
  0
LINE
  8
0
 10
-38.211
 20
-6.11235
 11
-38.1187
 21
-6.15227
  0
LINE
  8
0
 10
-38.1187
 20
-6.15227
 11
-38.0292
 21
-6.19791
  0
LINE
  8
0
 10
-38.0292
 20
-6.19791
 11
-37.9427
 21
-6.24907
  0
LINE
  8
0
 10
-37.9427
 20
-6.24907
 11
-37.8595
 21
-6.30557
  0
LINE
  8
0
 10
-37.8595
 20
-6.30557
 11
-37.7801
 21
-6.36717
  0
LINE
  8
0
 10
-37.7801
 20
-6.36717
 11
-37.7047
 21
-6.43364
  0
LINE
  8
0
 10
-37.7047
 20
-6.43364
 11
-37.6337
 21
-6.50471
  0
LINE
  8
0
 10
-37.6337
 20
-6.50471
 11
-37.5672
 21
-6.58011
  0
LINE
  8
0
 10
-37.5672
 20
-6.58011
 11
-37.5056
 21
-6.65953
  0
LINE
  8
0
 10
-37.5056
 20
-6.65953
 11
-37.4491
 21
-6.74268
  0
LINE
  8
0
 10
-37.4491
 20
-6.74268
 11
-37.3979
 21
-6.82919
  0
LINE
  8
0
 10
-37.3979
 20
-6.82919
 11
-37.3523
 21
-6.91875
  0
LINE
  8
0
 10
-37.3523
 20
-6.91875
 11
-37.3123
 21
-7.011
  0
LINE
  8
0
 10
-37.3123
 20
-7.011
 11
-37.2783
 21
-7.10556
  0
LINE
  8
0
 10
-37.2783
 20
-7.10556
 11
-37.2503
 21
-7.20209
  0
LINE
  8
0
 10
-37.2503
 20
-7.20209
 11
-37.2283
 21
-7.30019
  0
LINE
  8
0
 10
-37.2283
 20
-7.30019
 11
-37.2126
 21
-7.39946
  0
LINE
  8
0
 10
-37.2126
 20
-7.39946
 11
-37.2032
 21
-7.49953
  0
LINE
  8
0
 10
-37.2032
 20
-7.49953
 11
-37.2
 21
-7.59999
  0
LINE
  8
0
 10
-37.2
 20
-7.59999
 11
-37.2032
 21
-7.70045
  0
LINE
  8
0
 10
-37.2032
 20
-7.70045
 11
-37.2126
 21
-7.80052
  0
LINE
  8
0
 10
-37.2126
 20
-7.80052
 11
-37.2283
 21
-7.89981
  0
LINE
  8
0
 10
-37.2283
 20
-7.89981
 11
-37.2503
 21
-7.99789
  0
LINE
  8
0
 10
-37.2503
 20
-7.99789
 11
-37.2783
 21
-8.09442
  0
LINE
  8
0
 10
-37.2783
 20
-8.09442
 11
-37.3123
 21
-8.189
  0
LINE
  8
0
 10
-37.3123
 20
-8.189
 11
-37.3523
 21
-8.28123
  0
LINE
  8
0
 10
-37.3523
 20
-8.28123
 11
-37.3979
 21
-8.3708
  0
LINE
  8
0
 10
-37.3979
 20
-8.3708
 11
-37.4491
 21
-8.45732
  0
LINE
  8
0
 10
-37.4491
 20
-8.45732
 11
-37.5056
 21
-8.54045
  0
LINE
  8
0
 10
-37.5056
 20
-8.54045
 11
-37.5672
 21
-8.61987
  0
LINE
  8
0
 10
-37.5672
 20
-8.61987
 11
-37.6337
 21
-8.69527
  0
LINE
  8
0
 10
-37.6337
 20
-8.69527
 11
-37.7047
 21
-8.76634
  0
LINE
  8
0
 10
-37.7047
 20
-8.76634
 11
-37.7801
 21
-8.83281
  0
LINE
  8
0
 10
-37.7801
 20
-8.83281
 11
-37.8595
 21
-8.89442
  0
LINE
  8
0
 10
-37.8595
 20
-8.89442
 11
-37.9427
 21
-8.95091
  0
LINE
  8
0
 10
-37.9427
 20
-8.95091
 11
-38.0292
 21
-9.00209
  0
LINE
  8
0
 10
-38.0292
 20
-9.00209
 11
-38.1187
 21
-9.04771
  0
LINE
  8
0
 10
-38.1187
 20
-9.04771
 11
-38.211
 21
-9.08763
  0
LINE
  8
0
 10
-38.211
 20
-9.08763
 11
-38.3056
 21
-9.12169
  0
LINE
  8
0
 10
-38.3056
 20
-9.12169
 11
-38.4021
 21
-9.14972
  0
LINE
  8
0
 10
-38.4021
 20
-9.14972
 11
-38.5002
 21
-9.17165
  0
LINE
  8
0
 10
-38.5002
 20
-9.17165
 11
-38.5995
 21
-9.18738
  0
LINE
  8
0
 10
-38.5995
 20
-9.18738
 11
-38.6995
 21
-9.19684
  0
LINE
  8
0
 10
-38.6995
 20
-9.19684
 11
-38.8
 21
-9.2
  0
LINE
  8
0
 10
-38.8
 20
-9.2
 11
-38.9005
 21
-9.19684
  0
LINE
  8
0
 10
-18.3005
 20
-9.19684
 11
-18.4005
 21
-9.18738
  0
LINE
  8
0
 10
-18.4005
 20
-9.18738
 11
-18.4998
 21
-9.17165
  0
LINE
  8
0
 10
-18.4998
 20
-9.17165
 11
-18.5979
 21
-9.14972
  0
LINE
  8
0
 10
-18.5979
 20
-9.14972
 11
-18.6944
 21
-9.12169
  0
LINE
  8
0
 10
-18.6944
 20
-9.12169
 11
-18.789
 21
-9.08763
  0
LINE
  8
0
 10
-18.789
 20
-9.08763
 11
-18.8812
 21
-9.04771
  0
LINE
  8
0
 10
-18.8812
 20
-9.04771
 11
-18.9708
 21
-9.00209
  0
LINE
  8
0
 10
-18.9708
 20
-9.00209
 11
-19.0573
 21
-8.95091
  0
LINE
  8
0
 10
-19.0573
 20
-8.95091
 11
-19.1405
 21
-8.89442
  0
LINE
  8
0
 10
-19.1405
 20
-8.89442
 11
-19.2199
 21
-8.83281
  0
LINE
  8
0
 10
-19.2199
 20
-8.83281
 11
-19.2953
 21
-8.76634
  0
LINE
  8
0
 10
-19.2953
 20
-8.76634
 11
-19.3663
 21
-8.69527
  0
LINE
  8
0
 10
-19.3663
 20
-8.69527
 11
-19.4328
 21
-8.61987
  0
LINE
  8
0
 10
-19.4328
 20
-8.61987
 11
-19.4944
 21
-8.54045
  0
LINE
  8
0
 10
-19.4944
 20
-8.54045
 11
-19.5509
 21
-8.45732
  0
LINE
  8
0
 10
-19.5509
 20
-8.45732
 11
-19.6021
 21
-8.3708
  0
LINE
  8
0
 10
-19.6021
 20
-8.3708
 11
-19.6477
 21
-8.28123
  0
LINE
  8
0
 10
-19.6477
 20
-8.28123
 11
-19.6876
 21
-8.189
  0
LINE
  8
0
 10
-19.6876
 20
-8.189
 11
-19.7217
 21
-8.09442
  0
LINE
  8
0
 10
-19.7217
 20
-8.09442
 11
-19.7497
 21
-7.99789
  0
LINE
  8
0
 10
-19.7497
 20
-7.99789
 11
-19.7717
 21
-7.89981
  0
LINE
  8
0
 10
-19.7717
 20
-7.89981
 11
-19.7874
 21
-7.80052
  0
LINE
  8
0
 10
-19.7874
 20
-7.80052
 11
-19.7968
 21
-7.70045
  0
LINE
  8
0
 10
-19.7968
 20
-7.70045
 11
-19.8
 21
-7.59999
  0
LINE
  8
0
 10
-19.8
 20
-7.59999
 11
-19.7968
 21
-7.49953
  0
LINE
  8
0
 10
-19.7968
 20
-7.49953
 11
-19.7874
 21
-7.39946
  0
LINE
  8
0
 10
-19.7874
 20
-7.39946
 11
-19.7717
 21
-7.30019
  0
LINE
  8
0
 10
-19.7717
 20
-7.30019
 11
-19.7497
 21
-7.20209
  0
LINE
  8
0
 10
-19.7497
 20
-7.20209
 11
-19.7217
 21
-7.10556
  0
LINE
  8
0
 10
-19.7217
 20
-7.10556
 11
-19.6876
 21
-7.011
  0
LINE
  8
0
 10
-19.6876
 20
-7.011
 11
-19.6477
 21
-6.91875
  0
LINE
  8
0
 10
-19.6477
 20
-6.91875
 11
-19.6021
 21
-6.82919
  0
LINE
  8
0
 10
-19.6021
 20
-6.82919
 11
-19.5509
 21
-6.74268
  0
LINE
  8
0
 10
-19.5509
 20
-6.74268
 11
-19.4944
 21
-6.65953
  0
LINE
  8
0
 10
-19.4944
 20
-6.65953
 11
-19.4328
 21
-6.58011
  0
LINE
  8
0
 10
-19.4328
 20
-6.58011
 11
-19.3663
 21
-6.50471
  0
LINE
  8
0
 10
-19.3663
 20
-6.50471
 11
-19.2953
 21
-6.43364
  0
LINE
  8
0
 10
-19.2953
 20
-6.43364
 11
-19.2199
 21
-6.36717
  0
LINE
  8
0
 10
-19.2199
 20
-6.36717
 11
-19.1405
 21
-6.30557
  0
LINE
  8
0
 10
-19.1405
 20
-6.30557
 11
-19.0573
 21
-6.24907
  0
LINE
  8
0
 10
-19.0573
 20
-6.24907
 11
-18.9708
 21
-6.19791
  0
LINE
  8
0
 10
-18.9708
 20
-6.19791
 11
-18.8812
 21
-6.15227
  0
LINE
  8
0
 10
-18.8812
 20
-6.15227
 11
-18.789
 21
-6.11235
  0
LINE
  8
0
 10
-18.789
 20
-6.11235
 11
-18.6944
 21
-6.07831
  0
LINE
  8
0
 10
-18.6944
 20
-6.07831
 11
-18.5979
 21
-6.05026
  0
LINE
  8
0
 10
-18.5979
 20
-6.05026
 11
-18.4998
 21
-6.02834
  0
LINE
  8
0
 10
-18.4998
 20
-6.02834
 11
-18.4005
 21
-6.0126
  0
LINE
  8
0
 10
-18.4005
 20
-6.0126
 11
-18.3005
 21
-6.00314
  0
LINE
  8
0
 10
-18.3005
 20
-6.00314
 11
-18.2
 21
-6
  0
LINE
  8
0
 10
-18.2
 20
-6
 11
-18.0995
 21
-6.00314
  0
LINE
  8
0
 10
-18.0995
 20
-6.00314
 11
-17.9995
 21
-6.0126
  0
LINE
  8
0
 10
-17.9995
 20
-6.0126
 11
-17.9002
 21
-6.02834
  0
LINE
  8
0
 10
-17.9002
 20
-6.02834
 11
-17.8021
 21
-6.05026
  0
LINE
  8
0
 10
-17.8021
 20
-6.05026
 11
-17.7056
 21
-6.07831
  0
LINE
  8
0
 10
-17.7056
 20
-6.07831
 11
-17.611
 21
-6.11235
  0
LINE
  8
0
 10
-17.611
 20
-6.11235
 11
-17.5188
 21
-6.15227
  0
LINE
  8
0
 10
-17.5188
 20
-6.15227
 11
-17.4292
 21
-6.19791
  0
LINE
  8
0
 10
-17.4292
 20
-6.19791
 11
-17.3427
 21
-6.24907
  0
LINE
  8
0
 10
-17.3427
 20
-6.24907
 11
-17.2595
 21
-6.30557
  0
LINE
  8
0
 10
-17.2595
 20
-6.30557
 11
-17.1801
 21
-6.36717
  0
LINE
  8
0
 10
-17.1801
 20
-6.36717
 11
-17.1047
 21
-6.43364
  0
LINE
  8
0
 10
-17.1047
 20
-6.43364
 11
-17.0336
 21
-6.50471
  0
LINE
  8
0
 10
-17.0336
 20
-6.50471
 11
-16.9672
 21
-6.58011
  0
LINE
  8
0
 10
-16.9672
 20
-6.58011
 11
-16.9056
 21
-6.65953
  0
LINE
  8
0
 10
-16.9056
 20
-6.65953
 11
-16.8491
 21
-6.74268
  0
LINE
  8
0
 10
-16.8491
 20
-6.74268
 11
-16.7979
 21
-6.82919
  0
LINE
  8
0
 10
-16.7979
 20
-6.82919
 11
-16.7523
 21
-6.91875
  0
LINE
  8
0
 10
-16.7523
 20
-6.91875
 11
-16.7124
 21
-7.011
  0
LINE
  8
0
 10
-16.7124
 20
-7.011
 11
-16.6783
 21
-7.10556
  0
LINE
  8
0
 10
-16.6783
 20
-7.10556
 11
-16.6503
 21
-7.20209
  0
LINE
  8
0
 10
-16.6503
 20
-7.20209
 11
-16.6283
 21
-7.30019
  0
LINE
  8
0
 10
-16.6283
 20
-7.30019
 11
-16.6126
 21
-7.39946
  0
LINE
  8
0
 10
-16.6126
 20
-7.39946
 11
-16.6031
 21
-7.49953
  0
LINE
  8
0
 10
-16.6031
 20
-7.49953
 11
-16.6
 21
-7.59999
  0
LINE
  8
0
 10
-16.6
 20
-7.59999
 11
-16.6031
 21
-7.70045
  0
LINE
  8
0
 10
-16.6031
 20
-7.70045
 11
-16.6126
 21
-7.80052
  0
LINE
  8
0
 10
-16.6126
 20
-7.80052
 11
-16.6283
 21
-7.89981
  0
LINE
  8
0
 10
-16.6283
 20
-7.89981
 11
-16.6503
 21
-7.99789
  0
LINE
  8
0
 10
-16.6503
 20
-7.99789
 11
-16.6783
 21
-8.09442
  0
LINE
  8
0
 10
-16.6783
 20
-8.09442
 11
-16.7124
 21
-8.189
  0
LINE
  8
0
 10
-16.7124
 20
-8.189
 11
-16.7523
 21
-8.28123
  0
LINE
  8
0
 10
-16.7523
 20
-8.28123
 11
-16.7979
 21
-8.3708
  0
LINE
  8
0
 10
-16.7979
 20
-8.3708
 11
-16.8491
 21
-8.45732
  0
LINE
  8
0
 10
-16.8491
 20
-8.45732
 11
-16.9056
 21
-8.54045
  0
LINE
  8
0
 10
-16.9056
 20
-8.54045
 11
-16.9672
 21
-8.61987
  0
LINE
  8
0
 10
-16.9672
 20
-8.61987
 11
-17.0336
 21
-8.69527
  0
LINE
  8
0
 10
-17.0336
 20
-8.69527
 11
-17.1047
 21
-8.76634
  0
LINE
  8
0
 10
-17.1047
 20
-8.76634
 11
-17.1801
 21
-8.83281
  0
LINE
  8
0
 10
-17.1801
 20
-8.83281
 11
-17.2595
 21
-8.89442
  0
LINE
  8
0
 10
-17.2595
 20
-8.89442
 11
-17.3427
 21
-8.95091
  0
LINE
  8
0
 10
-17.3427
 20
-8.95091
 11
-17.4292
 21
-9.00209
  0
LINE
  8
0
 10
-17.4292
 20
-9.00209
 11
-17.5188
 21
-9.04771
  0
LINE
  8
0
 10
-17.5188
 20
-9.04771
 11
-17.611
 21
-9.08763
  0
LINE
  8
0
 10
-17.611
 20
-9.08763
 11
-17.7056
 21
-9.12169
  0
LINE
  8
0
 10
-17.7056
 20
-9.12169
 11
-17.8021
 21
-9.14972
  0
LINE
  8
0
 10
-17.8021
 20
-9.14972
 11
-17.9002
 21
-9.17165
  0
LINE
  8
0
 10
-17.9002
 20
-9.17165
 11
-17.9995
 21
-9.18738
  0
LINE
  8
0
 10
-17.9995
 20
-9.18738
 11
-18.0995
 21
-9.19684
  0
LINE
  8
0
 10
-18.0995
 20
-9.19684
 11
-18.2
 21
-9.2
  0
LINE
  8
0
 10
-18.2
 20
-9.2
 11
-18.3005
 21
-9.19684
  0
ENDSEC
  0
SECTION
  2
OBJECTS
  0
DICTIONARY
  0
ENDSEC
  0
EOF
