  0
SECTION
  2
BLOCKS
  0
ENDSEC
  0
SECTION
  2
ENTITIES
  0
LINE
  8
0
 10
61.82
 20
0
 11
61.82
 21
61.82
  0
LINE
  8
0
 10
61.82
 20
61.82
 11
0
 21
61.82
  0
LINE
  8
0
 10
0
 20
61.82
 11
-43
 21
26
  0
LINE
  8
0
 10
-43
 20
26
 11
-43
 21
-12
  0
LINE
  8
0
 10
-43
 20
-12
 11
-13
 21
-12
  0
LINE
  8
0
 10
-13
 20
-12
 11
61.82
 21
0
  0
LINE
  8
0
 10
3.89952
 20
56.2231
 11
3.79945
 21
56.2326
  0
LINE
  8
0
 10
3.79945
 20
56.2326
 11
3.70018
 21
56.2483
  0
LINE
  8
0
 10
3.70018
 20
56.2483
 11
3.60208
 21
56.2703
  0
LINE
  8
0
 10
3.60208
 20
56.2703
 11
3.50557
 21
56.2983
  0
LINE
  8
0
 10
3.50557
 20
56.2983
 11
3.411
 21
56.3324
  0
LINE
  8
0
 10
3.411
 20
56.3324
 11
3.31874
 21
56.3723
  0
LINE
  8
0
 10
3.31874
 20
56.3723
 11
3.22919
 21
56.4179
  0
LINE
  8
0
 10
3.22919
 20
56.4179
 11
3.14267
 21
56.4691
  0
LINE
  8
0
 10
3.14267
 20
56.4691
 11
3.05954
 21
56.5256
  0
LINE
  8
0
 10
3.05954
 20
56.5256
 11
2.98012
 21
56.5872
  0
LINE
  8
0
 10
2.98012
 20
56.5872
 11
2.90472
 21
56.6536
  0
LINE
  8
0
 10
2.90472
 20
56.6536
 11
2.83365
 21
56.7247
  0
LINE
  8
0
 10
2.83365
 20
56.7247
 11
2.76717
 21
56.8001
  0
LINE
  8
0
 10
2.76717
 20
56.8001
 11
2.70557
 21
56.8795
  0
LINE
  8
0
 10
2.70557
 20
56.8795
 11
2.64906
 21
56.9627
  0
LINE
  8
0
 10
2.64906
 20
56.9627
 11
2.5979
 21
57.0492
  0
LINE
  8
0
 10
2.5979
 20
57.0492
 11
2.55228
 21
57.1387
  0
LINE
  8
0
 10
2.55228
 20
57.1387
 11
2.51234
 21
57.231
  0
LINE
  8
0
 10
2.51234
 20
57.231
 11
2.4783
 21
57.3256
  0
LINE
  8
0
 10
2.4783
 20
57.3256
 11
2.45026
 21
57.4221
  0
LINE
  8
0
 10
2.45026
 20
57.4221
 11
2.42833
 21
57.5202
  0
LINE
  8
0
 10
2.42833
 20
57.5202
 11
2.41261
 21
57.6195
  0
LINE
  8
0
 10
2.41261
 20
57.6195
 11
2.40315
 21
57.7195
  0
LINE
  8
0
 10
2.40315
 20
57.7195
 11
2.39999
 21
57.82
  0
LINE
  8
0
 10
2.39999
 20
57.82
 11
2.40315
 21
57.9205
  0
LINE
  8
0
 10
2.40315
 20
57.9205
 11
2.41261
 21
58.0205
  0
LINE
  8
0
 10
2.41261
 20
58.0205
 11
2.42833
 21
58.1198
  0
LINE
  8
0
 10
2.42833
 20
58.1198
 11
2.45026
 21
58.2179
  0
LINE
  8
0
 10
2.45026
 20
58.2179
 11
2.4783
 21
58.3144
  0
LINE
  8
0
 10
2.4783
 20
58.3144
 11
2.51234
 21
58.409
  0
LINE
  8
0
 10
2.51234
 20
58.409
 11
2.55228
 21
58.5012
  0
LINE
  8
0
 10
2.55228
 20
58.5012
 11
2.5979
 21
58.5908
  0
LINE
  8
0
 10
2.5979
 20
58.5908
 11
2.64906
 21
58.6773
  0
LINE
  8
0
 10
2.64906
 20
58.6773
 11
2.70557
 21
58.7605
  0
LINE
  8
0
 10
2.70557
 20
58.7605
 11
2.76717
 21
58.8399
  0
LINE
  8
0
 10
2.76717
 20
58.8399
 11
2.83365
 21
58.9153
  0
LINE
  8
0
 10
2.83365
 20
58.9153
 11
2.90472
 21
58.9863
  0
LINE
  8
0
 10
2.90472
 20
58.9863
 11
2.98012
 21
59.0528
  0
LINE
  8
0
 10
2.98012
 20
59.0528
 11
3.05954
 21
59.1144
  0
LINE
  8
0
 10
3.05954
 20
59.1144
 11
3.14267
 21
59.1709
  0
LINE
  8
0
 10
3.14267
 20
59.1709
 11
3.22919
 21
59.2221
  0
LINE
  8
0
 10
3.22919
 20
59.2221
 11
3.31874
 21
59.2677
  0
LINE
  8
0
 10
3.31874
 20
59.2677
 11
3.411
 21
59.3076
  0
LINE
  8
0
 10
3.411
 20
59.3076
 11
3.50557
 21
59.3417
  0
LINE
  8
0
 10
3.50557
 20
59.3417
 11
3.60208
 21
59.3697
  0
LINE
  8
0
 10
3.60208
 20
59.3697
 11
3.70018
 21
59.3916
  0
LINE
  8
0
 10
3.70018
 20
59.3916
 11
3.79945
 21
59.4074
  0
LINE
  8
0
 10
3.79945
 20
59.4074
 11
3.89952
 21
59.4168
  0
LINE
  8
0
 10
3.89952
 20
59.4168
 11
4
 21
59.42
  0
LINE
  8
0
 10
4
 20
59.42
 11
4.10046
 21
59.4168
  0
LINE
  8
0
 10
4.10046
 20
59.4168
 11
4.20053
 21
59.4074
  0
LINE
  8
0
 10
4.20053
 20
59.4074
 11
4.2998
 21
59.3916
  0
LINE
  8
0
 10
4.2998
 20
59.3916
 11
4.3979
 21
59.3697
  0
LINE
  8
0
 10
4.3979
 20
59.3697
 11
4.49442
 21
59.3417
  0
LINE
  8
0
 10
4.49442
 20
59.3417
 11
4.58899
 21
59.3076
  0
LINE
  8
0
 10
4.58899
 20
59.3076
 11
4.68124
 21
59.2677
  0
LINE
  8
0
 10
4.68124
 20
59.2677
 11
4.7708
 21
59.2221
  0
LINE
  8
0
 10
4.7708
 20
59.2221
 11
4.85732
 21
59.1709
  0
LINE
  8
0
 10
4.85732
 20
59.1709
 11
4.94044
 21
59.1144
  0
LINE
  8
0
 10
4.94044
 20
59.1144
 11
5.01987
 21
59.0528
  0
LINE
  8
0
 10
5.01987
 20
59.0528
 11
5.09526
 21
58.9863
  0
LINE
  8
0
 10
5.09526
 20
58.9863
 11
5.16634
 21
58.9153
  0
LINE
  8
0
 10
5.16634
 20
58.9153
 11
5.23282
 21
58.8399
  0
LINE
  8
0
 10
5.23282
 20
58.8399
 11
5.29442
 21
58.7605
  0
LINE
  8
0
 10
5.29442
 20
58.7605
 11
5.35092
 21
58.6773
  0
LINE
  8
0
 10
5.35092
 20
58.6773
 11
5.40208
 21
58.5908
  0
LINE
  8
0
 10
5.40208
 20
58.5908
 11
5.44771
 21
58.5012
  0
LINE
  8
0
 10
5.44771
 20
58.5012
 11
5.48764
 21
58.409
  0
LINE
  8
0
 10
5.48764
 20
58.409
 11
5.52168
 21
58.3144
  0
LINE
  8
0
 10
5.52168
 20
58.3144
 11
5.54973
 21
58.2179
  0
LINE
  8
0
 10
5.54973
 20
58.2179
 11
5.57166
 21
58.1198
  0
LINE
  8
0
 10
5.57166
 20
58.1198
 11
5.58737
 21
58.0205
  0
LINE
  8
0
 10
5.58737
 20
58.0205
 11
5.59683
 21
57.9205
  0
LINE
  8
0
 10
5.59683
 20
57.9205
 11
5.59999
 21
57.82
  0
LINE
  8
0
 10
5.59999
 20
57.82
 11
5.59683
 21
57.7195
  0
LINE
  8
0
 10
5.59683
 20
57.7195
 11
5.58737
 21
57.6195
  0
LINE
  8
0
 10
5.58737
 20
57.6195
 11
5.57166
 21
57.5202
  0
LINE
  8
0
 10
5.57166
 20
57.5202
 11
5.54973
 21
57.4221
  0
LINE
  8
0
 10
5.54973
 20
57.4221
 11
5.52168
 21
57.3256
  0
LINE
  8
0
 10
5.52168
 20
57.3256
 11
5.48764
 21
57.231
  0
LINE
  8
0
 10
5.48764
 20
57.231
 11
5.44771
 21
57.1387
  0
LINE
  8
0
 10
5.44771
 20
57.1387
 11
5.40208
 21
57.0492
  0
LINE
  8
0
 10
5.40208
 20
57.0492
 11
5.35092
 21
56.9627
  0
LINE
  8
0
 10
5.35092
 20
56.9627
 11
5.29442
 21
56.8795
  0
LINE
  8
0
 10
5.29442
 20
56.8795
 11
5.23282
 21
56.8001
  0
LINE
  8
0
 10
5.23282
 20
56.8001
 11
5.16634
 21
56.7247
  0
LINE
  8
0
 10
5.16634
 20
56.7247
 11
5.09526
 21
56.6536
  0
LINE
  8
0
 10
5.09526
 20
56.6536
 11
5.01987
 21
56.5872
  0
LINE
  8
0
 10
5.01987
 20
56.5872
 11
4.94044
 21
56.5256
  0
LINE
  8
0
 10
4.94044
 20
56.5256
 11
4.85732
 21
56.4691
  0
LINE
  8
0
 10
4.85732
 20
56.4691
 11
4.7708
 21
56.4179
  0
LINE
  8
0
 10
4.7708
 20
56.4179
 11
4.68124
 21
56.3723
  0
LINE
  8
0
 10
4.68124
 20
56.3723
 11
4.58899
 21
56.3324
  0
LINE
  8
0
 10
4.58899
 20
56.3324
 11
4.49442
 21
56.2983
  0
LINE
  8
0
 10
4.49442
 20
56.2983
 11
4.3979
 21
56.2703
  0
LINE
  8
0
 10
4.3979
 20
56.2703
 11
4.2998
 21
56.2483
  0
LINE
  8
0
 10
4.2998
 20
56.2483
 11
4.20053
 21
56.2326
  0
LINE
  8
0
 10
4.20053
 20
56.2326
 11
4.10046
 21
56.2231
  0
LINE
  8
0
 10
4.10046
 20
56.2231
 11
4
 21
56.22
  0
LINE
  8
0
 10
4
 20
56.22
 11
3.89952
 21
56.2231
  0
LINE
  8
0
 10
57.7195
 20
56.2231
 11
57.6195
 21
56.2326
  0
LINE
  8
0
 10
57.6195
 20
56.2326
 11
57.5202
 21
56.2483
  0
LINE
  8
0
 10
57.5202
 20
56.2483
 11
57.4221
 21
56.2703
  0
LINE
  8
0
 10
57.4221
 20
56.2703
 11
57.3256
 21
56.2983
  0
LINE
  8
0
 10
57.3256
 20
56.2983
 11
57.231
 21
56.3324
  0
LINE
  8
0
 10
57.231
 20
56.3324
 11
57.1387
 21
56.3723
  0
LINE
  8
0
 10
57.1387
 20
56.3723
 11
57.0492
 21
56.4179
  0
LINE
  8
0
 10
57.0492
 20
56.4179
 11
56.9627
 21
56.4691
  0
LINE
  8
0
 10
56.9627
 20
56.4691
 11
56.8795
 21
56.5256
  0
LINE
  8
0
 10
56.8795
 20
56.5256
 11
56.8001
 21
56.5872
  0
LINE
  8
0
 10
56.8001
 20
56.5872
 11
56.7247
 21
56.6536
  0
LINE
  8
0
 10
56.7247
 20
56.6536
 11
56.6536
 21
56.7247
  0
LINE
  8
0
 10
56.6536
 20
56.7247
 11
56.5872
 21
56.8001
  0
LINE
  8
0
 10
56.5872
 20
56.8001
 11
56.5256
 21
56.8795
  0
LINE
  8
0
 10
56.5256
 20
56.8795
 11
56.4691
 21
56.9627
  0
LINE
  8
0
 10
56.4691
 20
56.9627
 11
56.4179
 21
57.0492
  0
LINE
  8
0
 10
56.4179
 20
57.0492
 11
56.3723
 21
57.1387
  0
LINE
  8
0
 10
56.3723
 20
57.1387
 11
56.3324
 21
57.231
  0
LINE
  8
0
 10
56.3324
 20
57.231
 11
56.2983
 21
57.3256
  0
LINE
  8
0
 10
56.2983
 20
57.3256
 11
56.2703
 21
57.4221
  0
LINE
  8
0
 10
56.2703
 20
57.4221
 11
56.2483
 21
57.5202
  0
LINE
  8
0
 10
56.2483
 20
57.5202
 11
56.2326
 21
57.6195
  0
LINE
  8
0
 10
56.2326
 20
57.6195
 11
56.2231
 21
57.7195
  0
LINE
  8
0
 10
56.2231
 20
57.7195
 11
56.22
 21
57.82
  0
LINE
  8
0
 10
56.22
 20
57.82
 11
56.2231
 21
57.9205
  0
LINE
  8
0
 10
56.2231
 20
57.9205
 11
56.2326
 21
58.0205
  0
LINE
  8
0
 10
56.2326
 20
58.0205
 11
56.2483
 21
58.1198
  0
LINE
  8
0
 10
56.2483
 20
58.1198
 11
56.2703
 21
58.2179
  0
LINE
  8
0
 10
56.2703
 20
58.2179
 11
56.2983
 21
58.3144
  0
LINE
  8
0
 10
56.2983
 20
58.3144
 11
56.3324
 21
58.409
  0
LINE
  8
0
 10
56.3324
 20
58.409
 11
56.3723
 21
58.5012
  0
LINE
  8
0
 10
56.3723
 20
58.5012
 11
56.4179
 21
58.5908
  0
LINE
  8
0
 10
56.4179
 20
58.5908
 11
56.4691
 21
58.6773
  0
LINE
  8
0
 10
56.4691
 20
58.6773
 11
56.5256
 21
58.7605
  0
LINE
  8
0
 10
56.5256
 20
58.7605
 11
56.5872
 21
58.8399
  0
LINE
  8
0
 10
56.5872
 20
58.8399
 11
56.6536
 21
58.9153
  0
LINE
  8
0
 10
56.6536
 20
58.9153
 11
56.7247
 21
58.9863
  0
LINE
  8
0
 10
56.7247
 20
58.9863
 11
56.8001
 21
59.0528
  0
LINE
  8
0
 10
56.8001
 20
59.0528
 11
56.8795
 21
59.1144
  0
LINE
  8
0
 10
56.8795
 20
59.1144
 11
56.9627
 21
59.1709
  0
LINE
  8
0
 10
56.9627
 20
59.1709
 11
57.0492
 21
59.2221
  0
LINE
  8
0
 10
57.0492
 20
59.2221
 11
57.1387
 21
59.2677
  0
LINE
  8
0
 10
57.1387
 20
59.2677
 11
57.231
 21
59.3076
  0
LINE
  8
0
 10
57.231
 20
59.3076
 11
57.3256
 21
59.3417
  0
LINE
  8
0
 10
57.3256
 20
59.3417
 11
57.4221
 21
59.3697
  0
LINE
  8
0
 10
57.4221
 20
59.3697
 11
57.5202
 21
59.3916
  0
LINE
  8
0
 10
57.5202
 20
59.3916
 11
57.6195
 21
59.4074
  0
LINE
  8
0
 10
57.6195
 20
59.4074
 11
57.7195
 21
59.4168
  0
LINE
  8
0
 10
57.7195
 20
59.4168
 11
57.82
 21
59.42
  0
LINE
  8
0
 10
57.82
 20
59.42
 11
57.9205
 21
59.4168
  0
LINE
  8
0
 10
57.9205
 20
59.4168
 11
58.0205
 21
59.4074
  0
LINE
  8
0
 10
58.0205
 20
59.4074
 11
58.1198
 21
59.3916
  0
LINE
  8
0
 10
58.1198
 20
59.3916
 11
58.2179
 21
59.3697
  0
LINE
  8
0
 10
58.2179
 20
59.3697
 11
58.3144
 21
59.3417
  0
LINE
  8
0
 10
58.3144
 20
59.3417
 11
58.409
 21
59.3076
  0
LINE
  8
0
 10
58.409
 20
59.3076
 11
58.5012
 21
59.2677
  0
LINE
  8
0
 10
58.5012
 20
59.2677
 11
58.5908
 21
59.2221
  0
LINE
  8
0
 10
58.5908
 20
59.2221
 11
58.6773
 21
59.1709
  0
LINE
  8
0
 10
58.6773
 20
59.1709
 11
58.7605
 21
59.1144
  0
LINE
  8
0
 10
58.7605
 20
59.1144
 11
58.8399
 21
59.0528
  0
LINE
  8
0
 10
58.8399
 20
59.0528
 11
58.9153
 21
58.9863
  0
LINE
  8
0
 10
58.9153
 20
58.9863
 11
58.9863
 21
58.9153
  0
LINE
  8
0
 10
58.9863
 20
58.9153
 11
59.0528
 21
58.8399
  0
LINE
  8
0
 10
59.0528
 20
58.8399
 11
59.1144
 21
58.7605
  0
LINE
  8
0
 10
59.1144
 20
58.7605
 11
59.1709
 21
58.6773
  0
LINE
  8
0
 10
59.1709
 20
58.6773
 11
59.2221
 21
58.5908
  0
LINE
  8
0
 10
59.2221
 20
58.5908
 11
59.2677
 21
58.5012
  0
LINE
  8
0
 10
59.2677
 20
58.5012
 11
59.3076
 21
58.409
  0
LINE
  8
0
 10
59.3076
 20
58.409
 11
59.3417
 21
58.3144
  0
LINE
  8
0
 10
59.3417
 20
58.3144
 11
59.3697
 21
58.2179
  0
LINE
  8
0
 10
59.3697
 20
58.2179
 11
59.3916
 21
58.1198
  0
LINE
  8
0
 10
59.3916
 20
58.1198
 11
59.4074
 21
58.0205
  0
LINE
  8
0
 10
59.4074
 20
58.0205
 11
59.4168
 21
57.9205
  0
LINE
  8
0
 10
59.4168
 20
57.9205
 11
59.42
 21
57.82
  0
LINE
  8
0
 10
59.42
 20
57.82
 11
59.4168
 21
57.7195
  0
LINE
  8
0
 10
59.4168
 20
57.7195
 11
59.4074
 21
57.6195
  0
LINE
  8
0
 10
59.4074
 20
57.6195
 11
59.3916
 21
57.5202
  0
LINE
  8
0
 10
59.3916
 20
57.5202
 11
59.3697
 21
57.4221
  0
LINE
  8
0
 10
59.3697
 20
57.4221
 11
59.3417
 21
57.3256
  0
LINE
  8
0
 10
59.3417
 20
57.3256
 11
59.3076
 21
57.231
  0
LINE
  8
0
 10
59.3076
 20
57.231
 11
59.2677
 21
57.1387
  0
LINE
  8
0
 10
59.2677
 20
57.1387
 11
59.2221
 21
57.0492
  0
LINE
  8
0
 10
59.2221
 20
57.0492
 11
59.1709
 21
56.9627
  0
LINE
  8
0
 10
59.1709
 20
56.9627
 11
59.1144
 21
56.8795
  0
LINE
  8
0
 10
59.1144
 20
56.8795
 11
59.0528
 21
56.8001
  0
LINE
  8
0
 10
59.0528
 20
56.8001
 11
58.9863
 21
56.7247
  0
LINE
  8
0
 10
58.9863
 20
56.7247
 11
58.9153
 21
56.6536
  0
LINE
  8
0
 10
58.9153
 20
56.6536
 11
58.8399
 21
56.5872
  0
LINE
  8
0
 10
58.8399
 20
56.5872
 11
58.7605
 21
56.5256
  0
LINE
  8
0
 10
58.7605
 20
56.5256
 11
58.6773
 21
56.4691
  0
LINE
  8
0
 10
58.6773
 20
56.4691
 11
58.5908
 21
56.4179
  0
LINE
  8
0
 10
58.5908
 20
56.4179
 11
58.5012
 21
56.3723
  0
LINE
  8
0
 10
58.5012
 20
56.3723
 11
58.409
 21
56.3324
  0
LINE
  8
0
 10
58.409
 20
56.3324
 11
58.3144
 21
56.2983
  0
LINE
  8
0
 10
58.3144
 20
56.2983
 11
58.2179
 21
56.2703
  0
LINE
  8
0
 10
58.2179
 20
56.2703
 11
58.1198
 21
56.2483
  0
LINE
  8
0
 10
58.1198
 20
56.2483
 11
58.0205
 21
56.2326
  0
LINE
  8
0
 10
58.0205
 20
56.2326
 11
57.9205
 21
56.2231
  0
LINE
  8
0
 10
57.9205
 20
56.2231
 11
57.82
 21
56.22
  0
LINE
  8
0
 10
57.82
 20
56.22
 11
57.7195
 21
56.2231
  0
LINE
  8
0
 10
30.8095
 20
56.2231
 11
30.7095
 21
56.2326
  0
LINE
  8
0
 10
30.7095
 20
56.2326
 11
30.6102
 21
56.2483
  0
LINE
  8
0
 10
30.6102
 20
56.2483
 11
30.5121
 21
56.2703
  0
LINE
  8
0
 10
30.5121
 20
56.2703
 11
30.4156
 21
56.2983
  0
LINE
  8
0
 10
30.4156
 20
56.2983
 11
30.321
 21
56.3324
  0
LINE
  8
0
 10
30.321
 20
56.3324
 11
30.2287
 21
56.3723
  0
LINE
  8
0
 10
30.2287
 20
56.3723
 11
30.1392
 21
56.4179
  0
LINE
  8
0
 10
30.1392
 20
56.4179
 11
30.0527
 21
56.4691
  0
LINE
  8
0
 10
30.0527
 20
56.4691
 11
29.9695
 21
56.5256
  0
LINE
  8
0
 10
29.9695
 20
56.5256
 11
29.8901
 21
56.5872
  0
LINE
  8
0
 10
29.8901
 20
56.5872
 11
29.8147
 21
56.6536
  0
LINE
  8
0
 10
29.8147
 20
56.6536
 11
29.7436
 21
56.7247
  0
LINE
  8
0
 10
29.7436
 20
56.7247
 11
29.6772
 21
56.8001
  0
LINE
  8
0
 10
29.6772
 20
56.8001
 11
29.6156
 21
56.8795
  0
LINE
  8
0
 10
29.6156
 20
56.8795
 11
29.5591
 21
56.9627
  0
LINE
  8
0
 10
29.5591
 20
56.9627
 11
29.5079
 21
57.0492
  0
LINE
  8
0
 10
29.5079
 20
57.0492
 11
29.4623
 21
57.1387
  0
LINE
  8
0
 10
29.4623
 20
57.1387
 11
29.4223
 21
57.231
  0
LINE
  8
0
 10
29.4223
 20
57.231
 11
29.3883
 21
57.3256
  0
LINE
  8
0
 10
29.3883
 20
57.3256
 11
29.3603
 21
57.4221
  0
LINE
  8
0
 10
29.3603
 20
57.4221
 11
29.3383
 21
57.5202
  0
LINE
  8
0
 10
29.3383
 20
57.5202
 11
29.3226
 21
57.6195
  0
LINE
  8
0
 10
29.3226
 20
57.6195
 11
29.3132
 21
57.7195
  0
LINE
  8
0
 10
29.3132
 20
57.7195
 11
29.31
 21
57.82
  0
LINE
  8
0
 10
29.31
 20
57.82
 11
29.3132
 21
57.9205
  0
LINE
  8
0
 10
29.3132
 20
57.9205
 11
29.3226
 21
58.0205
  0
LINE
  8
0
 10
29.3226
 20
58.0205
 11
29.3383
 21
58.1198
  0
LINE
  8
0
 10
29.3383
 20
58.1198
 11
29.3603
 21
58.2179
  0
LINE
  8
0
 10
29.3603
 20
58.2179
 11
29.3883
 21
58.3144
  0
LINE
  8
0
 10
29.3883
 20
58.3144
 11
29.4223
 21
58.409
  0
LINE
  8
0
 10
29.4223
 20
58.409
 11
29.4623
 21
58.5012
  0
LINE
  8
0
 10
29.4623
 20
58.5012
 11
29.5079
 21
58.5908
  0
LINE
  8
0
 10
29.5079
 20
58.5908
 11
29.5591
 21
58.6773
  0
LINE
  8
0
 10
29.5591
 20
58.6773
 11
29.6156
 21
58.7605
  0
LINE
  8
0
 10
29.6156
 20
58.7605
 11
29.6772
 21
58.8399
  0
LINE
  8
0
 10
29.6772
 20
58.8399
 11
29.7436
 21
58.9153
  0
LINE
  8
0
 10
29.7436
 20
58.9153
 11
29.8147
 21
58.9863
  0
LINE
  8
0
 10
29.8147
 20
58.9863
 11
29.8901
 21
59.0528
  0
LINE
  8
0
 10
29.8901
 20
59.0528
 11
29.9695
 21
59.1144
  0
LINE
  8
0
 10
29.9695
 20
59.1144
 11
30.0527
 21
59.1709
  0
LINE
  8
0
 10
30.0527
 20
59.1709
 11
30.1392
 21
59.2221
  0
LINE
  8
0
 10
30.1392
 20
59.2221
 11
30.2287
 21
59.2677
  0
LINE
  8
0
 10
30.2287
 20
59.2677
 11
30.321
 21
59.3076
  0
LINE
  8
0
 10
30.321
 20
59.3076
 11
30.4156
 21
59.3417
  0
LINE
  8
0
 10
30.4156
 20
59.3417
 11
30.5121
 21
59.3697
  0
LINE
  8
0
 10
30.5121
 20
59.3697
 11
30.6102
 21
59.3916
  0
LINE
  8
0
 10
30.6102
 20
59.3916
 11
30.7095
 21
59.4074
  0
LINE
  8
0
 10
30.7095
 20
59.4074
 11
30.8095
 21
59.4168
  0
LINE
  8
0
 10
30.8095
 20
59.4168
 11
30.91
 21
59.42
  0
LINE
  8
0
 10
30.91
 20
59.42
 11
31.0105
 21
59.4168
  0
LINE
  8
0
 10
31.0105
 20
59.4168
 11
31.1105
 21
59.4074
  0
LINE
  8
0
 10
31.1105
 20
59.4074
 11
31.2098
 21
59.3916
  0
LINE
  8
0
 10
31.2098
 20
59.3916
 11
31.3079
 21
59.3697
  0
LINE
  8
0
 10
31.3079
 20
59.3697
 11
31.4044
 21
59.3417
  0
LINE
  8
0
 10
31.4044
 20
59.3417
 11
31.499
 21
59.3076
  0
LINE
  8
0
 10
31.499
 20
59.3076
 11
31.5912
 21
59.2677
  0
LINE
  8
0
 10
31.5912
 20
59.2677
 11
31.6808
 21
59.2221
  0
LINE
  8
0
 10
31.6808
 20
59.2221
 11
31.7673
 21
59.1709
  0
LINE
  8
0
 10
31.7673
 20
59.1709
 11
31.8504
 21
59.1144
  0
LINE
  8
0
 10
31.8504
 20
59.1144
 11
31.9299
 21
59.0528
  0
LINE
  8
0
 10
31.9299
 20
59.0528
 11
32.0053
 21
58.9863
  0
LINE
  8
0
 10
32.0053
 20
58.9863
 11
32.0763
 21
58.9153
  0
LINE
  8
0
 10
32.0763
 20
58.9153
 11
32.1428
 21
58.8399
  0
LINE
  8
0
 10
32.1428
 20
58.8399
 11
32.2044
 21
58.7605
  0
LINE
  8
0
 10
32.2044
 20
58.7605
 11
32.2609
 21
58.6773
  0
LINE
  8
0
 10
32.2609
 20
58.6773
 11
32.3121
 21
58.5908
  0
LINE
  8
0
 10
32.3121
 20
58.5908
 11
32.3577
 21
58.5012
  0
LINE
  8
0
 10
32.3577
 20
58.5012
 11
32.3976
 21
58.409
  0
LINE
  8
0
 10
32.3976
 20
58.409
 11
32.4317
 21
58.3144
  0
LINE
  8
0
 10
32.4317
 20
58.3144
 11
32.4597
 21
58.2179
  0
LINE
  8
0
 10
32.4597
 20
58.2179
 11
32.4817
 21
58.1198
  0
LINE
  8
0
 10
32.4817
 20
58.1198
 11
32.4974
 21
58.0205
  0
LINE
  8
0
 10
32.4974
 20
58.0205
 11
32.5068
 21
57.9205
  0
LINE
  8
0
 10
32.5068
 20
57.9205
 11
32.51
 21
57.82
  0
LINE
  8
0
 10
32.51
 20
57.82
 11
32.5068
 21
57.7195
  0
LINE
  8
0
 10
32.5068
 20
57.7195
 11
32.4974
 21
57.6195
  0
LINE
  8
0
 10
32.4974
 20
57.6195
 11
32.4817
 21
57.5202
  0
LINE
  8
0
 10
32.4817
 20
57.5202
 11
32.4597
 21
57.4221
  0
LINE
  8
0
 10
32.4597
 20
57.4221
 11
32.4317
 21
57.3256
  0
LINE
  8
0
 10
32.4317
 20
57.3256
 11
32.3976
 21
57.231
  0
LINE
  8
0
 10
32.3976
 20
57.231
 11
32.3577
 21
57.1387
  0
LINE
  8
0
 10
32.3577
 20
57.1387
 11
32.3121
 21
57.0492
  0
LINE
  8
0
 10
32.3121
 20
57.0492
 11
32.2609
 21
56.9627
  0
LINE
  8
0
 10
32.2609
 20
56.9627
 11
32.2044
 21
56.8795
  0
LINE
  8
0
 10
32.2044
 20
56.8795
 11
32.1428
 21
56.8001
  0
LINE
  8
0
 10
32.1428
 20
56.8001
 11
32.0763
 21
56.7247
  0
LINE
  8
0
 10
32.0763
 20
56.7247
 11
32.0053
 21
56.6536
  0
LINE
  8
0
 10
32.0053
 20
56.6536
 11
31.9299
 21
56.5872
  0
LINE
  8
0
 10
31.9299
 20
56.5872
 11
31.8504
 21
56.5256
  0
LINE
  8
0
 10
31.8504
 20
56.5256
 11
31.7673
 21
56.4691
  0
LINE
  8
0
 10
31.7673
 20
56.4691
 11
31.6808
 21
56.4179
  0
LINE
  8
0
 10
31.6808
 20
56.4179
 11
31.5912
 21
56.3723
  0
LINE
  8
0
 10
31.5912
 20
56.3723
 11
31.499
 21
56.3324
  0
LINE
  8
0
 10
31.499
 20
56.3324
 11
31.4044
 21
56.2983
  0
LINE
  8
0
 10
31.4044
 20
56.2983
 11
31.3079
 21
56.2703
  0
LINE
  8
0
 10
31.3079
 20
56.2703
 11
31.2098
 21
56.2483
  0
LINE
  8
0
 10
31.2098
 20
56.2483
 11
31.1105
 21
56.2326
  0
LINE
  8
0
 10
31.1105
 20
56.2326
 11
31.0105
 21
56.2231
  0
LINE
  8
0
 10
31.0105
 20
56.2231
 11
30.91
 21
56.22
  0
LINE
  8
0
 10
30.91
 20
56.22
 11
30.8095
 21
56.2231
  0
LINE
  8
0
 10
3.89952
 20
29.3132
 11
3.79945
 21
29.3226
  0
LINE
  8
0
 10
3.79945
 20
29.3226
 11
3.70018
 21
29.3383
  0
LINE
  8
0
 10
3.70018
 20
29.3383
 11
3.60208
 21
29.3603
  0
LINE
  8
0
 10
3.60208
 20
29.3603
 11
3.50557
 21
29.3883
  0
LINE
  8
0
 10
3.50557
 20
29.3883
 11
3.411
 21
29.4223
  0
LINE
  8
0
 10
3.411
 20
29.4223
 11
3.31874
 21
29.4623
  0
LINE
  8
0
 10
3.31874
 20
29.4623
 11
3.22919
 21
29.5079
  0
LINE
  8
0
 10
3.22919
 20
29.5079
 11
3.14267
 21
29.5591
  0
LINE
  8
0
 10
3.14267
 20
29.5591
 11
3.05954
 21
29.6156
  0
LINE
  8
0
 10
3.05954
 20
29.6156
 11
2.98012
 21
29.6772
  0
LINE
  8
0
 10
2.98012
 20
29.6772
 11
2.90472
 21
29.7436
  0
LINE
  8
0
 10
2.90472
 20
29.7436
 11
2.83365
 21
29.8147
  0
LINE
  8
0
 10
2.83365
 20
29.8147
 11
2.76717
 21
29.8901
  0
LINE
  8
0
 10
2.76717
 20
29.8901
 11
2.70557
 21
29.9695
  0
LINE
  8
0
 10
2.70557
 20
29.9695
 11
2.64906
 21
30.0527
  0
LINE
  8
0
 10
2.64906
 20
30.0527
 11
2.5979
 21
30.1392
  0
LINE
  8
0
 10
2.5979
 20
30.1392
 11
2.55228
 21
30.2287
  0
LINE
  8
0
 10
2.55228
 20
30.2287
 11
2.51234
 21
30.321
  0
LINE
  8
0
 10
2.51234
 20
30.321
 11
2.4783
 21
30.4156
  0
LINE
  8
0
 10
2.4783
 20
30.4156
 11
2.45026
 21
30.5121
  0
LINE
  8
0
 10
2.45026
 20
30.5121
 11
2.42833
 21
30.6102
  0
LINE
  8
0
 10
2.42833
 20
30.6102
 11
2.41261
 21
30.7095
  0
LINE
  8
0
 10
2.41261
 20
30.7095
 11
2.40315
 21
30.8095
  0
LINE
  8
0
 10
2.40315
 20
30.8095
 11
2.39999
 21
30.91
  0
LINE
  8
0
 10
2.39999
 20
30.91
 11
2.40315
 21
31.0105
  0
LINE
  8
0
 10
2.40315
 20
31.0105
 11
2.41261
 21
31.1105
  0
LINE
  8
0
 10
2.41261
 20
31.1105
 11
2.42833
 21
31.2098
  0
LINE
  8
0
 10
2.42833
 20
31.2098
 11
2.45026
 21
31.3079
  0
LINE
  8
0
 10
2.45026
 20
31.3079
 11
2.4783
 21
31.4044
  0
LINE
  8
0
 10
2.4783
 20
31.4044
 11
2.51234
 21
31.499
  0
LINE
  8
0
 10
2.51234
 20
31.499
 11
2.55228
 21
31.5912
  0
LINE
  8
0
 10
2.55228
 20
31.5912
 11
2.5979
 21
31.6808
  0
LINE
  8
0
 10
2.5979
 20
31.6808
 11
2.64906
 21
31.7673
  0
LINE
  8
0
 10
2.64906
 20
31.7673
 11
2.70557
 21
31.8504
  0
LINE
  8
0
 10
2.70557
 20
31.8504
 11
2.76717
 21
31.9299
  0
LINE
  8
0
 10
2.76717
 20
31.9299
 11
2.83365
 21
32.0053
  0
LINE
  8
0
 10
2.83365
 20
32.0053
 11
2.90472
 21
32.0763
  0
LINE
  8
0
 10
2.90472
 20
32.0763
 11
2.98012
 21
32.1428
  0
LINE
  8
0
 10
2.98012
 20
32.1428
 11
3.05954
 21
32.2044
  0
LINE
  8
0
 10
3.05954
 20
32.2044
 11
3.14267
 21
32.2609
  0
LINE
  8
0
 10
3.14267
 20
32.2609
 11
3.22919
 21
32.3121
  0
LINE
  8
0
 10
3.22919
 20
32.3121
 11
3.31874
 21
32.3577
  0
LINE
  8
0
 10
3.31874
 20
32.3577
 11
3.411
 21
32.3976
  0
LINE
  8
0
 10
3.411
 20
32.3976
 11
3.50557
 21
32.4317
  0
LINE
  8
0
 10
3.50557
 20
32.4317
 11
3.60208
 21
32.4597
  0
LINE
  8
0
 10
3.60208
 20
32.4597
 11
3.70018
 21
32.4817
  0
LINE
  8
0
 10
3.70018
 20
32.4817
 11
3.79945
 21
32.4974
  0
LINE
  8
0
 10
3.79945
 20
32.4974
 11
3.89952
 21
32.5068
  0
LINE
  8
0
 10
3.89952
 20
32.5068
 11
4
 21
32.51
  0
LINE
  8
0
 10
4
 20
32.51
 11
4.10046
 21
32.5068
  0
LINE
  8
0
 10
4.10046
 20
32.5068
 11
4.20053
 21
32.4974
  0
LINE
  8
0
 10
4.20053
 20
32.4974
 11
4.2998
 21
32.4817
  0
LINE
  8
0
 10
4.2998
 20
32.4817
 11
4.3979
 21
32.4597
  0
LINE
  8
0
 10
4.3979
 20
32.4597
 11
4.49442
 21
32.4317
  0
LINE
  8
0
 10
4.49442
 20
32.4317
 11
4.58899
 21
32.3976
  0
LINE
  8
0
 10
4.58899
 20
32.3976
 11
4.68124
 21
32.3577
  0
LINE
  8
0
 10
4.68124
 20
32.3577
 11
4.7708
 21
32.3121
  0
LINE
  8
0
 10
4.7708
 20
32.3121
 11
4.85732
 21
32.2609
  0
LINE
  8
0
 10
4.85732
 20
32.2609
 11
4.94044
 21
32.2044
  0
LINE
  8
0
 10
4.94044
 20
32.2044
 11
5.01987
 21
32.1428
  0
LINE
  8
0
 10
5.01987
 20
32.1428
 11
5.09526
 21
32.0763
  0
LINE
  8
0
 10
5.09526
 20
32.0763
 11
5.16634
 21
32.0053
  0
LINE
  8
0
 10
5.16634
 20
32.0053
 11
5.23282
 21
31.9299
  0
LINE
  8
0
 10
5.23282
 20
31.9299
 11
5.29442
 21
31.8504
  0
LINE
  8
0
 10
5.29442
 20
31.8504
 11
5.35092
 21
31.7673
  0
LINE
  8
0
 10
5.35092
 20
31.7673
 11
5.40208
 21
31.6808
  0
LINE
  8
0
 10
5.40208
 20
31.6808
 11
5.44771
 21
31.5912
  0
LINE
  8
0
 10
5.44771
 20
31.5912
 11
5.48764
 21
31.499
  0
LINE
  8
0
 10
5.48764
 20
31.499
 11
5.52168
 21
31.4044
  0
LINE
  8
0
 10
5.52168
 20
31.4044
 11
5.54973
 21
31.3079
  0
LINE
  8
0
 10
5.54973
 20
31.3079
 11
5.57166
 21
31.2098
  0
LINE
  8
0
 10
5.57166
 20
31.2098
 11
5.58737
 21
31.1105
  0
LINE
  8
0
 10
5.58737
 20
31.1105
 11
5.59683
 21
31.0105
  0
LINE
  8
0
 10
5.59683
 20
31.0105
 11
5.59999
 21
30.91
  0
LINE
  8
0
 10
5.59999
 20
30.91
 11
5.59683
 21
30.8095
  0
LINE
  8
0
 10
5.59683
 20
30.8095
 11
5.58737
 21
30.7095
  0
LINE
  8
0
 10
5.58737
 20
30.7095
 11
5.57166
 21
30.6102
  0
LINE
  8
0
 10
5.57166
 20
30.6102
 11
5.54973
 21
30.5121
  0
LINE
  8
0
 10
5.54973
 20
30.5121
 11
5.52168
 21
30.4156
  0
LINE
  8
0
 10
5.52168
 20
30.4156
 11
5.48764
 21
30.321
  0
LINE
  8
0
 10
5.48764
 20
30.321
 11
5.44771
 21
30.2287
  0
LINE
  8
0
 10
5.44771
 20
30.2287
 11
5.40208
 21
30.1392
  0
LINE
  8
0
 10
5.40208
 20
30.1392
 11
5.35092
 21
30.0527
  0
LINE
  8
0
 10
5.35092
 20
30.0527
 11
5.29442
 21
29.9695
  0
LINE
  8
0
 10
5.29442
 20
29.9695
 11
5.23282
 21
29.8901
  0
LINE
  8
0
 10
5.23282
 20
29.8901
 11
5.16634
 21
29.8147
  0
LINE
  8
0
 10
5.16634
 20
29.8147
 11
5.09526
 21
29.7436
  0
LINE
  8
0
 10
5.09526
 20
29.7436
 11
5.01987
 21
29.6772
  0
LINE
  8
0
 10
5.01987
 20
29.6772
 11
4.94044
 21
29.6156
  0
LINE
  8
0
 10
4.94044
 20
29.6156
 11
4.85732
 21
29.5591
  0
LINE
  8
0
 10
4.85732
 20
29.5591
 11
4.7708
 21
29.5079
  0
LINE
  8
0
 10
4.7708
 20
29.5079
 11
4.68124
 21
29.4623
  0
LINE
  8
0
 10
4.68124
 20
29.4623
 11
4.58899
 21
29.4223
  0
LINE
  8
0
 10
4.58899
 20
29.4223
 11
4.49442
 21
29.3883
  0
LINE
  8
0
 10
4.49442
 20
29.3883
 11
4.3979
 21
29.3603
  0
LINE
  8
0
 10
4.3979
 20
29.3603
 11
4.2998
 21
29.3383
  0
LINE
  8
0
 10
4.2998
 20
29.3383
 11
4.20053
 21
29.3226
  0
LINE
  8
0
 10
4.20053
 20
29.3226
 11
4.10046
 21
29.3132
  0
LINE
  8
0
 10
4.10046
 20
29.3132
 11
4
 21
29.31
  0
LINE
  8
0
 10
4
 20
29.31
 11
3.89952
 21
29.3132
  0
LINE
  8
0
 10
57.7195
 20
29.3132
 11
57.6195
 21
29.3226
  0
LINE
  8
0
 10
57.6195
 20
29.3226
 11
57.5202
 21
29.3383
  0
LINE
  8
0
 10
57.5202
 20
29.3383
 11
57.4221
 21
29.3603
  0
LINE
  8
0
 10
57.4221
 20
29.3603
 11
57.3256
 21
29.3883
  0
LINE
  8
0
 10
57.3256
 20
29.3883
 11
57.231
 21
29.4223
  0
LINE
  8
0
 10
57.231
 20
29.4223
 11
57.1387
 21
29.4623
  0
LINE
  8
0
 10
57.1387
 20
29.4623
 11
57.0492
 21
29.5079
  0
LINE
  8
0
 10
57.0492
 20
29.5079
 11
56.9627
 21
29.5591
  0
LINE
  8
0
 10
56.9627
 20
29.5591
 11
56.8795
 21
29.6156
  0
LINE
  8
0
 10
56.8795
 20
29.6156
 11
56.8001
 21
29.6772
  0
LINE
  8
0
 10
56.8001
 20
29.6772
 11
56.7247
 21
29.7436
  0
LINE
  8
0
 10
56.7247
 20
29.7436
 11
56.6536
 21
29.8147
  0
LINE
  8
0
 10
56.6536
 20
29.8147
 11
56.5872
 21
29.8901
  0
LINE
  8
0
 10
56.5872
 20
29.8901
 11
56.5256
 21
29.9695
  0
LINE
  8
0
 10
56.5256
 20
29.9695
 11
56.4691
 21
30.0527
  0
LINE
  8
0
 10
56.4691
 20
30.0527
 11
56.4179
 21
30.1392
  0
LINE
  8
0
 10
56.4179
 20
30.1392
 11
56.3723
 21
30.2287
  0
LINE
  8
0
 10
56.3723
 20
30.2287
 11
56.3324
 21
30.321
  0
LINE
  8
0
 10
56.3324
 20
30.321
 11
56.2983
 21
30.4156
  0
LINE
  8
0
 10
56.2983
 20
30.4156
 11
56.2703
 21
30.5121
  0
LINE
  8
0
 10
56.2703
 20
30.5121
 11
56.2483
 21
30.6102
  0
LINE
  8
0
 10
56.2483
 20
30.6102
 11
56.2326
 21
30.7095
  0
LINE
  8
0
 10
56.2326
 20
30.7095
 11
56.2231
 21
30.8095
  0
LINE
  8
0
 10
56.2231
 20
30.8095
 11
56.22
 21
30.91
  0
LINE
  8
0
 10
56.22
 20
30.91
 11
56.2231
 21
31.0105
  0
LINE
  8
0
 10
56.2231
 20
31.0105
 11
56.2326
 21
31.1105
  0
LINE
  8
0
 10
56.2326
 20
31.1105
 11
56.2483
 21
31.2098
  0
LINE
  8
0
 10
56.2483
 20
31.2098
 11
56.2703
 21
31.3079
  0
LINE
  8
0
 10
56.2703
 20
31.3079
 11
56.2983
 21
31.4044
  0
LINE
  8
0
 10
56.2983
 20
31.4044
 11
56.3324
 21
31.499
  0
LINE
  8
0
 10
56.3324
 20
31.499
 11
56.3723
 21
31.5912
  0
LINE
  8
0
 10
56.3723
 20
31.5912
 11
56.4179
 21
31.6808
  0
LINE
  8
0
 10
56.4179
 20
31.6808
 11
56.4691
 21
31.7673
  0
LINE
  8
0
 10
56.4691
 20
31.7673
 11
56.5256
 21
31.8504
  0
LINE
  8
0
 10
56.5256
 20
31.8504
 11
56.5872
 21
31.9299
  0
LINE
  8
0
 10
56.5872
 20
31.9299
 11
56.6536
 21
32.0053
  0
LINE
  8
0
 10
56.6536
 20
32.0053
 11
56.7247
 21
32.0763
  0
LINE
  8
0
 10
56.7247
 20
32.0763
 11
56.8001
 21
32.1428
  0
LINE
  8
0
 10
56.8001
 20
32.1428
 11
56.8795
 21
32.2044
  0
LINE
  8
0
 10
56.8795
 20
32.2044
 11
56.9627
 21
32.2609
  0
LINE
  8
0
 10
56.9627
 20
32.2609
 11
57.0492
 21
32.3121
  0
LINE
  8
0
 10
57.0492
 20
32.3121
 11
57.1387
 21
32.3577
  0
LINE
  8
0
 10
57.1387
 20
32.3577
 11
57.231
 21
32.3976
  0
LINE
  8
0
 10
57.231
 20
32.3976
 11
57.3256
 21
32.4317
  0
LINE
  8
0
 10
57.3256
 20
32.4317
 11
57.4221
 21
32.4597
  0
LINE
  8
0
 10
57.4221
 20
32.4597
 11
57.5202
 21
32.4817
  0
LINE
  8
0
 10
57.5202
 20
32.4817
 11
57.6195
 21
32.4974
  0
LINE
  8
0
 10
57.6195
 20
32.4974
 11
57.7195
 21
32.5068
  0
LINE
  8
0
 10
57.7195
 20
32.5068
 11
57.82
 21
32.51
  0
LINE
  8
0
 10
57.82
 20
32.51
 11
57.9205
 21
32.5068
  0
LINE
  8
0
 10
57.9205
 20
32.5068
 11
58.0205
 21
32.4974
  0
LINE
  8
0
 10
58.0205
 20
32.4974
 11
58.1198
 21
32.4817
  0
LINE
  8
0
 10
58.1198
 20
32.4817
 11
58.2179
 21
32.4597
  0
LINE
  8
0
 10
58.2179
 20
32.4597
 11
58.3144
 21
32.4317
  0
LINE
  8
0
 10
58.3144
 20
32.4317
 11
58.409
 21
32.3976
  0
LINE
  8
0
 10
58.409
 20
32.3976
 11
58.5012
 21
32.3577
  0
LINE
  8
0
 10
58.5012
 20
32.3577
 11
58.5908
 21
32.3121
  0
LINE
  8
0
 10
58.5908
 20
32.3121
 11
58.6773
 21
32.2609
  0
LINE
  8
0
 10
58.6773
 20
32.2609
 11
58.7605
 21
32.2044
  0
LINE
  8
0
 10
58.7605
 20
32.2044
 11
58.8399
 21
32.1428
  0
LINE
  8
0
 10
58.8399
 20
32.1428
 11
58.9153
 21
32.0763
  0
LINE
  8
0
 10
58.9153
 20
32.0763
 11
58.9863
 21
32.0053
  0
LINE
  8
0
 10
58.9863
 20
32.0053
 11
59.0528
 21
31.9299
  0
LINE
  8
0
 10
59.0528
 20
31.9299
 11
59.1144
 21
31.8504
  0
LINE
  8
0
 10
59.1144
 20
31.8504
 11
59.1709
 21
31.7673
  0
LINE
  8
0
 10
59.1709
 20
31.7673
 11
59.2221
 21
31.6808
  0
LINE
  8
0
 10
59.2221
 20
31.6808
 11
59.2677
 21
31.5912
  0
LINE
  8
0
 10
59.2677
 20
31.5912
 11
59.3076
 21
31.499
  0
LINE
  8
0
 10
59.3076
 20
31.499
 11
59.3417
 21
31.4044
  0
LINE
  8
0
 10
59.3417
 20
31.4044
 11
59.3697
 21
31.3079
  0
LINE
  8
0
 10
59.3697
 20
31.3079
 11
59.3916
 21
31.2098
  0
LINE
  8
0
 10
59.3916
 20
31.2098
 11
59.4074
 21
31.1105
  0
LINE
  8
0
 10
59.4074
 20
31.1105
 11
59.4168
 21
31.0105
  0
LINE
  8
0
 10
59.4168
 20
31.0105
 11
59.42
 21
30.91
  0
LINE
  8
0
 10
59.42
 20
30.91
 11
59.4168
 21
30.8095
  0
LINE
  8
0
 10
59.4168
 20
30.8095
 11
59.4074
 21
30.7095
  0
LINE
  8
0
 10
59.4074
 20
30.7095
 11
59.3916
 21
30.6102
  0
LINE
  8
0
 10
59.3916
 20
30.6102
 11
59.3697
 21
30.5121
  0
LINE
  8
0
 10
59.3697
 20
30.5121
 11
59.3417
 21
30.4156
  0
LINE
  8
0
 10
59.3417
 20
30.4156
 11
59.3076
 21
30.321
  0
LINE
  8
0
 10
59.3076
 20
30.321
 11
59.2677
 21
30.2287
  0
LINE
  8
0
 10
59.2677
 20
30.2287
 11
59.2221
 21
30.1392
  0
LINE
  8
0
 10
59.2221
 20
30.1392
 11
59.1709
 21
30.0527
  0
LINE
  8
0
 10
59.1709
 20
30.0527
 11
59.1144
 21
29.9695
  0
LINE
  8
0
 10
59.1144
 20
29.9695
 11
59.0528
 21
29.8901
  0
LINE
  8
0
 10
59.0528
 20
29.8901
 11
58.9863
 21
29.8147
  0
LINE
  8
0
 10
58.9863
 20
29.8147
 11
58.9153
 21
29.7436
  0
LINE
  8
0
 10
58.9153
 20
29.7436
 11
58.8399
 21
29.6772
  0
LINE
  8
0
 10
58.8399
 20
29.6772
 11
58.7605
 21
29.6156
  0
LINE
  8
0
 10
58.7605
 20
29.6156
 11
58.6773
 21
29.5591
  0
LINE
  8
0
 10
58.6773
 20
29.5591
 11
58.5908
 21
29.5079
  0
LINE
  8
0
 10
58.5908
 20
29.5079
 11
58.5012
 21
29.4623
  0
LINE
  8
0
 10
58.5012
 20
29.4623
 11
58.409
 21
29.4223
  0
LINE
  8
0
 10
58.409
 20
29.4223
 11
58.3144
 21
29.3883
  0
LINE
  8
0
 10
58.3144
 20
29.3883
 11
58.2179
 21
29.3603
  0
LINE
  8
0
 10
58.2179
 20
29.3603
 11
58.1198
 21
29.3383
  0
LINE
  8
0
 10
58.1198
 20
29.3383
 11
58.0205
 21
29.3226
  0
LINE
  8
0
 10
58.0205
 20
29.3226
 11
57.9205
 21
29.3132
  0
LINE
  8
0
 10
57.9205
 20
29.3132
 11
57.82
 21
29.31
  0
LINE
  8
0
 10
57.82
 20
29.31
 11
57.7195
 21
29.3132
  0
LINE
  8
0
 10
-38.9005
 20
18.3031
 11
-39.0005
 21
18.3126
  0
LINE
  8
0
 10
-39.0005
 20
18.3126
 11
-39.0998
 21
18.3283
  0
LINE
  8
0
 10
-39.0998
 20
18.3283
 11
-39.1979
 21
18.3503
  0
LINE
  8
0
 10
-39.1979
 20
18.3503
 11
-39.2944
 21
18.3783
  0
LINE
  8
0
 10
-39.2944
 20
18.3783
 11
-39.389
 21
18.4124
  0
LINE
  8
0
 10
-39.389
 20
18.4124
 11
-39.4812
 21
18.4523
  0
LINE
  8
0
 10
-39.4812
 20
18.4523
 11
-39.5708
 21
18.4979
  0
LINE
  8
0
 10
-39.5708
 20
18.4979
 11
-39.6573
 21
18.5491
  0
LINE
  8
0
 10
-39.6573
 20
18.5491
 11
-39.7405
 21
18.6056
  0
LINE
  8
0
 10
-39.7405
 20
18.6056
 11
-39.8199
 21
18.6672
  0
LINE
  8
0
 10
-39.8199
 20
18.6672
 11
-39.8953
 21
18.7336
  0
LINE
  8
0
 10
-39.8953
 20
18.7336
 11
-39.9664
 21
18.8047
  0
LINE
  8
0
 10
-39.9664
 20
18.8047
 11
-40.0328
 21
18.8801
  0
LINE
  8
0
 10
-40.0328
 20
18.8801
 11
-40.0944
 21
18.9595
  0
LINE
  8
0
 10
-40.0944
 20
18.9595
 11
-40.1509
 21
19.0427
  0
LINE
  8
0
 10
-40.1509
 20
19.0427
 11
-40.2021
 21
19.1292
  0
LINE
  8
0
 10
-40.2021
 20
19.1292
 11
-40.2477
 21
19.2188
  0
LINE
  8
0
 10
-40.2477
 20
19.2188
 11
-40.2876
 21
19.311
  0
LINE
  8
0
 10
-40.2876
 20
19.311
 11
-40.3217
 21
19.4056
  0
LINE
  8
0
 10
-40.3217
 20
19.4056
 11
-40.3497
 21
19.5021
  0
LINE
  8
0
 10
-40.3497
 20
19.5021
 11
-40.3717
 21
19.6002
  0
LINE
  8
0
 10
-40.3717
 20
19.6002
 11
-40.3874
 21
19.6995
  0
LINE
  8
0
 10
-40.3874
 20
19.6995
 11
-40.3969
 21
19.7995
  0
LINE
  8
0
 10
-40.3969
 20
19.7995
 11
-40.4
 21
19.9
  0
LINE
  8
0
 10
-40.4
 20
19.9
 11
-40.3969
 21
20.0005
  0
LINE
  8
0
 10
-40.3969
 20
20.0005
 11
-40.3874
 21
20.1005
  0
LINE
  8
0
 10
-40.3874
 20
20.1005
 11
-40.3717
 21
20.1998
  0
LINE
  8
0
 10
-40.3717
 20
20.1998
 11
-40.3497
 21
20.2979
  0
LINE
  8
0
 10
-40.3497
 20
20.2979
 11
-40.3217
 21
20.3944
  0
LINE
  8
0
 10
-40.3217
 20
20.3944
 11
-40.2876
 21
20.489
  0
LINE
  8
0
 10
-40.2876
 20
20.489
 11
-40.2477
 21
20.5812
  0
LINE
  8
0
 10
-40.2477
 20
20.5812
 11
-40.2021
 21
20.6708
  0
LINE
  8
0
 10
-40.2021
 20
20.6708
 11
-40.1509
 21
20.7573
  0
LINE
  8
0
 10
-40.1509
 20
20.7573
 11
-40.0944
 21
20.8405
  0
LINE
  8
0
 10
-40.0944
 20
20.8405
 11
-40.0328
 21
20.9199
  0
LINE
  8
0
 10
-40.0328
 20
20.9199
 11
-39.9664
 21
20.9953
  0
LINE
  8
0
 10
-39.9664
 20
20.9953
 11
-39.8953
 21
21.0663
  0
LINE
  8
0
 10
-39.8953
 20
21.0663
 11
-39.8199
 21
21.1328
  0
LINE
  8
0
 10
-39.8199
 20
21.1328
 11
-39.7405
 21
21.1944
  0
LINE
  8
0
 10
-39.7405
 20
21.1944
 11
-39.6573
 21
21.2509
  0
LINE
  8
0
 10
-39.6573
 20
21.2509
 11
-39.5708
 21
21.3021
  0
LINE
  8
0
 10
-39.5708
 20
21.3021
 11
-39.4812
 21
21.3477
  0
LINE
  8
0
 10
-39.4812
 20
21.3477
 11
-39.389
 21
21.3876
  0
LINE
  8
0
 10
-39.389
 20
21.3876
 11
-39.2944
 21
21.4217
  0
LINE
  8
0
 10
-39.2944
 20
21.4217
 11
-39.1979
 21
21.4497
  0
LINE
  8
0
 10
-39.1979
 20
21.4497
 11
-39.0998
 21
21.4716
  0
LINE
  8
0
 10
-39.0998
 20
21.4716
 11
-39.0005
 21
21.4874
  0
LINE
  8
0
 10
-39.0005
 20
21.4874
 11
-38.9005
 21
21.4968
  0
LINE
  8
0
 10
-38.9005
 20
21.4968
 11
-38.8
 21
21.5
  0
LINE
  8
0
 10
-38.8
 20
21.5
 11
-38.6995
 21
21.4968
  0
LINE
  8
0
 10
-38.6995
 20
21.4968
 11
-38.5995
 21
21.4874
  0
LINE
  8
0
 10
-38.5995
 20
21.4874
 11
-38.5002
 21
21.4716
  0
LINE
  8
0
 10
-38.5002
 20
21.4716
 11
-38.4021
 21
21.4497
  0
LINE
  8
0
 10
-38.4021
 20
21.4497
 11
-38.3056
 21
21.4217
  0
LINE
  8
0
 10
-38.3056
 20
21.4217
 11
-38.211
 21
21.3876
  0
LINE
  8
0
 10
-38.211
 20
21.3876
 11
-38.1188
 21
21.3477
  0
LINE
  8
0
 10
-38.1188
 20
21.3477
 11
-38.0292
 21
21.3021
  0
LINE
  8
0
 10
-38.0292
 20
21.3021
 11
-37.9427
 21
21.2509
  0
LINE
  8
0
 10
-37.9427
 20
21.2509
 11
-37.8596
 21
21.1944
  0
LINE
  8
0
 10
-37.8596
 20
21.1944
 11
-37.7801
 21
21.1328
  0
LINE
  8
0
 10
-37.7801
 20
21.1328
 11
-37.7047
 21
21.0663
  0
LINE
  8
0
 10
-37.7047
 20
21.0663
 11
-37.6337
 21
20.9953
  0
LINE
  8
0
 10
-37.6337
 20
20.9953
 11
-37.5672
 21
20.9199
  0
LINE
  8
0
 10
-37.5672
 20
20.9199
 11
-37.5056
 21
20.8405
  0
LINE
  8
0
 10
-37.5056
 20
20.8405
 11
-37.4491
 21
20.7573
  0
LINE
  8
0
 10
-37.4491
 20
20.7573
 11
-37.3979
 21
20.6708
  0
LINE
  8
0
 10
-37.3979
 20
20.6708
 11
-37.3523
 21
20.5812
  0
LINE
  8
0
 10
-37.3523
 20
20.5812
 11
-37.3124
 21
20.489
  0
LINE
  8
0
 10
-37.3124
 20
20.489
 11
-37.2783
 21
20.3944
  0
LINE
  8
0
 10
-37.2783
 20
20.3944
 11
-37.2503
 21
20.2979
  0
LINE
  8
0
 10
-37.2503
 20
20.2979
 11
-37.2283
 21
20.1998
  0
LINE
  8
0
 10
-37.2283
 20
20.1998
 11
-37.2126
 21
20.1005
  0
LINE
  8
0
 10
-37.2126
 20
20.1005
 11
-37.2032
 21
20.0005
  0
LINE
  8
0
 10
-37.2032
 20
20.0005
 11
-37.2
 21
19.9
  0
LINE
  8
0
 10
-37.2
 20
19.9
 11
-37.2032
 21
19.7995
  0
LINE
  8
0
 10
-37.2032
 20
19.7995
 11
-37.2126
 21
19.6995
  0
LINE
  8
0
 10
-37.2126
 20
19.6995
 11
-37.2283
 21
19.6002
  0
LINE
  8
0
 10
-37.2283
 20
19.6002
 11
-37.2503
 21
19.5021
  0
LINE
  8
0
 10
-37.2503
 20
19.5021
 11
-37.2783
 21
19.4056
  0
LINE
  8
0
 10
-37.2783
 20
19.4056
 11
-37.3124
 21
19.311
  0
LINE
  8
0
 10
-37.3124
 20
19.311
 11
-37.3523
 21
19.2188
  0
LINE
  8
0
 10
-37.3523
 20
19.2188
 11
-37.3979
 21
19.1292
  0
LINE
  8
0
 10
-37.3979
 20
19.1292
 11
-37.4491
 21
19.0427
  0
LINE
  8
0
 10
-37.4491
 20
19.0427
 11
-37.5056
 21
18.9595
  0
LINE
  8
0
 10
-37.5056
 20
18.9595
 11
-37.5672
 21
18.8801
  0
LINE
  8
0
 10
-37.5672
 20
18.8801
 11
-37.6337
 21
18.8047
  0
LINE
  8
0
 10
-37.6337
 20
18.8047
 11
-37.7047
 21
18.7336
  0
LINE
  8
0
 10
-37.7047
 20
18.7336
 11
-37.7801
 21
18.6672
  0
LINE
  8
0
 10
-37.7801
 20
18.6672
 11
-37.8596
 21
18.6056
  0
LINE
  8
0
 10
-37.8596
 20
18.6056
 11
-37.9427
 21
18.5491
  0
LINE
  8
0
 10
-37.9427
 20
18.5491
 11
-38.0292
 21
18.4979
  0
LINE
  8
0
 10
-38.0292
 20
18.4979
 11
-38.1188
 21
18.4523
  0
LINE
  8
0
 10
-38.1188
 20
18.4523
 11
-38.211
 21
18.4124
  0
LINE
  8
0
 10
-38.211
 20
18.4124
 11
-38.3056
 21
18.3783
  0
LINE
  8
0
 10
-38.3056
 20
18.3783
 11
-38.4021
 21
18.3503
  0
LINE
  8
0
 10
-38.4021
 20
18.3503
 11
-38.5002
 21
18.3283
  0
LINE
  8
0
 10
-38.5002
 20
18.3283
 11
-38.5995
 21
18.3126
  0
LINE
  8
0
 10
-38.5995
 20
18.3126
 11
-38.6995
 21
18.3031
  0
LINE
  8
0
 10
-38.6995
 20
18.3031
 11
-38.8
 21
18.3
  0
LINE
  8
0
 10
-38.8
 20
18.3
 11
-38.9005
 21
18.3031
  0
LINE
  8
0
 10
-17.3005
 20
18.3031
 11
-17.4005
 21
18.3126
  0
LINE
  8
0
 10
-17.4005
 20
18.3126
 11
-17.4998
 21
18.3283
  0
LINE
  8
0
 10
-17.4998
 20
18.3283
 11
-17.5979
 21
18.3503
  0
LINE
  8
0
 10
-17.5979
 20
18.3503
 11
-17.6944
 21
18.3783
  0
LINE
  8
0
 10
-17.6944
 20
18.3783
 11
-17.789
 21
18.4124
  0
LINE
  8
0
 10
-17.789
 20
18.4124
 11
-17.8813
 21
18.4523
  0
LINE
  8
0
 10
-17.8813
 20
18.4523
 11
-17.9708
 21
18.4979
  0
LINE
  8
0
 10
-17.9708
 20
18.4979
 11
-18.0573
 21
18.5491
  0
LINE
  8
0
 10
-18.0573
 20
18.5491
 11
-18.1405
 21
18.6056
  0
LINE
  8
0
 10
-18.1405
 20
18.6056
 11
-18.2199
 21
18.6672
  0
LINE
  8
0
 10
-18.2199
 20
18.6672
 11
-18.2953
 21
18.7336
  0
LINE
  8
0
 10
-18.2953
 20
18.7336
 11
-18.3664
 21
18.8047
  0
LINE
  8
0
 10
-18.3664
 20
18.8047
 11
-18.4328
 21
18.8801
  0
LINE
  8
0
 10
-18.4328
 20
18.8801
 11
-18.4944
 21
18.9595
  0
LINE
  8
0
 10
-18.4944
 20
18.9595
 11
-18.5509
 21
19.0427
  0
LINE
  8
0
 10
-18.5509
 20
19.0427
 11
-18.6021
 21
19.1292
  0
LINE
  8
0
 10
-18.6021
 20
19.1292
 11
-18.6477
 21
19.2188
  0
LINE
  8
0
 10
-18.6477
 20
19.2188
 11
-18.6877
 21
19.311
  0
LINE
  8
0
 10
-18.6877
 20
19.311
 11
-18.7217
 21
19.4056
  0
LINE
  8
0
 10
-18.7217
 20
19.4056
 11
-18.7497
 21
19.5021
  0
LINE
  8
0
 10
-18.7497
 20
19.5021
 11
-18.7717
 21
19.6002
  0
LINE
  8
0
 10
-18.7717
 20
19.6002
 11
-18.7874
 21
19.6995
  0
LINE
  8
0
 10
-18.7874
 20
19.6995
 11
-18.7968
 21
19.7995
  0
LINE
  8
0
 10
-18.7968
 20
19.7995
 11
-18.8
 21
19.9
  0
LINE
  8
0
 10
-18.8
 20
19.9
 11
-18.7968
 21
20.0005
  0
LINE
  8
0
 10
-18.7968
 20
20.0005
 11
-18.7874
 21
20.1005
  0
LINE
  8
0
 10
-18.7874
 20
20.1005
 11
-18.7717
 21
20.1998
  0
LINE
  8
0
 10
-18.7717
 20
20.1998
 11
-18.7497
 21
20.2979
  0
LINE
  8
0
 10
-18.7497
 20
20.2979
 11
-18.7217
 21
20.3944
  0
LINE
  8
0
 10
-18.7217
 20
20.3944
 11
-18.6877
 21
20.489
  0
LINE
  8
0
 10
-18.6877
 20
20.489
 11
-18.6477
 21
20.5812
  0
LINE
  8
0
 10
-18.6477
 20
20.5812
 11
-18.6021
 21
20.6708
  0
LINE
  8
0
 10
-18.6021
 20
20.6708
 11
-18.5509
 21
20.7573
  0
LINE
  8
0
 10
-18.5509
 20
20.7573
 11
-18.4944
 21
20.8405
  0
LINE
  8
0
 10
-18.4944
 20
20.8405
 11
-18.4328
 21
20.9199
  0
LINE
  8
0
 10
-18.4328
 20
20.9199
 11
-18.3664
 21
20.9953
  0
LINE
  8
0
 10
-18.3664
 20
20.9953
 11
-18.2953
 21
21.0663
  0
LINE
  8
0
 10
-18.2953
 20
21.0663
 11
-18.2199
 21
21.1328
  0
LINE
  8
0
 10
-18.2199
 20
21.1328
 11
-18.1405
 21
21.1944
  0
LINE
  8
0
 10
-18.1405
 20
21.1944
 11
-18.0573
 21
21.2509
  0
LINE
  8
0
 10
-18.0573
 20
21.2509
 11
-17.9708
 21
21.3021
  0
LINE
  8
0
 10
-17.9708
 20
21.3021
 11
-17.8813
 21
21.3477
  0
LINE
  8
0
 10
-17.8813
 20
21.3477
 11
-17.789
 21
21.3876
  0
LINE
  8
0
 10
-17.789
 20
21.3876
 11
-17.6944
 21
21.4217
  0
LINE
  8
0
 10
-17.6944
 20
21.4217
 11
-17.5979
 21
21.4497
  0
LINE
  8
0
 10
-17.5979
 20
21.4497
 11
-17.4998
 21
21.4716
  0
LINE
  8
0
 10
-17.4998
 20
21.4716
 11
-17.4005
 21
21.4874
  0
LINE
  8
0
 10
-17.4005
 20
21.4874
 11
-17.3005
 21
21.4968
  0
LINE
  8
0
 10
-17.3005
 20
21.4968
 11
-17.2
 21
21.5
  0
LINE
  8
0
 10
-17.2
 20
21.5
 11
-17.0995
 21
21.4968
  0
LINE
  8
0
 10
-17.0995
 20
21.4968
 11
-16.9995
 21
21.4874
  0
LINE
  8
0
 10
-16.9995
 20
21.4874
 11
-16.9002
 21
21.4716
  0
LINE
  8
0
 10
-16.9002
 20
21.4716
 11
-16.8021
 21
21.4497
  0
LINE
  8
0
 10
-16.8021
 20
21.4497
 11
-16.7056
 21
21.4217
  0
LINE
  8
0
 10
-16.7056
 20
21.4217
 11
-16.611
 21
21.3876
  0
LINE
  8
0
 10
-16.611
 20
21.3876
 11
-16.5188
 21
21.3477
  0
LINE
  8
0
 10
-16.5188
 20
21.3477
 11
-16.4292
 21
21.3021
  0
LINE
  8
0
 10
-16.4292
 20
21.3021
 11
-16.3427
 21
21.2509
  0
LINE
  8
0
 10
-16.3427
 20
21.2509
 11
-16.2596
 21
21.1944
  0
LINE
  8
0
 10
-16.2596
 20
21.1944
 11
-16.1801
 21
21.1328
  0
LINE
  8
0
 10
-16.1801
 20
21.1328
 11
-16.1047
 21
21.0663
  0
LINE
  8
0
 10
-16.1047
 20
21.0663
 11
-16.0337
 21
20.9953
  0
LINE
  8
0
 10
-16.0337
 20
20.9953
 11
-15.9672
 21
20.9199
  0
LINE
  8
0
 10
-15.9672
 20
20.9199
 11
-15.9056
 21
20.8405
  0
LINE
  8
0
 10
-15.9056
 20
20.8405
 11
-15.8491
 21
20.7573
  0
LINE
  8
0
 10
-15.8491
 20
20.7573
 11
-15.7979
 21
20.6708
  0
LINE
  8
0
 10
-15.7979
 20
20.6708
 11
-15.7523
 21
20.5812
  0
LINE
  8
0
 10
-15.7523
 20
20.5812
 11
-15.7124
 21
20.489
  0
LINE
  8
0
 10
-15.7124
 20
20.489
 11
-15.6783
 21
20.3944
  0
LINE
  8
0
 10
-15.6783
 20
20.3944
 11
-15.6503
 21
20.2979
  0
LINE
  8
0
 10
-15.6503
 20
20.2979
 11
-15.6283
 21
20.1998
  0
LINE
  8
0
 10
-15.6283
 20
20.1998
 11
-15.6126
 21
20.1005
  0
LINE
  8
0
 10
-15.6126
 20
20.1005
 11
-15.6032
 21
20.0005
  0
LINE
  8
0
 10
-15.6032
 20
20.0005
 11
-15.6
 21
19.9
  0
LINE
  8
0
 10
-15.6
 20
19.9
 11
-15.6032
 21
19.7995
  0
LINE
  8
0
 10
-15.6032
 20
19.7995
 11
-15.6126
 21
19.6995
  0
LINE
  8
0
 10
-15.6126
 20
19.6995
 11
-15.6283
 21
19.6002
  0
LINE
  8
0
 10
-15.6283
 20
19.6002
 11
-15.6503
 21
19.5021
  0
LINE
  8
0
 10
-15.6503
 20
19.5021
 11
-15.6783
 21
19.4056
  0
LINE
  8
0
 10
-15.6783
 20
19.4056
 11
-15.7124
 21
19.311
  0
LINE
  8
0
 10
-15.7124
 20
19.311
 11
-15.7523
 21
19.2188
  0
LINE
  8
0
 10
-15.7523
 20
19.2188
 11
-15.7979
 21
19.1292
  0
LINE
  8
0
 10
-15.7979
 20
19.1292
 11
-15.8491
 21
19.0427
  0
LINE
  8
0
 10
-15.8491
 20
19.0427
 11
-15.9056
 21
18.9595
  0
LINE
  8
0
 10
-15.9056
 20
18.9595
 11
-15.9672
 21
18.8801
  0
LINE
  8
0
 10
-15.9672
 20
18.8801
 11
-16.0337
 21
18.8047
  0
LINE
  8
0
 10
-16.0337
 20
18.8047
 11
-16.1047
 21
18.7336
  0
LINE
  8
0
 10
-16.1047
 20
18.7336
 11
-16.1801
 21
18.6672
  0
LINE
  8
0
 10
-16.1801
 20
18.6672
 11
-16.2596
 21
18.6056
  0
LINE
  8
0
 10
-16.2596
 20
18.6056
 11
-16.3427
 21
18.5491
  0
LINE
  8
0
 10
-16.3427
 20
18.5491
 11
-16.4292
 21
18.4979
  0
LINE
  8
0
 10
-16.4292
 20
18.4979
 11
-16.5188
 21
18.4523
  0
LINE
  8
0
 10
-16.5188
 20
18.4523
 11
-16.611
 21
18.4124
  0
LINE
  8
0
 10
-16.611
 20
18.4124
 11
-16.7056
 21
18.3783
  0
LINE
  8
0
 10
-16.7056
 20
18.3783
 11
-16.8021
 21
18.3503
  0
LINE
  8
0
 10
-16.8021
 20
18.3503
 11
-16.9002
 21
18.3283
  0
LINE
  8
0
 10
-16.9002
 20
18.3283
 11
-16.9995
 21
18.3126
  0
LINE
  8
0
 10
-16.9995
 20
18.3126
 11
-17.0995
 21
18.3031
  0
LINE
  8
0
 10
-17.0995
 20
18.3031
 11
-17.2
 21
18.3
  0
LINE
  8
0
 10
-17.2
 20
18.3
 11
-17.3005
 21
18.3031
  0
LINE
  8
0
 10
3.89952
 20
2.40315
 11
3.79945
 21
2.41261
  0
LINE
  8
0
 10
3.79945
 20
2.41261
 11
3.70018
 21
2.42833
  0
LINE
  8
0
 10
3.70018
 20
2.42833
 11
3.60208
 21
2.45026
  0
LINE
  8
0
 10
3.60208
 20
2.45026
 11
3.50557
 21
2.4783
  0
LINE
  8
0
 10
3.50557
 20
2.4783
 11
3.411
 21
2.51234
  0
LINE
  8
0
 10
3.411
 20
2.51234
 11
3.31874
 21
2.55228
  0
LINE
  8
0
 10
3.31874
 20
2.55228
 11
3.22919
 21
2.5979
  0
LINE
  8
0
 10
3.22919
 20
2.5979
 11
3.14267
 21
2.64906
  0
LINE
  8
0
 10
3.14267
 20
2.64906
 11
3.05954
 21
2.70557
  0
LINE
  8
0
 10
3.05954
 20
2.70557
 11
2.98012
 21
2.76717
  0
LINE
  8
0
 10
2.98012
 20
2.76717
 11
2.90472
 21
2.83365
  0
LINE
  8
0
 10
2.90472
 20
2.83365
 11
2.83365
 21
2.90472
  0
LINE
  8
0
 10
2.83365
 20
2.90472
 11
2.76717
 21
2.98012
  0
LINE
  8
0
 10
2.76717
 20
2.98012
 11
2.70557
 21
3.05954
  0
LINE
  8
0
 10
2.70557
 20
3.05954
 11
2.64906
 21
3.14267
  0
LINE
  8
0
 10
2.64906
 20
3.14267
 11
2.5979
 21
3.22919
  0
LINE
  8
0
 10
2.5979
 20
3.22919
 11
2.55228
 21
3.31874
  0
LINE
  8
0
 10
2.55228
 20
3.31874
 11
2.51234
 21
3.411
  0
LINE
  8
0
 10
2.51234
 20
3.411
 11
2.4783
 21
3.50557
  0
LINE
  8
0
 10
2.4783
 20
3.50557
 11
2.45026
 21
3.60208
  0
LINE
  8
0
 10
2.45026
 20
3.60208
 11
2.42833
 21
3.70018
  0
LINE
  8
0
 10
2.42833
 20
3.70018
 11
2.41261
 21
3.79945
  0
LINE
  8
0
 10
2.41261
 20
3.79945
 11
2.40315
 21
3.89952
  0
LINE
  8
0
 10
2.40315
 20
3.89952
 11
2.39999
 21
4
  0
LINE
  8
0
 10
2.39999
 20
4
 11
2.40315
 21
4.10046
  0
LINE
  8
0
 10
2.40315
 20
4.10046
 11
2.41261
 21
4.20053
  0
LINE
  8
0
 10
2.41261
 20
4.20053
 11
2.42833
 21
4.2998
  0
LINE
  8
0
 10
2.42833
 20
4.2998
 11
2.45026
 21
4.3979
  0
LINE
  8
0
 10
2.45026
 20
4.3979
 11
2.4783
 21
4.49442
  0
LINE
  8
0
 10
2.4783
 20
4.49442
 11
2.51234
 21
4.58899
  0
LINE
  8
0
 10
2.51234
 20
4.58899
 11
2.55228
 21
4.68124
  0
LINE
  8
0
 10
2.55228
 20
4.68124
 11
2.5979
 21
4.7708
  0
LINE
  8
0
 10
2.5979
 20
4.7708
 11
2.64906
 21
4.85732
  0
LINE
  8
0
 10
2.64906
 20
4.85732
 11
2.70557
 21
4.94044
  0
LINE
  8
0
 10
2.70557
 20
4.94044
 11
2.76717
 21
5.01987
  0
LINE
  8
0
 10
2.76717
 20
5.01987
 11
2.83365
 21
5.09526
  0
LINE
  8
0
 10
2.83365
 20
5.09526
 11
2.90472
 21
5.16634
  0
LINE
  8
0
 10
2.90472
 20
5.16634
 11
2.98012
 21
5.23282
  0
LINE
  8
0
 10
2.98012
 20
5.23282
 11
3.05954
 21
5.29442
  0
LINE
  8
0
 10
3.05954
 20
5.29442
 11
3.14267
 21
5.35092
  0
LINE
  8
0
 10
3.14267
 20
5.35092
 11
3.22919
 21
5.40208
  0
LINE
  8
0
 10
3.22919
 20
5.40208
 11
3.31874
 21
5.44771
  0
LINE
  8
0
 10
3.31874
 20
5.44771
 11
3.411
 21
5.48764
  0
LINE
  8
0
 10
3.411
 20
5.48764
 11
3.50557
 21
5.52168
  0
LINE
  8
0
 10
3.50557
 20
5.52168
 11
3.60208
 21
5.54973
  0
LINE
  8
0
 10
3.60208
 20
5.54973
 11
3.70018
 21
5.57166
  0
LINE
  8
0
 10
3.70018
 20
5.57166
 11
3.79945
 21
5.58737
  0
LINE
  8
0
 10
3.79945
 20
5.58737
 11
3.89952
 21
5.59683
  0
LINE
  8
0
 10
3.89952
 20
5.59683
 11
4
 21
5.59999
  0
LINE
  8
0
 10
4
 20
5.59999
 11
4.10046
 21
5.59683
  0
LINE
  8
0
 10
4.10046
 20
5.59683
 11
4.20053
 21
5.58737
  0
LINE
  8
0
 10
4.20053
 20
5.58737
 11
4.2998
 21
5.57166
  0
LINE
  8
0
 10
4.2998
 20
5.57166
 11
4.3979
 21
5.54973
  0
LINE
  8
0
 10
4.3979
 20
5.54973
 11
4.49442
 21
5.52168
  0
LINE
  8
0
 10
4.49442
 20
5.52168
 11
4.58899
 21
5.48764
  0
LINE
  8
0
 10
4.58899
 20
5.48764
 11
4.68124
 21
5.44771
  0
LINE
  8
0
 10
4.68124
 20
5.44771
 11
4.7708
 21
5.40208
  0
LINE
  8
0
 10
4.7708
 20
5.40208
 11
4.85732
 21
5.35092
  0
LINE
  8
0
 10
4.85732
 20
5.35092
 11
4.94044
 21
5.29442
  0
LINE
  8
0
 10
4.94044
 20
5.29442
 11
5.01987
 21
5.23282
  0
LINE
  8
0
 10
5.01987
 20
5.23282
 11
5.09526
 21
5.16634
  0
LINE
  8
0
 10
5.09526
 20
5.16634
 11
5.16634
 21
5.09526
  0
LINE
  8
0
 10
5.16634
 20
5.09526
 11
5.23282
 21
5.01987
  0
LINE
  8
0
 10
5.23282
 20
5.01987
 11
5.29442
 21
4.94044
  0
LINE
  8
0
 10
5.29442
 20
4.94044
 11
5.35092
 21
4.85732
  0
LINE
  8
0
 10
5.35092
 20
4.85732
 11
5.40208
 21
4.7708
  0
LINE
  8
0
 10
5.40208
 20
4.7708
 11
5.44771
 21
4.68124
  0
LINE
  8
0
 10
5.44771
 20
4.68124
 11
5.48764
 21
4.58899
  0
LINE
  8
0
 10
5.48764
 20
4.58899
 11
5.52168
 21
4.49442
  0
LINE
  8
0
 10
5.52168
 20
4.49442
 11
5.54973
 21
4.3979
  0
LINE
  8
0
 10
5.54973
 20
4.3979
 11
5.57166
 21
4.2998
  0
LINE
  8
0
 10
5.57166
 20
4.2998
 11
5.58737
 21
4.20053
  0
LINE
  8
0
 10
5.58737
 20
4.20053
 11
5.59683
 21
4.10046
  0
LINE
  8
0
 10
5.59683
 20
4.10046
 11
5.59999
 21
4
  0
LINE
  8
0
 10
5.59999
 20
4
 11
5.59683
 21
3.89952
  0
LINE
  8
0
 10
5.59683
 20
3.89952
 11
5.58737
 21
3.79945
  0
LINE
  8
0
 10
5.58737
 20
3.79945
 11
5.57166
 21
3.70018
  0
LINE
  8
0
 10
5.57166
 20
3.70018
 11
5.54973
 21
3.60208
  0
LINE
  8
0
 10
5.54973
 20
3.60208
 11
5.52168
 21
3.50557
  0
LINE
  8
0
 10
5.52168
 20
3.50557
 11
5.48764
 21
3.411
  0
LINE
  8
0
 10
5.48764
 20
3.411
 11
5.44771
 21
3.31874
  0
LINE
  8
0
 10
5.44771
 20
3.31874
 11
5.40208
 21
3.22919
  0
LINE
  8
0
 10
5.40208
 20
3.22919
 11
5.35092
 21
3.14267
  0
LINE
  8
0
 10
5.35092
 20
3.14267
 11
5.29442
 21
3.05954
  0
LINE
  8
0
 10
5.29442
 20
3.05954
 11
5.23282
 21
2.98012
  0
LINE
  8
0
 10
5.23282
 20
2.98012
 11
5.16634
 21
2.90472
  0
LINE
  8
0
 10
5.16634
 20
2.90472
 11
5.09526
 21
2.83365
  0
LINE
  8
0
 10
5.09526
 20
2.83365
 11
5.01987
 21
2.76717
  0
LINE
  8
0
 10
5.01987
 20
2.76717
 11
4.94044
 21
2.70557
  0
LINE
  8
0
 10
4.94044
 20
2.70557
 11
4.85732
 21
2.64906
  0
LINE
  8
0
 10
4.85732
 20
2.64906
 11
4.7708
 21
2.5979
  0
LINE
  8
0
 10
4.7708
 20
2.5979
 11
4.68124
 21
2.55228
  0
LINE
  8
0
 10
4.68124
 20
2.55228
 11
4.58899
 21
2.51234
  0
LINE
  8
0
 10
4.58899
 20
2.51234
 11
4.49442
 21
2.4783
  0
LINE
  8
0
 10
4.49442
 20
2.4783
 11
4.3979
 21
2.45026
  0
LINE
  8
0
 10
4.3979
 20
2.45026
 11
4.2998
 21
2.42833
  0
LINE
  8
0
 10
4.2998
 20
2.42833
 11
4.20053
 21
2.41261
  0
LINE
  8
0
 10
4.20053
 20
2.41261
 11
4.10046
 21
2.40315
  0
LINE
  8
0
 10
4.10046
 20
2.40315
 11
4
 21
2.39999
  0
LINE
  8
0
 10
4
 20
2.39999
 11
3.89952
 21
2.40315
  0
LINE
  8
0
 10
57.7195
 20
2.40315
 11
57.6195
 21
2.41261
  0
LINE
  8
0
 10
57.6195
 20
2.41261
 11
57.5202
 21
2.42833
  0
LINE
  8
0
 10
57.5202
 20
2.42833
 11
57.4221
 21
2.45026
  0
LINE
  8
0
 10
57.4221
 20
2.45026
 11
57.3256
 21
2.4783
  0
LINE
  8
0
 10
57.3256
 20
2.4783
 11
57.231
 21
2.51234
  0
LINE
  8
0
 10
57.231
 20
2.51234
 11
57.1387
 21
2.55228
  0
LINE
  8
0
 10
57.1387
 20
2.55228
 11
57.0492
 21
2.5979
  0
LINE
  8
0
 10
57.0492
 20
2.5979
 11
56.9627
 21
2.64906
  0
LINE
  8
0
 10
56.9627
 20
2.64906
 11
56.8795
 21
2.70557
  0
LINE
  8
0
 10
56.8795
 20
2.70557
 11
56.8001
 21
2.76717
  0
LINE
  8
0
 10
56.8001
 20
2.76717
 11
56.7247
 21
2.83365
  0
LINE
  8
0
 10
56.7247
 20
2.83365
 11
56.6536
 21
2.90472
  0
LINE
  8
0
 10
56.6536
 20
2.90472
 11
56.5872
 21
2.98012
  0
LINE
  8
0
 10
56.5872
 20
2.98012
 11
56.5256
 21
3.05954
  0
LINE
  8
0
 10
56.5256
 20
3.05954
 11
56.4691
 21
3.14267
  0
LINE
  8
0
 10
56.4691
 20
3.14267
 11
56.4179
 21
3.22919
  0
LINE
  8
0
 10
56.4179
 20
3.22919
 11
56.3723
 21
3.31874
  0
LINE
  8
0
 10
56.3723
 20
3.31874
 11
56.3324
 21
3.411
  0
LINE
  8
0
 10
56.3324
 20
3.411
 11
56.2983
 21
3.50557
  0
LINE
  8
0
 10
56.2983
 20
3.50557
 11
56.2703
 21
3.60208
  0
LINE
  8
0
 10
56.2703
 20
3.60208
 11
56.2483
 21
3.70018
  0
LINE
  8
0
 10
56.2483
 20
3.70018
 11
56.2326
 21
3.79945
  0
LINE
  8
0
 10
56.2326
 20
3.79945
 11
56.2231
 21
3.89952
  0
LINE
  8
0
 10
56.2231
 20
3.89952
 11
56.22
 21
4
  0
LINE
  8
0
 10
56.22
 20
4
 11
56.2231
 21
4.10046
  0
LINE
  8
0
 10
56.2231
 20
4.10046
 11
56.2326
 21
4.20053
  0
LINE
  8
0
 10
56.2326
 20
4.20053
 11
56.2483
 21
4.2998
  0
LINE
  8
0
 10
56.2483
 20
4.2998
 11
56.2703
 21
4.3979
  0
LINE
  8
0
 10
56.2703
 20
4.3979
 11
56.2983
 21
4.49442
  0
LINE
  8
0
 10
56.2983
 20
4.49442
 11
56.3324
 21
4.58899
  0
LINE
  8
0
 10
56.3324
 20
4.58899
 11
56.3723
 21
4.68124
  0
LINE
  8
0
 10
56.3723
 20
4.68124
 11
56.4179
 21
4.7708
  0
LINE
  8
0
 10
56.4179
 20
4.7708
 11
56.4691
 21
4.85732
  0
LINE
  8
0
 10
56.4691
 20
4.85732
 11
56.5256
 21
4.94044
  0
LINE
  8
0
 10
56.5256
 20
4.94044
 11
56.5872
 21
5.01987
  0
LINE
  8
0
 10
56.5872
 20
5.01987
 11
56.6536
 21
5.09526
  0
LINE
  8
0
 10
56.6536
 20
5.09526
 11
56.7247
 21
5.16634
  0
LINE
  8
0
 10
56.7247
 20
5.16634
 11
56.8001
 21
5.23282
  0
LINE
  8
0
 10
56.8001
 20
5.23282
 11
56.8795
 21
5.29442
  0
LINE
  8
0
 10
56.8795
 20
5.29442
 11
56.9627
 21
5.35092
  0
LINE
  8
0
 10
56.9627
 20
5.35092
 11
57.0492
 21
5.40208
  0
LINE
  8
0
 10
57.0492
 20
5.40208
 11
57.1387
 21
5.44771
  0
LINE
  8
0
 10
57.1387
 20
5.44771
 11
57.231
 21
5.48764
  0
LINE
  8
0
 10
57.231
 20
5.48764
 11
57.3256
 21
5.52168
  0
LINE
  8
0
 10
57.3256
 20
5.52168
 11
57.4221
 21
5.54973
  0
LINE
  8
0
 10
57.4221
 20
5.54973
 11
57.5202
 21
5.57166
  0
LINE
  8
0
 10
57.5202
 20
5.57166
 11
57.6195
 21
5.58737
  0
LINE
  8
0
 10
57.6195
 20
5.58737
 11
57.7195
 21
5.59683
  0
LINE
  8
0
 10
57.7195
 20
5.59683
 11
57.82
 21
5.59999
  0
LINE
  8
0
 10
57.82
 20
5.59999
 11
57.9205
 21
5.59683
  0
LINE
  8
0
 10
57.9205
 20
5.59683
 11
58.0205
 21
5.58737
  0
LINE
  8
0
 10
58.0205
 20
5.58737
 11
58.1198
 21
5.57166
  0
LINE
  8
0
 10
58.1198
 20
5.57166
 11
58.2179
 21
5.54973
  0
LINE
  8
0
 10
58.2179
 20
5.54973
 11
58.3144
 21
5.52168
  0
LINE
  8
0
 10
58.3144
 20
5.52168
 11
58.409
 21
5.48764
  0
LINE
  8
0
 10
58.409
 20
5.48764
 11
58.5012
 21
5.44771
  0
LINE
  8
0
 10
58.5012
 20
5.44771
 11
58.5908
 21
5.40208
  0
LINE
  8
0
 10
58.5908
 20
5.40208
 11
58.6773
 21
5.35092
  0
LINE
  8
0
 10
58.6773
 20
5.35092
 11
58.7605
 21
5.29442
  0
LINE
  8
0
 10
58.7605
 20
5.29442
 11
58.8399
 21
5.23282
  0
LINE
  8
0
 10
58.8399
 20
5.23282
 11
58.9153
 21
5.16634
  0
LINE
  8
0
 10
58.9153
 20
5.16634
 11
58.9863
 21
5.09526
  0
LINE
  8
0
 10
58.9863
 20
5.09526
 11
59.0528
 21
5.01987
  0
LINE
  8
0
 10
59.0528
 20
5.01987
 11
59.1144
 21
4.94044
  0
LINE
  8
0
 10
59.1144
 20
4.94044
 11
59.1709
 21
4.85732
  0
LINE
  8
0
 10
59.1709
 20
4.85732
 11
59.2221
 21
4.7708
  0
LINE
  8
0
 10
59.2221
 20
4.7708
 11
59.2677
 21
4.68124
  0
LINE
  8
0
 10
59.2677
 20
4.68124
 11
59.3076
 21
4.58899
  0
LINE
  8
0
 10
59.3076
 20
4.58899
 11
59.3417
 21
4.49442
  0
LINE
  8
0
 10
59.3417
 20
4.49442
 11
59.3697
 21
4.3979
  0
LINE
  8
0
 10
59.3697
 20
4.3979
 11
59.3916
 21
4.2998
  0
LINE
  8
0
 10
59.3916
 20
4.2998
 11
59.4074
 21
4.20053
  0
LINE
  8
0
 10
59.4074
 20
4.20053
 11
59.4168
 21
4.10046
  0
LINE
  8
0
 10
59.4168
 20
4.10046
 11
59.42
 21
4
  0
LINE
  8
0
 10
59.42
 20
4
 11
59.4168
 21
3.89952
  0
LINE
  8
0
 10
59.4168
 20
3.89952
 11
59.4074
 21
3.79945
  0
LINE
  8
0
 10
59.4074
 20
3.79945
 11
59.3916
 21
3.70018
  0
LINE
  8
0
 10
59.3916
 20
3.70018
 11
59.3697
 21
3.60208
  0
LINE
  8
0
 10
59.3697
 20
3.60208
 11
59.3417
 21
3.50557
  0
LINE
  8
0
 10
59.3417
 20
3.50557
 11
59.3076
 21
3.411
  0
LINE
  8
0
 10
59.3076
 20
3.411
 11
59.2677
 21
3.31874
  0
LINE
  8
0
 10
59.2677
 20
3.31874
 11
59.2221
 21
3.22919
  0
LINE
  8
0
 10
59.2221
 20
3.22919
 11
59.1709
 21
3.14267
  0
LINE
  8
0
 10
59.1709
 20
3.14267
 11
59.1144
 21
3.05954
  0
LINE
  8
0
 10
59.1144
 20
3.05954
 11
59.0528
 21
2.98012
  0
LINE
  8
0
 10
59.0528
 20
2.98012
 11
58.9863
 21
2.90472
  0
LINE
  8
0
 10
58.9863
 20
2.90472
 11
58.9153
 21
2.83365
  0
LINE
  8
0
 10
58.9153
 20
2.83365
 11
58.8399
 21
2.76717
  0
LINE
  8
0
 10
58.8399
 20
2.76717
 11
58.7605
 21
2.70557
  0
LINE
  8
0
 10
58.7605
 20
2.70557
 11
58.6773
 21
2.64906
  0
LINE
  8
0
 10
58.6773
 20
2.64906
 11
58.5908
 21
2.5979
  0
LINE
  8
0
 10
58.5908
 20
2.5979
 11
58.5012
 21
2.55228
  0
LINE
  8
0
 10
58.5012
 20
2.55228
 11
58.409
 21
2.51234
  0
LINE
  8
0
 10
58.409
 20
2.51234
 11
58.3144
 21
2.4783
  0
LINE
  8
0
 10
58.3144
 20
2.4783
 11
58.2179
 21
2.45026
  0
LINE
  8
0
 10
58.2179
 20
2.45026
 11
58.1198
 21
2.42833
  0
LINE
  8
0
 10
58.1198
 20
2.42833
 11
58.0205
 21
2.41261
  0
LINE
  8
0
 10
58.0205
 20
2.41261
 11
57.9205
 21
2.40315
  0
LINE
  8
0
 10
57.9205
 20
2.40315
 11
57.82
 21
2.39999
  0
LINE
  8
0
 10
57.82
 20
2.39999
 11
57.7195
 21
2.40315
  0
LINE
  8
0
 10
30.8095
 20
2.40315
 11
30.7095
 21
2.41261
  0
LINE
  8
0
 10
30.7095
 20
2.41261
 11
30.6102
 21
2.42833
  0
LINE
  8
0
 10
30.6102
 20
2.42833
 11
30.5121
 21
2.45026
  0
LINE
  8
0
 10
30.5121
 20
2.45026
 11
30.4156
 21
2.4783
  0
LINE
  8
0
 10
30.4156
 20
2.4783
 11
30.321
 21
2.51234
  0
LINE
  8
0
 10
30.321
 20
2.51234
 11
30.2287
 21
2.55228
  0
LINE
  8
0
 10
30.2287
 20
2.55228
 11
30.1392
 21
2.5979
  0
LINE
  8
0
 10
30.1392
 20
2.5979
 11
30.0527
 21
2.64906
  0
LINE
  8
0
 10
30.0527
 20
2.64906
 11
29.9695
 21
2.70557
  0
LINE
  8
0
 10
29.9695
 20
2.70557
 11
29.8901
 21
2.76717
  0
LINE
  8
0
 10
29.8901
 20
2.76717
 11
29.8147
 21
2.83365
  0
LINE
  8
0
 10
29.8147
 20
2.83365
 11
29.7436
 21
2.90472
  0
LINE
  8
0
 10
29.7436
 20
2.90472
 11
29.6772
 21
2.98012
  0
LINE
  8
0
 10
29.6772
 20
2.98012
 11
29.6156
 21
3.05954
  0
LINE
  8
0
 10
29.6156
 20
3.05954
 11
29.5591
 21
3.14267
  0
LINE
  8
0
 10
29.5591
 20
3.14267
 11
29.5079
 21
3.22919
  0
LINE
  8
0
 10
29.5079
 20
3.22919
 11
29.4623
 21
3.31874
  0
LINE
  8
0
 10
29.4623
 20
3.31874
 11
29.4223
 21
3.411
  0
LINE
  8
0
 10
29.4223
 20
3.411
 11
29.3883
 21
3.50557
  0
LINE
  8
0
 10
29.3883
 20
3.50557
 11
29.3603
 21
3.60208
  0
LINE
  8
0
 10
29.3603
 20
3.60208
 11
29.3383
 21
3.70018
  0
LINE
  8
0
 10
29.3383
 20
3.70018
 11
29.3226
 21
3.79945
  0
LINE
  8
0
 10
29.3226
 20
3.79945
 11
29.3132
 21
3.89952
  0
LINE
  8
0
 10
29.3132
 20
3.89952
 11
29.31
 21
4
  0
LINE
  8
0
 10
29.31
 20
4
 11
29.3132
 21
4.10046
  0
LINE
  8
0
 10
29.3132
 20
4.10046
 11
29.3226
 21
4.20053
  0
LINE
  8
0
 10
29.3226
 20
4.20053
 11
29.3383
 21
4.2998
  0
LINE
  8
0
 10
29.3383
 20
4.2998
 11
29.3603
 21
4.3979
  0
LINE
  8
0
 10
29.3603
 20
4.3979
 11
29.3883
 21
4.49442
  0
LINE
  8
0
 10
29.3883
 20
4.49442
 11
29.4223
 21
4.58899
  0
LINE
  8
0
 10
29.4223
 20
4.58899
 11
29.4623
 21
4.68124
  0
LINE
  8
0
 10
29.4623
 20
4.68124
 11
29.5079
 21
4.7708
  0
LINE
  8
0
 10
29.5079
 20
4.7708
 11
29.5591
 21
4.85732
  0
LINE
  8
0
 10
29.5591
 20
4.85732
 11
29.6156
 21
4.94044
  0
LINE
  8
0
 10
29.6156
 20
4.94044
 11
29.6772
 21
5.01987
  0
LINE
  8
0
 10
29.6772
 20
5.01987
 11
29.7436
 21
5.09526
  0
LINE
  8
0
 10
29.7436
 20
5.09526
 11
29.8147
 21
5.16634
  0
LINE
  8
0
 10
29.8147
 20
5.16634
 11
29.8901
 21
5.23282
  0
LINE
  8
0
 10
29.8901
 20
5.23282
 11
29.9695
 21
5.29442
  0
LINE
  8
0
 10
29.9695
 20
5.29442
 11
30.0527
 21
5.35092
  0
LINE
  8
0
 10
30.0527
 20
5.35092
 11
30.1392
 21
5.40208
  0
LINE
  8
0
 10
30.1392
 20
5.40208
 11
30.2287
 21
5.44771
  0
LINE
  8
0
 10
30.2287
 20
5.44771
 11
30.321
 21
5.48764
  0
LINE
  8
0
 10
30.321
 20
5.48764
 11
30.4156
 21
5.52168
  0
LINE
  8
0
 10
30.4156
 20
5.52168
 11
30.5121
 21
5.54973
  0
LINE
  8
0
 10
30.5121
 20
5.54973
 11
30.6102
 21
5.57166
  0
LINE
  8
0
 10
30.6102
 20
5.57166
 11
30.7095
 21
5.58737
  0
LINE
  8
0
 10
30.7095
 20
5.58737
 11
30.8095
 21
5.59683
  0
LINE
  8
0
 10
30.8095
 20
5.59683
 11
30.91
 21
5.59999
  0
LINE
  8
0
 10
30.91
 20
5.59999
 11
31.0105
 21
5.59683
  0
LINE
  8
0
 10
31.0105
 20
5.59683
 11
31.1105
 21
5.58737
  0
LINE
  8
0
 10
31.1105
 20
5.58737
 11
31.2098
 21
5.57166
  0
LINE
  8
0
 10
31.2098
 20
5.57166
 11
31.3079
 21
5.54973
  0
LINE
  8
0
 10
31.3079
 20
5.54973
 11
31.4044
 21
5.52168
  0
LINE
  8
0
 10
31.4044
 20
5.52168
 11
31.499
 21
5.48764
  0
LINE
  8
0
 10
31.499
 20
5.48764
 11
31.5912
 21
5.44771
  0
LINE
  8
0
 10
31.5912
 20
5.44771
 11
31.6808
 21
5.40208
  0
LINE
  8
0
 10
31.6808
 20
5.40208
 11
31.7673
 21
5.35092
  0
LINE
  8
0
 10
31.7673
 20
5.35092
 11
31.8504
 21
5.29442
  0
LINE
  8
0
 10
31.8504
 20
5.29442
 11
31.9299
 21
5.23282
  0
LINE
  8
0
 10
31.9299
 20
5.23282
 11
32.0053
 21
5.16634
  0
LINE
  8
0
 10
32.0053
 20
5.16634
 11
32.0763
 21
5.09526
  0
LINE
  8
0
 10
32.0763
 20
5.09526
 11
32.1428
 21
5.01987
  0
LINE
  8
0
 10
32.1428
 20
5.01987
 11
32.2044
 21
4.94044
  0
LINE
  8
0
 10
32.2044
 20
4.94044
 11
32.2609
 21
4.85732
  0
LINE
  8
0
 10
32.2609
 20
4.85732
 11
32.3121
 21
4.7708
  0
LINE
  8
0
 10
32.3121
 20
4.7708
 11
32.3577
 21
4.68124
  0
LINE
  8
0
 10
32.3577
 20
4.68124
 11
32.3976
 21
4.58899
  0
LINE
  8
0
 10
32.3976
 20
4.58899
 11
32.4317
 21
4.49442
  0
LINE
  8
0
 10
32.4317
 20
4.49442
 11
32.4597
 21
4.3979
  0
LINE
  8
0
 10
32.4597
 20
4.3979
 11
32.4817
 21
4.2998
  0
LINE
  8
0
 10
32.4817
 20
4.2998
 11
32.4974
 21
4.20053
  0
LINE
  8
0
 10
32.4974
 20
4.20053
 11
32.5068
 21
4.10046
  0
LINE
  8
0
 10
32.5068
 20
4.10046
 11
32.51
 21
4
  0
LINE
  8
0
 10
32.51
 20
4
 11
32.5068
 21
3.89952
  0
LINE
  8
0
 10
32.5068
 20
3.89952
 11
32.4974
 21
3.79945
  0
LINE
  8
0
 10
32.4974
 20
3.79945
 11
32.4817
 21
3.70018
  0
LINE
  8
0
 10
32.4817
 20
3.70018
 11
32.4597
 21
3.60208
  0
LINE
  8
0
 10
32.4597
 20
3.60208
 11
32.4317
 21
3.50557
  0
LINE
  8
0
 10
32.4317
 20
3.50557
 11
32.3976
 21
3.411
  0
LINE
  8
0
 10
32.3976
 20
3.411
 11
32.3577
 21
3.31874
  0
LINE
  8
0
 10
32.3577
 20
3.31874
 11
32.3121
 21
3.22919
  0
LINE
  8
0
 10
32.3121
 20
3.22919
 11
32.2609
 21
3.14267
  0
LINE
  8
0
 10
32.2609
 20
3.14267
 11
32.2044
 21
3.05954
  0
LINE
  8
0
 10
32.2044
 20
3.05954
 11
32.1428
 21
2.98012
  0
LINE
  8
0
 10
32.1428
 20
2.98012
 11
32.0763
 21
2.90472
  0
LINE
  8
0
 10
32.0763
 20
2.90472
 11
32.0053
 21
2.83365
  0
LINE
  8
0
 10
32.0053
 20
2.83365
 11
31.9299
 21
2.76717
  0
LINE
  8
0
 10
31.9299
 20
2.76717
 11
31.8504
 21
2.70557
  0
LINE
  8
0
 10
31.8504
 20
2.70557
 11
31.7673
 21
2.64906
  0
LINE
  8
0
 10
31.7673
 20
2.64906
 11
31.6808
 21
2.5979
  0
LINE
  8
0
 10
31.6808
 20
2.5979
 11
31.5912
 21
2.55228
  0
LINE
  8
0
 10
31.5912
 20
2.55228
 11
31.499
 21
2.51234
  0
LINE
  8
0
 10
31.499
 20
2.51234
 11
31.4044
 21
2.4783
  0
LINE
  8
0
 10
31.4044
 20
2.4783
 11
31.3079
 21
2.45026
  0
LINE
  8
0
 10
31.3079
 20
2.45026
 11
31.2098
 21
2.42833
  0
LINE
  8
0
 10
31.2098
 20
2.42833
 11
31.1105
 21
2.41261
  0
LINE
  8
0
 10
31.1105
 20
2.41261
 11
31.0105
 21
2.40315
  0
LINE
  8
0
 10
31.0105
 20
2.40315
 11
30.91
 21
2.39999
  0
LINE
  8
0
 10
30.91
 20
2.39999
 11
30.8095
 21
2.40315
  0
LINE
  8
0
 10
-38.9005
 20
-9.19685
 11
-39.0005
 21
-9.18739
  0
LINE
  8
0
 10
-39.0005
 20
-9.18739
 11
-39.0998
 21
-9.17166
  0
LINE
  8
0
 10
-39.0998
 20
-9.17166
 11
-39.1979
 21
-9.14973
  0
LINE
  8
0
 10
-39.1979
 20
-9.14973
 11
-39.2944
 21
-9.1217
  0
LINE
  8
0
 10
-39.2944
 20
-9.1217
 11
-39.389
 21
-9.08765
  0
LINE
  8
0
 10
-39.389
 20
-9.08765
 11
-39.4812
 21
-9.04773
  0
LINE
  8
0
 10
-39.4812
 20
-9.04773
 11
-39.5708
 21
-9.00211
  0
LINE
  8
0
 10
-39.5708
 20
-9.00211
 11
-39.6573
 21
-8.95093
  0
LINE
  8
0
 10
-39.6573
 20
-8.95093
 11
-39.7405
 21
-8.89444
  0
LINE
  8
0
 10
-39.7405
 20
-8.89444
 11
-39.8199
 21
-8.83282
  0
LINE
  8
0
 10
-39.8199
 20
-8.83282
 11
-39.8953
 21
-8.76636
  0
LINE
  8
0
 10
-39.8953
 20
-8.76636
 11
-39.9664
 21
-8.69528
  0
LINE
  8
0
 10
-39.9664
 20
-8.69528
 11
-40.0328
 21
-8.61989
  0
LINE
  8
0
 10
-40.0328
 20
-8.61989
 11
-40.0944
 21
-8.54047
  0
LINE
  8
0
 10
-40.0944
 20
-8.54047
 11
-40.1509
 21
-8.45734
  0
LINE
  8
0
 10
-40.1509
 20
-8.45734
 11
-40.2021
 21
-8.37082
  0
LINE
  8
0
 10
-40.2021
 20
-8.37082
 11
-40.2477
 21
-8.28125
  0
LINE
  8
0
 10
-40.2477
 20
-8.28125
 11
-40.2876
 21
-8.18901
  0
LINE
  8
0
 10
-40.2876
 20
-8.18901
 11
-40.3217
 21
-8.09444
  0
LINE
  8
0
 10
-40.3217
 20
-8.09444
 11
-40.3497
 21
-7.99791
  0
LINE
  8
0
 10
-40.3497
 20
-7.99791
 11
-40.3717
 21
-7.89981
  0
LINE
  8
0
 10
-40.3717
 20
-7.89981
 11
-40.3874
 21
-7.80054
  0
LINE
  8
0
 10
-40.3874
 20
-7.80054
 11
-40.3969
 21
-7.70047
  0
LINE
  8
0
 10
-40.3969
 20
-7.70047
 11
-40.4
 21
-7.60001
  0
LINE
  8
0
 10
-40.4
 20
-7.60001
 11
-40.3969
 21
-7.49954
  0
LINE
  8
0
 10
-40.3969
 20
-7.49954
 11
-40.3874
 21
-7.39948
  0
LINE
  8
0
 10
-40.3874
 20
-7.39948
 11
-40.3717
 21
-7.3002
  0
LINE
  8
0
 10
-40.3717
 20
-7.3002
 11
-40.3497
 21
-7.2021
  0
LINE
  8
0
 10
-40.3497
 20
-7.2021
 11
-40.3217
 21
-7.10558
  0
LINE
  8
0
 10
-40.3217
 20
-7.10558
 11
-40.2876
 21
-7.011
  0
LINE
  8
0
 10
-40.2876
 20
-7.011
 11
-40.2477
 21
-6.91876
  0
LINE
  8
0
 10
-40.2477
 20
-6.91876
 11
-40.2021
 21
-6.82921
  0
LINE
  8
0
 10
-40.2021
 20
-6.82921
 11
-40.1509
 21
-6.74269
  0
LINE
  8
0
 10
-40.1509
 20
-6.74269
 11
-40.0944
 21
-6.65955
  0
LINE
  8
0
 10
-40.0944
 20
-6.65955
 11
-40.0328
 21
-6.58012
  0
LINE
  8
0
 10
-40.0328
 20
-6.58012
 11
-39.9664
 21
-6.50473
  0
LINE
  8
0
 10
-39.9664
 20
-6.50473
 11
-39.8953
 21
-6.43365
  0
LINE
  8
0
 10
-39.8953
 20
-6.43365
 11
-39.8199
 21
-6.36719
  0
LINE
  8
0
 10
-39.8199
 20
-6.36719
 11
-39.7405
 21
-6.30559
  0
LINE
  8
0
 10
-39.7405
 20
-6.30559
 11
-39.6573
 21
-6.24908
  0
LINE
  8
0
 10
-39.6573
 20
-6.24908
 11
-39.5708
 21
-6.19792
  0
LINE
  8
0
 10
-39.5708
 20
-6.19792
 11
-39.4812
 21
-6.15228
  0
LINE
  8
0
 10
-39.4812
 20
-6.15228
 11
-39.389
 21
-6.11237
  0
LINE
  8
0
 10
-39.389
 20
-6.11237
 11
-39.2944
 21
-6.07832
  0
LINE
  8
0
 10
-39.2944
 20
-6.07832
 11
-39.1979
 21
-6.05028
  0
LINE
  8
0
 10
-39.1979
 20
-6.05028
 11
-39.0998
 21
-6.02835
  0
LINE
  8
0
 10
-39.0998
 20
-6.02835
 11
-39.0005
 21
-6.01262
  0
LINE
  8
0
 10
-39.0005
 20
-6.01262
 11
-38.9005
 21
-6.00316
  0
LINE
  8
0
 10
-38.9005
 20
-6.00316
 11
-38.8
 21
-6
  0
LINE
  8
0
 10
-38.8
 20
-6
 11
-38.6995
 21
-6.00316
  0
LINE
  8
0
 10
-38.6995
 20
-6.00316
 11
-38.5995
 21
-6.01262
  0
LINE
  8
0
 10
-38.5995
 20
-6.01262
 11
-38.5002
 21
-6.02835
  0
LINE
  8
0
 10
-38.5002
 20
-6.02835
 11
-38.4021
 21
-6.05028
  0
LINE
  8
0
 10
-38.4021
 20
-6.05028
 11
-38.3056
 21
-6.07832
  0
LINE
  8
0
 10
-38.3056
 20
-6.07832
 11
-38.211
 21
-6.11237
  0
LINE
  8
0
 10
-38.211
 20
-6.11237
 11
-38.1188
 21
-6.15228
  0
LINE
  8
0
 10
-38.1188
 20
-6.15228
 11
-38.0292
 21
-6.19792
  0
LINE
  8
0
 10
-38.0292
 20
-6.19792
 11
-37.9427
 21
-6.24908
  0
LINE
  8
0
 10
-37.9427
 20
-6.24908
 11
-37.8596
 21
-6.30559
  0
LINE
  8
0
 10
-37.8596
 20
-6.30559
 11
-37.7801
 21
-6.36719
  0
LINE
  8
0
 10
-37.7801
 20
-6.36719
 11
-37.7047
 21
-6.43365
  0
LINE
  8
0
 10
-37.7047
 20
-6.43365
 11
-37.6337
 21
-6.50473
  0
LINE
  8
0
 10
-37.6337
 20
-6.50473
 11
-37.5672
 21
-6.58012
  0
LINE
  8
0
 10
-37.5672
 20
-6.58012
 11
-37.5056
 21
-6.65955
  0
LINE
  8
0
 10
-37.5056
 20
-6.65955
 11
-37.4491
 21
-6.74269
  0
LINE
  8
0
 10
-37.4491
 20
-6.74269
 11
-37.3979
 21
-6.82921
  0
LINE
  8
0
 10
-37.3979
 20
-6.82921
 11
-37.3523
 21
-6.91876
  0
LINE
  8
0
 10
-37.3523
 20
-6.91876
 11
-37.3124
 21
-7.011
  0
LINE
  8
0
 10
-37.3124
 20
-7.011
 11
-37.2783
 21
-7.10558
  0
LINE
  8
0
 10
-37.2783
 20
-7.10558
 11
-37.2503
 21
-7.2021
  0
LINE
  8
0
 10
-37.2503
 20
-7.2021
 11
-37.2283
 21
-7.3002
  0
LINE
  8
0
 10
-37.2283
 20
-7.3002
 11
-37.2126
 21
-7.39948
  0
LINE
  8
0
 10
-37.2126
 20
-7.39948
 11
-37.2032
 21
-7.49954
  0
LINE
  8
0
 10
-37.2032
 20
-7.49954
 11
-37.2
 21
-7.60001
  0
LINE
  8
0
 10
-37.2
 20
-7.60001
 11
-37.2032
 21
-7.70047
  0
LINE
  8
0
 10
-37.2032
 20
-7.70047
 11
-37.2126
 21
-7.80054
  0
LINE
  8
0
 10
-37.2126
 20
-7.80054
 11
-37.2283
 21
-7.89981
  0
LINE
  8
0
 10
-37.2283
 20
-7.89981
 11
-37.2503
 21
-7.99791
  0
LINE
  8
0
 10
-37.2503
 20
-7.99791
 11
-37.2783
 21
-8.09444
  0
LINE
  8
0
 10
-37.2783
 20
-8.09444
 11
-37.3124
 21
-8.18901
  0
LINE
  8
0
 10
-37.3124
 20
-8.18901
 11
-37.3523
 21
-8.28125
  0
LINE
  8
0
 10
-37.3523
 20
-8.28125
 11
-37.3979
 21
-8.37082
  0
LINE
  8
0
 10
-37.3979
 20
-8.37082
 11
-37.4491
 21
-8.45734
  0
LINE
  8
0
 10
-37.4491
 20
-8.45734
 11
-37.5056
 21
-8.54047
  0
LINE
  8
0
 10
-37.5056
 20
-8.54047
 11
-37.5672
 21
-8.61989
  0
LINE
  8
0
 10
-37.5672
 20
-8.61989
 11
-37.6337
 21
-8.69528
  0
LINE
  8
0
 10
-37.6337
 20
-8.69528
 11
-37.7047
 21
-8.76636
  0
LINE
  8
0
 10
-37.7047
 20
-8.76636
 11
-37.7801
 21
-8.83282
  0
LINE
  8
0
 10
-37.7801
 20
-8.83282
 11
-37.8596
 21
-8.89444
  0
LINE
  8
0
 10
-37.8596
 20
-8.89444
 11
-37.9427
 21
-8.95093
  0
LINE
  8
0
 10
-37.9427
 20
-8.95093
 11
-38.0292
 21
-9.00211
  0
LINE
  8
0
 10
-38.0292
 20
-9.00211
 11
-38.1188
 21
-9.04773
  0
LINE
  8
0
 10
-38.1188
 20
-9.04773
 11
-38.211
 21
-9.08765
  0
LINE
  8
0
 10
-38.211
 20
-9.08765
 11
-38.3056
 21
-9.1217
  0
LINE
  8
0
 10
-38.3056
 20
-9.1217
 11
-38.4021
 21
-9.14973
  0
LINE
  8
0
 10
-38.4021
 20
-9.14973
 11
-38.5002
 21
-9.17166
  0
LINE
  8
0
 10
-38.5002
 20
-9.17166
 11
-38.5995
 21
-9.18739
  0
LINE
  8
0
 10
-38.5995
 20
-9.18739
 11
-38.6995
 21
-9.19685
  0
LINE
  8
0
 10
-38.6995
 20
-9.19685
 11
-38.8
 21
-9.20001
  0
LINE
  8
0
 10
-38.8
 20
-9.20001
 11
-38.9005
 21
-9.19685
  0
LINE
  8
0
 10
-17.3005
 20
-9.19685
 11
-17.4005
 21
-9.18739
  0
LINE
  8
0
 10
-17.4005
 20
-9.18739
 11
-17.4998
 21
-9.17166
  0
LINE
  8
0
 10
-17.4998
 20
-9.17166
 11
-17.5979
 21
-9.14973
  0
LINE
  8
0
 10
-17.5979
 20
-9.14973
 11
-17.6944
 21
-9.1217
  0
LINE
  8
0
 10
-17.6944
 20
-9.1217
 11
-17.789
 21
-9.08765
  0
LINE
  8
0
 10
-17.789
 20
-9.08765
 11
-17.8813
 21
-9.04773
  0
LINE
  8
0
 10
-17.8813
 20
-9.04773
 11
-17.9708
 21
-9.00211
  0
LINE
  8
0
 10
-17.9708
 20
-9.00211
 11
-18.0573
 21
-8.95093
  0
LINE
  8
0
 10
-18.0573
 20
-8.95093
 11
-18.1405
 21
-8.89444
  0
LINE
  8
0
 10
-18.1405
 20
-8.89444
 11
-18.2199
 21
-8.83282
  0
LINE
  8
0
 10
-18.2199
 20
-8.83282
 11
-18.2953
 21
-8.76636
  0
LINE
  8
0
 10
-18.2953
 20
-8.76636
 11
-18.3664
 21
-8.69528
  0
LINE
  8
0
 10
-18.3664
 20
-8.69528
 11
-18.4328
 21
-8.61989
  0
LINE
  8
0
 10
-18.4328
 20
-8.61989
 11
-18.4944
 21
-8.54047
  0
LINE
  8
0
 10
-18.4944
 20
-8.54047
 11
-18.5509
 21
-8.45734
  0
LINE
  8
0
 10
-18.5509
 20
-8.45734
 11
-18.6021
 21
-8.37082
  0
LINE
  8
0
 10
-18.6021
 20
-8.37082
 11
-18.6477
 21
-8.28125
  0
LINE
  8
0
 10
-18.6477
 20
-8.28125
 11
-18.6877
 21
-8.18901
  0
LINE
  8
0
 10
-18.6877
 20
-8.18901
 11
-18.7217
 21
-8.09444
  0
LINE
  8
0
 10
-18.7217
 20
-8.09444
 11
-18.7497
 21
-7.99791
  0
LINE
  8
0
 10
-18.7497
 20
-7.99791
 11
-18.7717
 21
-7.89981
  0
LINE
  8
0
 10
-18.7717
 20
-7.89981
 11
-18.7874
 21
-7.80054
  0
LINE
  8
0
 10
-18.7874
 20
-7.80054
 11
-18.7968
 21
-7.70047
  0
LINE
  8
0
 10
-18.7968
 20
-7.70047
 11
-18.8
 21
-7.60001
  0
LINE
  8
0
 10
-18.8
 20
-7.60001
 11
-18.7968
 21
-7.49954
  0
LINE
  8
0
 10
-18.7968
 20
-7.49954
 11
-18.7874
 21
-7.39948
  0
LINE
  8
0
 10
-18.7874
 20
-7.39948
 11
-18.7717
 21
-7.3002
  0
LINE
  8
0
 10
-18.7717
 20
-7.3002
 11
-18.7497
 21
-7.2021
  0
LINE
  8
0
 10
-18.7497
 20
-7.2021
 11
-18.7217
 21
-7.10558
  0
LINE
  8
0
 10
-18.7217
 20
-7.10558
 11
-18.6877
 21
-7.011
  0
LINE
  8
0
 10
-18.6877
 20
-7.011
 11
-18.6477
 21
-6.91876
  0
LINE
  8
0
 10
-18.6477
 20
-6.91876
 11
-18.6021
 21
-6.82921
  0
LINE
  8
0
 10
-18.6021
 20
-6.82921
 11
-18.5509
 21
-6.74269
  0
LINE
  8
0
 10
-18.5509
 20
-6.74269
 11
-18.4944
 21
-6.65955
  0
LINE
  8
0
 10
-18.4944
 20
-6.65955
 11
-18.4328
 21
-6.58012
  0
LINE
  8
0
 10
-18.4328
 20
-6.58012
 11
-18.3664
 21
-6.50473
  0
LINE
  8
0
 10
-18.3664
 20
-6.50473
 11
-18.2953
 21
-6.43365
  0
LINE
  8
0
 10
-18.2953
 20
-6.43365
 11
-18.2199
 21
-6.36719
  0
LINE
  8
0
 10
-18.2199
 20
-6.36719
 11
-18.1405
 21
-6.30559
  0
LINE
  8
0
 10
-18.1405
 20
-6.30559
 11
-18.0573
 21
-6.24908
  0
LINE
  8
0
 10
-18.0573
 20
-6.24908
 11
-17.9708
 21
-6.19792
  0
LINE
  8
0
 10
-17.9708
 20
-6.19792
 11
-17.8813
 21
-6.15228
  0
LINE
  8
0
 10
-17.8813
 20
-6.15228
 11
-17.789
 21
-6.11237
  0
LINE
  8
0
 10
-17.789
 20
-6.11237
 11
-17.6944
 21
-6.07832
  0
LINE
  8
0
 10
-17.6944
 20
-6.07832
 11
-17.5979
 21
-6.05028
  0
LINE
  8
0
 10
-17.5979
 20
-6.05028
 11
-17.4998
 21
-6.02835
  0
LINE
  8
0
 10
-17.4998
 20
-6.02835
 11
-17.4005
 21
-6.01262
  0
LINE
  8
0
 10
-17.4005
 20
-6.01262
 11
-17.3005
 21
-6.00316
  0
LINE
  8
0
 10
-17.3005
 20
-6.00316
 11
-17.2
 21
-6
  0
LINE
  8
0
 10
-17.2
 20
-6
 11
-17.0995
 21
-6.00316
  0
LINE
  8
0
 10
-17.0995
 20
-6.00316
 11
-16.9995
 21
-6.01262
  0
LINE
  8
0
 10
-16.9995
 20
-6.01262
 11
-16.9002
 21
-6.02835
  0
LINE
  8
0
 10
-16.9002
 20
-6.02835
 11
-16.8021
 21
-6.05028
  0
LINE
  8
0
 10
-16.8021
 20
-6.05028
 11
-16.7056
 21
-6.07832
  0
LINE
  8
0
 10
-16.7056
 20
-6.07832
 11
-16.611
 21
-6.11237
  0
LINE
  8
0
 10
-16.611
 20
-6.11237
 11
-16.5188
 21
-6.15228
  0
LINE
  8
0
 10
-16.5188
 20
-6.15228
 11
-16.4292
 21
-6.19792
  0
LINE
  8
0
 10
-16.4292
 20
-6.19792
 11
-16.3427
 21
-6.24908
  0
LINE
  8
0
 10
-16.3427
 20
-6.24908
 11
-16.2596
 21
-6.30559
  0
LINE
  8
0
 10
-16.2596
 20
-6.30559
 11
-16.1801
 21
-6.36719
  0
LINE
  8
0
 10
-16.1801
 20
-6.36719
 11
-16.1047
 21
-6.43365
  0
LINE
  8
0
 10
-16.1047
 20
-6.43365
 11
-16.0337
 21
-6.50473
  0
LINE
  8
0
 10
-16.0337
 20
-6.50473
 11
-15.9672
 21
-6.58012
  0
LINE
  8
0
 10
-15.9672
 20
-6.58012
 11
-15.9056
 21
-6.65955
  0
LINE
  8
0
 10
-15.9056
 20
-6.65955
 11
-15.8491
 21
-6.74269
  0
LINE
  8
0
 10
-15.8491
 20
-6.74269
 11
-15.7979
 21
-6.82921
  0
LINE
  8
0
 10
-15.7979
 20
-6.82921
 11
-15.7523
 21
-6.91876
  0
LINE
  8
0
 10
-15.7523
 20
-6.91876
 11
-15.7124
 21
-7.011
  0
LINE
  8
0
 10
-15.7124
 20
-7.011
 11
-15.6783
 21
-7.10558
  0
LINE
  8
0
 10
-15.6783
 20
-7.10558
 11
-15.6503
 21
-7.2021
  0
LINE
  8
0
 10
-15.6503
 20
-7.2021
 11
-15.6283
 21
-7.3002
  0
LINE
  8
0
 10
-15.6283
 20
-7.3002
 11
-15.6126
 21
-7.39948
  0
LINE
  8
0
 10
-15.6126
 20
-7.39948
 11
-15.6032
 21
-7.49954
  0
LINE
  8
0
 10
-15.6032
 20
-7.49954
 11
-15.6
 21
-7.60001
  0
LINE
  8
0
 10
-15.6
 20
-7.60001
 11
-15.6032
 21
-7.70047
  0
LINE
  8
0
 10
-15.6032
 20
-7.70047
 11
-15.6126
 21
-7.80054
  0
LINE
  8
0
 10
-15.6126
 20
-7.80054
 11
-15.6283
 21
-7.89981
  0
LINE
  8
0
 10
-15.6283
 20
-7.89981
 11
-15.6503
 21
-7.99791
  0
LINE
  8
0
 10
-15.6503
 20
-7.99791
 11
-15.6783
 21
-8.09444
  0
LINE
  8
0
 10
-15.6783
 20
-8.09444
 11
-15.7124
 21
-8.18901
  0
LINE
  8
0
 10
-15.7124
 20
-8.18901
 11
-15.7523
 21
-8.28125
  0
LINE
  8
0
 10
-15.7523
 20
-8.28125
 11
-15.7979
 21
-8.37082
  0
LINE
  8
0
 10
-15.7979
 20
-8.37082
 11
-15.8491
 21
-8.45734
  0
LINE
  8
0
 10
-15.8491
 20
-8.45734
 11
-15.9056
 21
-8.54047
  0
LINE
  8
0
 10
-15.9056
 20
-8.54047
 11
-15.9672
 21
-8.61989
  0
LINE
  8
0
 10
-15.9672
 20
-8.61989
 11
-16.0337
 21
-8.69528
  0
LINE
  8
0
 10
-16.0337
 20
-8.69528
 11
-16.1047
 21
-8.76636
  0
LINE
  8
0
 10
-16.1047
 20
-8.76636
 11
-16.1801
 21
-8.83282
  0
LINE
  8
0
 10
-16.1801
 20
-8.83282
 11
-16.2596
 21
-8.89444
  0
LINE
  8
0
 10
-16.2596
 20
-8.89444
 11
-16.3427
 21
-8.95093
  0
LINE
  8
0
 10
-16.3427
 20
-8.95093
 11
-16.4292
 21
-9.00211
  0
LINE
  8
0
 10
-16.4292
 20
-9.00211
 11
-16.5188
 21
-9.04773
  0
LINE
  8
0
 10
-16.5188
 20
-9.04773
 11
-16.611
 21
-9.08765
  0
LINE
  8
0
 10
-16.611
 20
-9.08765
 11
-16.7056
 21
-9.1217
  0
LINE
  8
0
 10
-16.7056
 20
-9.1217
 11
-16.8021
 21
-9.14973
  0
LINE
  8
0
 10
-16.8021
 20
-9.14973
 11
-16.9002
 21
-9.17166
  0
LINE
  8
0
 10
-16.9002
 20
-9.17166
 11
-16.9995
 21
-9.18739
  0
LINE
  8
0
 10
-16.9995
 20
-9.18739
 11
-17.0995
 21
-9.19685
  0
LINE
  8
0
 10
-17.0995
 20
-9.19685
 11
-17.2
 21
-9.20001
  0
LINE
  8
0
 10
-17.2
 20
-9.20001
 11
-17.3005
 21
-9.19685
  0
ENDSEC
  0
SECTION
  2
OBJECTS
  0
DICTIONARY
  0
ENDSEC
  0
EOF
