  0
SECTION
  2
BLOCKS
  0
ENDSEC
  0
SECTION
  2
ENTITIES
  0
LINE
  8
0
 10
81.4
 20
0
 11
81.4
 21
63.8
  0
LINE
  8
0
 10
81.4
 20
63.8
 11
0
 21
63.8
  0
LINE
  8
0
 10
0
 20
63.8
 11
-43
 21
26
  0
LINE
  8
0
 10
-43
 20
26
 11
-43
 21
-12
  0
LINE
  8
0
 10
-43
 20
-12
 11
-13
 21
-12
  0
LINE
  8
0
 10
-13
 20
-12
 11
81.4
 21
0
  0
LINE
  8
0
 10
76.6
 20
58.4144
 11
75.8
 21
59.8
  0
LINE
  8
0
 10
75.8
 20
59.8
 11
76.6
 21
61.1856
  0
LINE
  8
0
 10
76.6
 20
61.1856
 11
78.2
 21
61.1856
  0
LINE
  8
0
 10
78.2
 20
61.1856
 11
79
 21
59.8
  0
LINE
  8
0
 10
79
 20
59.8
 11
78.2
 21
58.4144
  0
LINE
  8
0
 10
78.2
 20
58.4144
 11
76.6
 21
58.4144
  0
LINE
  8
0
 10
3.2
 20
58.4144
 11
2.39999
 21
59.8
  0
LINE
  8
0
 10
2.39999
 20
59.8
 11
3.2
 21
61.1856
  0
LINE
  8
0
 10
3.2
 20
61.1856
 11
4.79999
 21
61.1856
  0
LINE
  8
0
 10
4.79999
 20
61.1856
 11
5.59999
 21
59.8
  0
LINE
  8
0
 10
5.59999
 20
59.8
 11
4.79999
 21
58.4144
  0
LINE
  8
0
 10
4.79999
 20
58.4144
 11
3.2
 21
58.4144
  0
LINE
  8
0
 10
39.9
 20
58.4144
 11
39.1
 21
59.8
  0
LINE
  8
0
 10
39.1
 20
59.8
 11
39.9
 21
61.1856
  0
LINE
  8
0
 10
39.9
 20
61.1856
 11
41.5
 21
61.1856
  0
LINE
  8
0
 10
41.5
 20
61.1856
 11
42.3
 21
59.8
  0
LINE
  8
0
 10
42.3
 20
59.8
 11
41.5
 21
58.4144
  0
LINE
  8
0
 10
41.5
 20
58.4144
 11
39.9
 21
58.4144
  0
LINE
  8
0
 10
57.5
 20
58.4144
 11
56.7
 21
59.8
  0
LINE
  8
0
 10
56.7
 20
59.8
 11
57.5
 21
61.1856
  0
LINE
  8
0
 10
57.5
 20
61.1856
 11
59.1
 21
61.1856
  0
LINE
  8
0
 10
59.1
 20
61.1856
 11
59.9
 21
59.8
  0
LINE
  8
0
 10
59.9
 20
59.8
 11
59.1
 21
58.4144
  0
LINE
  8
0
 10
59.1
 20
58.4144
 11
57.5
 21
58.4144
  0
LINE
  8
0
 10
22.3
 20
58.4144
 11
21.5
 21
59.8
  0
LINE
  8
0
 10
21.5
 20
59.8
 11
22.3
 21
61.1856
  0
LINE
  8
0
 10
22.3
 20
61.1856
 11
23.9
 21
61.1856
  0
LINE
  8
0
 10
23.9
 20
61.1856
 11
24.7
 21
59.8
  0
LINE
  8
0
 10
24.7
 20
59.8
 11
23.9
 21
58.4144
  0
LINE
  8
0
 10
23.9
 20
58.4144
 11
22.3
 21
58.4144
  0
LINE
  8
0
 10
3.2
 20
39.3143
 11
2.39999
 21
40.7
  0
LINE
  8
0
 10
2.39999
 20
40.7
 11
3.2
 21
42.0856
  0
LINE
  8
0
 10
3.2
 20
42.0856
 11
4.79999
 21
42.0856
  0
LINE
  8
0
 10
4.79999
 20
42.0856
 11
5.59999
 21
40.7
  0
LINE
  8
0
 10
5.59999
 20
40.7
 11
4.79999
 21
39.3143
  0
LINE
  8
0
 10
4.79999
 20
39.3143
 11
3.2
 21
39.3143
  0
LINE
  8
0
 10
76.6
 20
39.3143
 11
75.8
 21
40.7
  0
LINE
  8
0
 10
75.8
 20
40.7
 11
76.6
 21
42.0856
  0
LINE
  8
0
 10
76.6
 20
42.0856
 11
78.2
 21
42.0856
  0
LINE
  8
0
 10
78.2
 20
42.0856
 11
79
 21
40.7
  0
LINE
  8
0
 10
79
 20
40.7
 11
78.2
 21
39.3143
  0
LINE
  8
0
 10
78.2
 20
39.3143
 11
76.6
 21
39.3143
  0
LINE
  8
0
 10
3.2
 20
21.7144
 11
2.39999
 21
23.1
  0
LINE
  8
0
 10
2.39999
 20
23.1
 11
3.2
 21
24.4856
  0
LINE
  8
0
 10
3.2
 20
24.4856
 11
4.79999
 21
24.4856
  0
LINE
  8
0
 10
4.79999
 20
24.4856
 11
5.59999
 21
23.1
  0
LINE
  8
0
 10
5.59999
 20
23.1
 11
4.79999
 21
21.7144
  0
LINE
  8
0
 10
4.79999
 20
21.7144
 11
3.2
 21
21.7144
  0
LINE
  8
0
 10
76.6
 20
21.7144
 11
75.8
 21
23.1
  0
LINE
  8
0
 10
75.8
 20
23.1
 11
76.6
 21
24.4856
  0
LINE
  8
0
 10
76.6
 20
24.4856
 11
78.2
 21
24.4856
  0
LINE
  8
0
 10
78.2
 20
24.4856
 11
79
 21
23.1
  0
LINE
  8
0
 10
79
 20
23.1
 11
78.2
 21
21.7144
  0
LINE
  8
0
 10
78.2
 20
21.7144
 11
76.6
 21
21.7144
  0
LINE
  8
0
 10
-21.0019
 20
17.1322
 11
-21.0019
 21
18.8678
  0
LINE
  8
0
 10
-21.0019
 20
18.8678
 11
-19.6451
 21
19.9498
  0
LINE
  8
0
 10
-19.6451
 20
19.9498
 11
-17.953
 21
19.5637
  0
LINE
  8
0
 10
-17.953
 20
19.5637
 11
-17.2
 21
18
  0
LINE
  8
0
 10
-17.2
 20
18
 11
-17.953
 21
16.4363
  0
LINE
  8
0
 10
-17.953
 20
16.4363
 11
-19.6451
 21
16.0501
  0
LINE
  8
0
 10
-19.6451
 20
16.0501
 11
-21.0019
 21
17.1322
  0
LINE
  8
0
 10
-40.202
 20
17.1322
 11
-40.202
 21
18.8678
  0
LINE
  8
0
 10
-40.202
 20
18.8678
 11
-38.845
 21
19.9498
  0
LINE
  8
0
 10
-38.845
 20
19.9498
 11
-37.153
 21
19.5637
  0
LINE
  8
0
 10
-37.153
 20
19.5637
 11
-36.4
 21
18
  0
LINE
  8
0
 10
-36.4
 20
18
 11
-37.153
 21
16.4363
  0
LINE
  8
0
 10
-37.153
 20
16.4363
 11
-38.845
 21
16.0501
  0
LINE
  8
0
 10
-38.845
 20
16.0501
 11
-40.202
 21
17.1322
  0
LINE
  8
0
 10
3.2
 20
2.61435
 11
2.39999
 21
4
  0
LINE
  8
0
 10
2.39999
 20
4
 11
3.2
 21
5.38564
  0
LINE
  8
0
 10
3.2
 20
5.38564
 11
4.79999
 21
5.38564
  0
LINE
  8
0
 10
4.79999
 20
5.38564
 11
5.59999
 21
4
  0
LINE
  8
0
 10
5.59999
 20
4
 11
4.79999
 21
2.61435
  0
LINE
  8
0
 10
4.79999
 20
2.61435
 11
3.2
 21
2.61435
  0
LINE
  8
0
 10
39.9
 20
2.61435
 11
39.1
 21
4
  0
LINE
  8
0
 10
39.1
 20
4
 11
39.9
 21
5.38564
  0
LINE
  8
0
 10
39.9
 20
5.38564
 11
41.5
 21
5.38564
  0
LINE
  8
0
 10
41.5
 20
5.38564
 11
42.3
 21
4
  0
LINE
  8
0
 10
42.3
 20
4
 11
41.5
 21
2.61435
  0
LINE
  8
0
 10
41.5
 20
2.61435
 11
39.9
 21
2.61435
  0
LINE
  8
0
 10
57.5
 20
2.61435
 11
56.7
 21
4
  0
LINE
  8
0
 10
56.7
 20
4
 11
57.5
 21
5.38564
  0
LINE
  8
0
 10
57.5
 20
5.38564
 11
59.1
 21
5.38564
  0
LINE
  8
0
 10
59.1
 20
5.38564
 11
59.9
 21
4
  0
LINE
  8
0
 10
59.9
 20
4
 11
59.1
 21
2.61435
  0
LINE
  8
0
 10
59.1
 20
2.61435
 11
57.5
 21
2.61435
  0
LINE
  8
0
 10
22.3
 20
2.61435
 11
21.5
 21
4
  0
LINE
  8
0
 10
21.5
 20
4
 11
22.3
 21
5.38564
  0
LINE
  8
0
 10
22.3
 20
5.38564
 11
23.9
 21
5.38564
  0
LINE
  8
0
 10
23.9
 20
5.38564
 11
24.7
 21
4
  0
LINE
  8
0
 10
24.7
 20
4
 11
23.9
 21
2.61435
  0
LINE
  8
0
 10
23.9
 20
2.61435
 11
22.3
 21
2.61435
  0
LINE
  8
0
 10
76.6
 20
2.61435
 11
75.8
 21
4
  0
LINE
  8
0
 10
75.8
 20
4
 11
76.6
 21
5.38564
  0
LINE
  8
0
 10
76.6
 20
5.38564
 11
78.2
 21
5.38564
  0
LINE
  8
0
 10
78.2
 20
5.38564
 11
79
 21
4
  0
LINE
  8
0
 10
79
 20
4
 11
78.2
 21
2.61435
  0
LINE
  8
0
 10
78.2
 20
2.61435
 11
76.6
 21
2.61435
  0
LINE
  8
0
 10
-40.202
 20
-8.06778
 11
-40.202
 21
-6.33224
  0
LINE
  8
0
 10
-40.202
 20
-6.33224
 11
-38.845
 21
-5.25015
  0
LINE
  8
0
 10
-38.845
 20
-5.25015
 11
-37.153
 21
-5.63634
  0
LINE
  8
0
 10
-37.153
 20
-5.63634
 11
-36.4
 21
-7.20001
  0
LINE
  8
0
 10
-36.4
 20
-7.20001
 11
-37.153
 21
-8.76367
  0
LINE
  8
0
 10
-37.153
 20
-8.76367
 11
-38.845
 21
-9.14986
  0
LINE
  8
0
 10
-38.845
 20
-9.14986
 11
-40.202
 21
-8.06778
  0
LINE
  8
0
 10
-21.0019
 20
-8.06778
 11
-21.0019
 21
-6.33224
  0
LINE
  8
0
 10
-21.0019
 20
-6.33224
 11
-19.6451
 21
-5.25015
  0
LINE
  8
0
 10
-19.6451
 20
-5.25015
 11
-17.953
 21
-5.63634
  0
LINE
  8
0
 10
-17.953
 20
-5.63634
 11
-17.2
 21
-7.20001
  0
LINE
  8
0
 10
-17.2
 20
-7.20001
 11
-17.953
 21
-8.76367
  0
LINE
  8
0
 10
-17.953
 20
-8.76367
 11
-19.6451
 21
-9.14986
  0
LINE
  8
0
 10
-19.6451
 20
-9.14986
 11
-21.0019
 21
-8.06778
  0
ENDSEC
  0
SECTION
  2
OBJECTS
  0
DICTIONARY
  0
ENDSEC
  0
EOF
